{"glyphs":{"0":{"ha":2710,"x_min":346,"x_max":2419,"o":"m 1442 1046 q 1388 1063 1408 1046 q 1364 1111 1368 1079 q 1360 1168 1360 1131 l 1358 1231 q 1365 1303 1358 1275 q 1438 1356 1376 1353 q 1488 1345 1465 1356 q 1519 1311 1511 1335 q 1528 1246 1528 1288 l 1526 1178 q 1522 1107 1526 1128 q 1442 1046 1508 1046 m 350 392 l 404 392 l 444 182 l 483 392 l 540 392 l 542 56 l 494 56 l 489 196 l 465 56 l 426 56 l 399 193 l 396 56 l 346 56 l 350 392 m 557 -271 q 567 -236 557 -250 q 596 -222 576 -222 q 631 -236 624 -222 q 638 -275 638 -250 l 618 -275 l 618 -265 q 615 -247 618 -253 q 600 -236 611 -236 q 583 -246 589 -236 q 577 -276 576 -256 q 578 -300 578 -296 l 578 -318 q 586 -356 578 -344 q 599 -362 588 -362 q 615 -351 611 -362 q 618 -334 618 -343 q 618 -322 618 -325 l 638 -322 q 631 -364 638 -347 q 600 -381 624 -381 q 565 -362 574 -381 q 556 -314 556 -344 l 557 -271 m 586 392 l 629 392 l 686 232 l 686 392 l 739 392 l 739 56 l 697 56 l 639 221 l 639 56 l 586 56 l 586 392 m 657 -325 q 656 -283 657 -315 q 666 -235 656 -250 q 701 -224 676 -219 q 735 -242 728 -225 q 743 -285 743 -258 q 744 -318 743 -290 q 734 -363 744 -346 q 700 -381 724 -381 q 665 -365 674 -381 q 657 -325 657 -350 m 661 1354 l 725 1354 q 769 1347 751 1354 q 797 1319 788 1340 q 811 1267 811 1297 q 783 1206 811 1225 q 755 1192 772 1194 q 722 1190 738 1189 q 700 1190 706 1190 l 700 1049 l 661 1049 l 661 1354 m 663 1006 l 701 1006 l 701 801 q 706 756 701 772 q 726 729 710 739 q 742 726 738 726 q 774 747 764 726 q 783 796 783 768 l 783 1006 l 826 1006 l 826 867 l 828 817 q 817 742 828 772 q 774 701 806 711 q 743 696 761 696 q 699 708 719 696 q 671 742 679 719 q 664 775 665 756 q 663 815 663 794 l 663 1006 m 676 -322 q 688 -360 676 -356 q 701 -364 696 -364 q 717 -349 715 -364 q 719 -308 719 -335 l 721 -276 q 710 -242 721 -246 q 697 -237 701 -237 q 683 -246 688 -237 q 678 -265 678 -254 q 677 -276 676 -269 q 678 -286 678 -283 l 676 -322 m 718 1221 q 744 1224 735 1221 q 765 1238 760 1228 q 771 1267 771 1249 q 767 1302 771 1289 q 744 1319 763 1315 q 726 1322 739 1322 l 700 1321 l 700 1221 l 718 1221 m 715 -31 l 774 -31 l 774 -46 l 739 -46 l 739 -99 l 767 -99 l 767 -112 l 739 -112 l 739 -185 l 715 -185 l 715 -31 m 763 -224 l 788 -224 l 815 -347 l 840 -224 l 863 -224 l 864 -379 l 849 -379 l 849 -265 l 824 -379 l 807 -379 l 782 -265 l 782 -379 l 763 -379 l 763 -224 m 776 117 l 833 117 l 833 56 l 776 56 l 776 117 m 788 -118 q 787 -84 788 -112 q 798 -41 786 -56 q 835 -26 810 -26 q 866 -47 858 -29 q 874 -93 874 -64 q 874 -125 874 -99 q 864 -169 875 -151 q 831 -186 853 -186 q 796 -168 804 -186 q 788 -118 788 -150 m 808 -132 q 824 -171 808 -164 q 848 -158 843 -175 q 853 -114 853 -142 q 853 -93 853 -110 q 851 -63 854 -76 q 840 -47 849 -50 q 831 -44 836 -44 q 815 -53 821 -44 q 810 -74 810 -61 l 810 -99 l 808 -132 m 840 1354 l 957 1354 l 957 1321 l 882 1321 l 882 1221 l 943 1221 l 943 1190 l 882 1190 l 882 1078 l 960 1078 l 960 1049 l 840 1049 l 840 1354 m 907 176 q 909 143 907 157 q 921 117 911 129 q 936 104 928 104 q 956 135 956 104 q 945 169 956 153 q 922 198 935 185 q 903 218 908 211 q 887 235 899 224 q 872 253 875 246 q 856 308 856 279 q 858 331 856 317 q 881 377 860 358 q 932 396 903 396 q 964 389 950 396 q 999 349 990 376 q 1007 282 1007 321 l 956 279 q 953 305 954 288 q 947 333 951 322 q 933 344 943 343 q 914 336 919 346 q 908 314 908 326 q 910 301 908 304 q 928 275 917 285 q 943 263 940 265 l 969 232 q 1008 119 1017 183 q 992 77 1007 96 q 950 51 976 58 q 901 59 925 49 q 869 92 878 69 q 854 174 854 126 l 907 176 m 900 796 q 903 761 901 772 q 915 742 906 750 q 943 729 926 729 q 964 738 956 729 q 976 767 976 749 q 967 799 976 785 q 954 814 964 803 q 932 832 944 825 q 903 856 924 839 q 872 890 882 874 q 860 936 860 911 q 872 979 860 960 q 907 1006 883 999 q 928 1007 914 1007 q 982 994 960 1007 q 1007 929 1007 976 l 975 915 q 940 972 972 967 q 931 974 938 974 q 908 963 917 974 q 900 936 900 953 q 910 909 900 921 q 932 887 919 897 q 950 872 944 876 q 998 826 983 844 q 1013 772 1013 807 q 992 720 1013 742 q 940 699 972 699 q 883 723 906 699 q 858 785 861 747 l 900 796 m 892 -224 l 914 -224 l 940 -347 l 968 -224 l 989 -224 l 992 -379 l 978 -379 l 975 -265 l 949 -379 l 932 -379 l 910 -265 l 907 -379 l 892 -379 l 892 -224 m 896 -31 l 926 -29 q 953 -35 942 -29 q 968 -51 963 -40 q 974 -75 974 -62 q 968 -97 974 -87 q 953 -108 963 -106 l 978 -185 l 953 -185 l 932 -112 l 915 -112 l 915 -185 l 896 -185 l 896 -31 m 911 628 q 933 628 915 628 q 963 624 950 629 q 983 610 976 619 q 988 585 988 600 q 978 551 988 561 q 960 543 968 544 q 943 542 951 542 q 932 542 935 542 l 932 467 l 911 467 l 911 628 m 915 -99 q 953 -71 953 -99 q 944 -50 953 -54 q 915 -46 935 -46 l 915 -99 m 932 556 q 954 558 950 556 q 965 569 963 563 q 967 589 967 576 q 959 610 967 606 q 932 614 951 614 l 932 556 m 992 1354 q 1028 1355 1001 1354 q 1075 1352 1054 1356 q 1111 1342 1096 1349 q 1137 1311 1128 1332 q 1146 1267 1146 1290 q 1137 1225 1146 1243 q 1110 1201 1128 1207 l 1149 1049 l 1110 1049 l 1068 1192 l 1036 1192 l 1036 1049 l 992 1049 l 992 1354 m 1006 628 l 1022 628 l 1022 485 l 1064 485 l 1064 467 l 1006 467 l 1006 628 m 1017 -224 l 1078 -224 l 1078 -239 l 1039 -239 l 1039 -286 l 1071 -286 l 1071 -303 l 1039 -303 l 1039 -365 l 1078 -365 l 1078 -379 l 1017 -379 l 1017 -224 m 1026 -31 l 1107 -31 l 1107 -46 l 1078 -46 l 1078 -185 l 1054 -185 l 1054 -46 l 1026 -46 l 1026 -31 m 1033 282 q 1036 322 1033 297 q 1085 392 1047 375 q 1117 396 1100 396 q 1160 385 1143 396 q 1190 343 1185 369 q 1196 274 1196 317 l 1142 274 q 1139 328 1142 317 q 1124 344 1136 339 q 1093 299 1093 347 l 1093 176 q 1092 153 1093 172 q 1099 119 1092 133 q 1122 104 1106 104 q 1143 126 1140 104 q 1146 182 1146 147 l 1113 182 l 1113 232 l 1199 232 l 1199 56 l 1156 56 l 1153 67 q 1110 51 1135 51 q 1071 63 1089 51 q 1036 131 1042 76 q 1033 172 1033 158 l 1035 225 l 1033 282 m 1036 1221 q 1079 1224 1064 1221 q 1101 1276 1108 1238 q 1079 1317 1101 1310 q 1054 1322 1068 1324 q 1036 1321 1040 1321 l 1036 1221 m 1049 1006 l 1167 1006 l 1167 971 l 1089 971 l 1089 872 l 1150 872 l 1150 842 l 1089 842 l 1089 728 l 1167 728 l 1167 701 l 1049 701 l 1049 1006 m 1079 628 l 1139 628 l 1139 614 l 1099 614 l 1099 558 l 1132 558 l 1132 542 l 1099 542 l 1099 485 l 1139 485 l 1139 467 l 1079 467 l 1079 628 m 1093 -224 l 1126 -222 q 1153 -228 1142 -222 q 1166 -244 1161 -233 q 1171 -265 1171 -254 q 1165 -287 1171 -278 q 1150 -300 1160 -297 l 1174 -379 l 1153 -379 l 1135 -303 l 1117 -303 l 1117 -379 l 1093 -379 l 1093 -224 m 1117 -286 q 1142 -283 1135 -286 q 1150 -265 1150 -279 q 1142 -244 1150 -249 q 1117 -239 1133 -239 l 1117 -286 m 1117 -31 l 1138 -31 l 1138 -99 l 1179 -99 l 1179 -31 l 1201 -31 l 1201 -185 l 1179 -185 l 1179 -112 l 1138 -112 l 1138 -185 l 1117 -185 l 1117 -31 m 1183 628 l 1206 628 l 1236 467 l 1215 467 l 1207 510 l 1174 510 l 1169 467 l 1149 467 l 1183 628 m 1206 524 l 1193 597 l 1175 524 l 1206 524 m 1217 1144 q 1232 1090 1219 1103 q 1261 1078 1244 1078 q 1283 1088 1274 1078 q 1294 1113 1294 1094 q 1283 1146 1294 1131 q 1270 1160 1279 1150 q 1249 1181 1261 1171 q 1222 1204 1242 1188 q 1192 1235 1201 1221 q 1178 1285 1178 1260 q 1190 1326 1178 1308 q 1226 1350 1203 1344 q 1253 1354 1238 1354 q 1299 1342 1282 1354 q 1326 1278 1321 1328 l 1294 1267 q 1290 1285 1293 1271 q 1278 1310 1286 1300 q 1260 1325 1271 1321 q 1232 1318 1244 1325 q 1218 1299 1219 1311 q 1228 1258 1214 1275 q 1269 1221 1243 1240 q 1294 1197 1275 1215 q 1322 1160 1313 1179 q 1332 1121 1332 1142 q 1312 1067 1332 1089 q 1260 1046 1292 1046 q 1200 1070 1222 1046 q 1175 1133 1178 1094 l 1217 1144 m 1193 -271 q 1202 -236 1193 -250 q 1231 -222 1211 -222 q 1265 -237 1257 -222 q 1274 -275 1274 -251 l 1250 -275 q 1251 -269 1250 -272 q 1253 -260 1253 -265 q 1249 -247 1253 -254 q 1235 -236 1246 -236 q 1218 -246 1225 -236 q 1211 -272 1211 -253 l 1213 -300 l 1211 -328 q 1218 -356 1211 -347 q 1233 -362 1224 -362 q 1249 -351 1247 -362 q 1253 -340 1253 -346 q 1251 -331 1253 -336 q 1250 -322 1250 -326 l 1274 -322 q 1232 -381 1274 -381 q 1200 -365 1208 -381 q 1192 -321 1192 -349 l 1193 -271 m 1300 435 l 1354 435 l 1258 14 l 1211 14 l 1300 435 m 1222 -31 l 1283 -31 l 1283 -46 l 1246 -46 l 1246 -99 l 1278 -99 l 1278 -112 l 1246 -112 l 1246 -174 l 1283 -174 l 1283 -185 l 1222 -185 l 1222 -31 m 1269 519 q 1281 485 1269 490 l 1285 485 q 1306 504 1306 485 q 1299 522 1306 514 q 1283 539 1292 531 q 1269 553 1274 547 q 1253 572 1260 560 q 1247 593 1247 583 q 1260 619 1247 611 q 1285 626 1268 626 q 1301 624 1296 626 q 1318 608 1313 619 q 1324 586 1324 597 l 1306 583 q 1295 606 1301 599 q 1283 614 1289 614 q 1269 600 1272 614 q 1268 592 1268 597 q 1289 558 1268 576 q 1303 547 1294 554 q 1318 534 1313 540 q 1324 519 1324 528 q 1326 506 1326 508 q 1316 478 1326 489 q 1289 467 1306 467 q 1260 480 1271 467 q 1246 513 1249 493 l 1269 519 m 1279 894 q 1285 954 1279 928 q 1314 994 1294 983 q 1365 1006 1333 1006 q 1438 964 1422 1006 q 1447 904 1447 943 l 1446 865 q 1444 832 1444 853 l 1446 789 q 1442 758 1446 768 q 1417 714 1438 729 q 1365 699 1397 699 q 1310 715 1332 699 q 1283 761 1288 731 q 1281 825 1281 782 l 1279 894 m 1297 -224 l 1317 -224 l 1317 -379 l 1297 -379 l 1297 -224 m 1368 167 q 1369 145 1368 163 q 1376 115 1369 128 q 1394 101 1382 103 l 1397 101 q 1409 107 1404 101 q 1414 122 1414 113 l 1414 390 l 1468 390 l 1468 121 q 1448 72 1468 92 q 1400 50 1428 53 l 1392 50 q 1361 56 1371 50 q 1326 96 1335 68 q 1318 164 1318 124 l 1368 167 m 1324 796 q 1326 755 1324 769 q 1342 733 1329 740 q 1363 729 1353 729 q 1381 733 1375 729 q 1403 772 1400 743 q 1404 783 1404 775 l 1403 804 l 1403 914 l 1403 933 q 1393 964 1403 954 q 1356 972 1369 981 q 1335 965 1342 971 q 1324 946 1329 960 q 1321 914 1321 926 l 1322 882 q 1324 849 1324 871 l 1324 796 m 1365 -224 l 1388 -224 l 1422 -379 l 1401 -379 l 1397 -337 l 1364 -337 l 1356 -379 l 1332 -379 l 1365 -224 m 1342 628 l 1403 628 l 1403 614 l 1365 614 l 1365 558 l 1397 558 l 1397 542 l 1365 542 l 1365 485 l 1407 485 l 1407 467 l 1342 467 l 1342 628 m 1350 -31 l 1408 -31 l 1408 -46 l 1365 -46 l 1365 -99 l 1397 -99 l 1397 -112 l 1365 -112 l 1365 -185 l 1350 -185 l 1350 -31 m 1393 -326 l 1379 -253 l 1365 -326 l 1393 -326 m 1403 1142 q 1406 1102 1403 1117 q 1426 1081 1410 1088 q 1444 1078 1438 1078 q 1463 1081 1454 1078 q 1479 1097 1475 1088 q 1485 1121 1483 1107 l 1485 1260 q 1483 1291 1485 1279 q 1471 1311 1481 1303 q 1450 1324 1461 1324 q 1436 1321 1447 1324 q 1407 1293 1413 1319 q 1401 1249 1401 1276 l 1403 1196 l 1403 1142 m 1422 -147 q 1422 -129 1421 -140 q 1422 -112 1422 -118 l 1422 -31 l 1440 -31 l 1440 -99 q 1440 -124 1440 -103 q 1444 -159 1439 -144 q 1461 -174 1449 -174 q 1482 -154 1478 -174 q 1485 -119 1486 -135 q 1485 -99 1485 -103 l 1485 -31 l 1503 -31 l 1503 -100 q 1497 -165 1503 -142 q 1460 -187 1490 -187 q 1435 -177 1444 -187 q 1422 -147 1425 -167 m 1438 -224 l 1458 -224 l 1458 -365 l 1499 -365 l 1499 -379 l 1438 -379 l 1438 -224 m 1481 628 l 1503 513 l 1526 628 l 1546 628 l 1513 467 l 1493 467 l 1458 628 l 1481 628 m 1490 1006 l 1518 1006 l 1604 801 l 1604 1006 l 1643 1006 l 1643 701 l 1613 701 l 1522 907 l 1522 701 l 1490 701 l 1490 1006 m 1493 390 l 1550 390 l 1550 182 q 1554 117 1550 138 q 1565 107 1558 111 q 1581 104 1572 103 q 1587 108 1582 106 q 1594 115 1592 111 q 1596 125 1596 118 q 1600 175 1600 140 l 1600 390 l 1654 390 l 1654 175 q 1649 105 1654 132 q 1618 64 1643 78 q 1572 53 1600 53 q 1542 56 1551 53 q 1509 84 1521 65 q 1496 125 1497 103 q 1493 175 1493 143 l 1493 390 m 1526 -31 l 1550 -31 l 1550 -174 l 1585 -174 l 1585 -185 l 1526 -185 l 1526 -31 m 1569 -224 l 1594 -337 l 1618 -224 l 1638 -224 l 1603 -379 l 1585 -379 l 1551 -224 l 1569 -224 m 1563 628 l 1585 628 l 1585 467 l 1563 467 l 1563 628 m 1569 1354 l 1597 1354 l 1681 1150 l 1681 1354 l 1718 1354 l 1718 1049 l 1690 1049 l 1604 1253 l 1604 1049 l 1569 1049 l 1569 1354 m 1603 -31 l 1624 -31 l 1624 -174 l 1663 -174 l 1663 -185 l 1603 -185 l 1603 -31 m 1626 519 q 1631 499 1626 510 q 1643 485 1635 489 l 1646 485 q 1663 504 1663 485 q 1654 528 1664 517 q 1626 553 1644 539 q 1612 572 1618 561 q 1606 594 1606 583 q 1618 619 1606 610 q 1646 626 1629 626 q 1661 624 1657 626 q 1681 586 1678 617 l 1663 583 q 1646 614 1658 614 q 1629 600 1636 614 q 1628 592 1628 597 q 1638 572 1628 581 q 1650 558 1647 563 q 1672 540 1664 549 q 1681 519 1679 531 q 1683 504 1683 508 q 1674 477 1683 488 q 1647 467 1664 467 q 1607 513 1610 467 l 1626 519 m 1654 -224 l 1715 -224 l 1715 -239 l 1676 -239 l 1676 -286 l 1708 -286 l 1708 -303 l 1676 -303 l 1676 -365 l 1715 -365 l 1715 -379 l 1654 -379 l 1654 -224 m 1685 390 l 1738 390 l 1776 179 l 1815 390 l 1875 390 l 1876 54 l 1826 54 l 1824 194 l 1797 54 l 1758 54 l 1731 192 l 1731 54 l 1678 54 l 1685 390 m 1689 1006 l 1729 1006 l 1729 728 l 1806 728 l 1806 701 l 1689 701 l 1689 1006 m 1703 628 l 1724 628 l 1724 467 l 1703 467 l 1703 628 m 1746 -31 l 1771 -31 l 1804 -185 l 1782 -185 l 1775 -146 l 1743 -146 l 1733 -185 l 1715 -185 l 1746 -31 m 1732 -224 l 1765 -222 q 1793 -228 1782 -222 q 1808 -264 1808 -239 q 1803 -287 1808 -276 q 1789 -301 1799 -297 l 1811 -379 l 1790 -379 l 1769 -303 l 1756 -303 l 1756 -379 l 1732 -379 l 1732 -224 m 1738 628 l 1811 628 l 1811 614 l 1786 614 l 1786 467 l 1768 467 l 1768 614 l 1738 614 l 1738 628 m 1772 -131 l 1758 -60 l 1746 -131 l 1772 -131 m 1814 1354 l 1857 1354 l 1921 1049 l 1881 1049 l 1867 1121 l 1804 1121 l 1789 1049 l 1750 1049 l 1814 1354 m 1756 -286 q 1781 -283 1774 -286 q 1789 -265 1789 -279 q 1781 -244 1789 -249 q 1756 -239 1772 -239 l 1756 -286 m 1861 1153 l 1838 1293 l 1810 1153 l 1861 1153 m 1818 -31 l 1832 -31 l 1876 -132 l 1876 -31 l 1896 -31 l 1896 -185 l 1881 -185 l 1839 -79 l 1839 -185 l 1818 -185 l 1818 -31 m 1857 1006 l 1903 858 l 1949 1006 l 1990 1006 l 1949 876 l 1928 815 q 1924 792 1922 806 q 1925 775 1925 779 l 1925 701 l 1882 701 l 1882 763 q 1883 785 1882 769 q 1882 810 1883 800 q 1861 868 1874 843 l 1818 1006 l 1857 1006 m 1847 -331 q 1851 -348 1847 -339 q 1861 -360 1854 -357 q 1871 -362 1869 -362 q 1882 -357 1878 -362 q 1886 -343 1886 -351 q 1847 -299 1886 -326 q 1828 -256 1828 -279 q 1842 -231 1828 -239 q 1868 -221 1857 -221 q 1885 -226 1874 -221 q 1903 -261 1903 -232 l 1886 -269 q 1885 -255 1886 -267 q 1875 -239 1883 -243 q 1865 -236 1867 -236 q 1851 -247 1857 -236 q 1849 -256 1849 -253 q 1858 -274 1849 -265 q 1872 -286 1868 -282 q 1885 -299 1876 -292 q 1898 -315 1893 -307 q 1903 -332 1903 -322 q 1906 -346 1906 -340 q 1897 -371 1906 -361 q 1871 -381 1888 -381 q 1840 -367 1851 -381 q 1828 -333 1829 -354 l 1847 -331 m 1907 390 l 1989 390 q 2042 360 2019 390 q 2065 278 2065 329 q 2054 206 2065 239 q 2003 164 2043 174 q 1961 160 1989 160 l 1961 54 l 1907 54 l 1907 390 m 1921 -31 l 1949 -29 q 1990 -40 1974 -29 q 2000 -74 2000 -49 l 1999 -108 l 2000 -136 q 1982 -175 2000 -167 q 1947 -185 1969 -186 q 1921 -185 1925 -185 l 1921 -31 m 1925 -224 l 1943 -224 l 1943 -379 l 1925 -379 l 1925 -224 m 1942 -174 q 1966 -169 1958 -174 q 1978 -147 1974 -165 l 1978 -68 q 1969 -49 1976 -53 q 1942 -46 1961 -46 l 1942 -174 m 1953 1354 l 1996 1354 l 1996 1078 l 2072 1078 l 2072 1049 l 1953 1049 l 1953 1354 m 1992 210 q 2003 232 1999 213 q 2007 276 2007 251 q 2001 323 2007 304 q 1983 342 1994 342 l 1961 342 l 1961 210 l 1992 210 m 1967 -310 q 1967 -276 1967 -306 q 1978 -233 1967 -246 q 2015 -224 1990 -221 q 2048 -242 2042 -225 q 2053 -276 2054 -258 q 2053 -300 2053 -294 q 2047 -360 2053 -340 q 2011 -381 2042 -381 q 1975 -361 1983 -381 q 1967 -310 1967 -342 m 1994 -286 q 1992 -306 1994 -294 q 1990 -333 1990 -318 q 2000 -360 1990 -356 q 2014 -364 2008 -364 q 2033 -315 2033 -364 l 2035 -282 q 2024 -242 2035 -246 q 2010 -237 2015 -237 q 1994 -265 1994 -237 l 1994 -286 m 2011 743 l 2053 743 l 2053 701 l 2011 701 l 2011 743 m 2053 1006 l 2039 765 l 2025 765 l 2011 1006 l 2053 1006 m 2078 -224 l 2092 -224 l 2138 -328 l 2138 -224 l 2154 -224 l 2154 -379 l 2139 -379 l 2092 -271 l 2092 -379 l 2078 -379 l 2078 -224 m 2093 390 l 2224 390 l 2224 333 l 2147 333 l 2147 260 l 2208 260 l 2208 200 l 2147 200 l 2147 111 l 2224 111 l 2224 54 l 2093 54 l 2093 390 m 2261 390 l 2358 390 q 2400 368 2381 390 q 2419 303 2419 346 q 2410 249 2419 275 q 2379 210 2400 224 l 2417 54 l 2361 54 l 2331 200 l 2315 200 l 2315 54 l 2261 54 l 2261 390 m 2346 247 q 2356 264 2351 251 q 2360 292 2360 276 q 2353 327 2360 313 q 2333 342 2346 342 l 2315 342 l 2315 247 l 2346 247 z "}," ":{"ha":489,"x_min":0,"x_max":0,"o":""},"A":{"ha":1004,"x_min":14,"x_max":989,"o":"m 335 965 l 674 965 l 989 0 l 729 0 l 667 192 l 343 192 l 286 0 l 14 0 l 335 965 m 610 374 l 497 711 l 390 374 l 610 374 z "},"Á":{"ha":1004,"x_min":14,"x_max":989,"o":"m 335 965 l 674 965 l 989 0 l 729 0 l 667 192 l 343 192 l 286 0 l 14 0 l 335 965 m 610 374 l 497 711 l 390 374 l 610 374 z "},"Ă":{"ha":1004,"x_min":14,"x_max":989,"o":"m 335 965 l 674 965 l 989 0 l 729 0 l 667 192 l 343 192 l 286 0 l 14 0 l 335 965 m 610 374 l 497 711 l 390 374 l 610 374 z "},"Â":{"ha":1004,"x_min":14,"x_max":989,"o":"m 335 965 l 674 965 l 989 0 l 729 0 l 667 192 l 343 192 l 286 0 l 14 0 l 335 965 m 610 374 l 497 711 l 390 374 l 610 374 z "},"Ä":{"ha":1004,"x_min":14,"x_max":989,"o":"m 335 965 l 674 965 l 989 0 l 729 0 l 667 192 l 343 192 l 286 0 l 14 0 l 335 965 m 610 374 l 497 711 l 390 374 l 610 374 z "},"À":{"ha":1004,"x_min":14,"x_max":989,"o":"m 335 965 l 674 965 l 989 0 l 729 0 l 667 192 l 343 192 l 286 0 l 14 0 l 335 965 m 610 374 l 497 711 l 390 374 l 610 374 z "},"Ā":{"ha":1004,"x_min":14,"x_max":989,"o":"m 335 965 l 674 965 l 989 0 l 729 0 l 667 192 l 343 192 l 286 0 l 14 0 l 335 965 m 610 374 l 497 711 l 390 374 l 610 374 z "},"Ą":{"ha":1004,"x_min":14,"x_max":1028,"o":"m 1028 -389 q 697 -410 818 -432 q 549 -307 576 -387 q 554 -199 531 -257 q 652 -77 578 -142 q 857 58 726 -12 q 921 47 901 65 q 939 -1 940 29 q 781 -111 839 -54 q 749 -210 722 -168 q 819 -240 765 -237 q 939 -229 872 -243 l 1028 -389 m 335 965 l 674 965 l 989 0 l 729 0 l 667 192 l 343 192 l 286 0 l 14 0 l 335 965 m 610 374 l 497 711 l 390 374 l 610 374 z "},"Å":{"ha":1004,"x_min":14,"x_max":989,"o":"m 335 965 l 674 965 l 989 0 l 729 0 l 667 192 l 343 192 l 286 0 l 14 0 l 335 965 m 610 374 l 497 711 l 390 374 l 610 374 m 503 996 q 388 1023 439 996 q 310 1095 338 1050 q 282 1196 282 1140 q 309 1297 282 1250 q 386 1370 336 1343 q 500 1397 436 1397 q 620 1372 569 1397 q 698 1304 671 1347 q 726 1207 725 1261 q 701 1103 728 1151 q 622 1025 674 1054 q 503 996 571 996 m 503 1119 q 557 1141 538 1119 q 575 1196 576 1163 q 557 1251 575 1229 q 503 1274 539 1274 q 449 1252 468 1274 q 431 1197 431 1231 q 448 1141 429 1163 q 503 1119 467 1119 z "},"Ǻ":{"ha":1004,"x_min":14,"x_max":989,"o":"m 335 965 l 674 965 l 989 0 l 729 0 l 667 192 l 343 192 l 286 0 l 14 0 l 335 965 m 610 374 l 497 711 l 390 374 l 610 374 m 503 875 q 388 900 439 875 q 310 967 338 925 q 282 1060 282 1008 q 309 1153 282 1110 q 386 1221 336 1196 q 500 1246 436 1246 q 620 1223 569 1246 q 698 1160 671 1200 q 726 1069 725 1119 q 701 974 728 1018 q 622 902 674 929 q 503 875 571 875 m 503 989 q 557 1009 538 989 q 575 1060 576 1029 q 557 1111 575 1090 q 504 1132 539 1132 q 449 1112 468 1132 q 431 1061 431 1092 q 448 1009 429 1029 q 503 989 467 989 m 329 1268 l 657 1429 l 763 1290 l 389 1188 l 329 1268 z "},"Ã":{"ha":1004,"x_min":14,"x_max":989,"o":"m 335 965 l 674 965 l 989 0 l 729 0 l 667 192 l 343 192 l 286 0 l 14 0 l 335 965 m 610 374 l 497 711 l 390 374 l 610 374 z "},"Æ":{"ha":1288,"x_min":13,"x_max":1243,"o":"m 476 965 l 1218 965 l 1218 771 l 858 771 l 858 578 l 1161 578 l 1161 381 l 858 381 l 858 196 l 1243 196 l 1243 0 l 607 0 l 607 192 l 371 192 l 281 0 l 13 0 l 476 965 m 607 374 l 607 697 l 451 374 l 607 374 z "},"Ǽ":{"ha":1288,"x_min":13,"x_max":1243,"o":"m 476 965 l 1218 965 l 1218 771 l 858 771 l 858 578 l 1161 578 l 1161 381 l 858 381 l 858 196 l 1243 196 l 1243 0 l 607 0 l 607 192 l 371 192 l 281 0 l 13 0 l 476 965 m 607 374 l 607 697 l 451 374 l 607 374 z "},"Ǣ":{"ha":1288,"x_min":13,"x_max":1243,"o":"m 476 965 l 1218 965 l 1218 771 l 858 771 l 858 578 l 1161 578 l 1161 381 l 858 381 l 858 196 l 1243 196 l 1243 0 l 607 0 l 607 192 l 371 192 l 281 0 l 13 0 l 476 965 m 607 374 l 607 697 l 451 374 l 607 374 z "},"B":{"ha":893,"x_min":65,"x_max":868,"o":"m 126 535 l 463 535 q 747 475 644 535 q 860 294 849 415 q 827 150 868 218 q 703 41 786 82 q 504 0 619 0 l 107 0 l 126 535 m 65 965 l 318 965 l 318 0 l 65 0 l 65 965 m 454 193 q 568 220 526 193 q 613 300 610 247 q 582 374 615 344 q 481 403 549 403 l 221 403 l 213 193 l 454 193 m 442 568 q 545 594 508 568 q 586 671 582 621 q 553 753 589 724 q 453 783 518 783 l 206 783 l 208 568 l 442 568 m 147 965 l 510 965 q 749 888 675 965 q 819 694 824 811 q 696 517 815 578 q 388 457 576 457 l 117 457 l 147 965 z "},"C":{"ha":990,"x_min":28,"x_max":964,"o":"m 506 -26 q 249 40 357 -26 q 84 218 140 106 q 31 467 28 331 q 94 717 33 603 q 266 898 154 831 q 526 965 378 965 q 753 905 654 965 q 907 747 853 844 q 964 543 961 649 l 729 543 q 697 647 722 603 q 625 717 671 692 q 518 743 579 743 q 396 706 449 743 q 313 606 343 668 q 281 468 283 543 q 305 326 278 388 q 385 231 332 265 q 510 196 438 196 q 610 219 565 196 q 686 288 656 243 q 725 389 717 332 l 963 389 q 894 191 953 286 q 735 35 836 96 q 506 -26 635 -26 z "},"Ć":{"ha":990,"x_min":28,"x_max":964,"o":"m 506 -26 q 249 40 357 -26 q 84 218 140 106 q 31 467 28 331 q 94 717 33 603 q 266 898 154 831 q 526 965 378 965 q 753 905 654 965 q 907 747 853 844 q 964 543 961 649 l 729 543 q 697 647 722 603 q 625 717 671 692 q 518 743 579 743 q 396 706 449 743 q 313 606 343 668 q 281 468 283 543 q 305 326 278 388 q 385 231 332 265 q 510 196 438 196 q 610 219 565 196 q 686 288 656 243 q 725 389 717 332 l 963 389 q 894 191 953 286 q 735 35 836 96 q 506 -26 635 -26 z "},"Č":{"ha":990,"x_min":28,"x_max":964,"o":"m 506 -26 q 249 40 357 -26 q 84 218 140 106 q 31 467 28 331 q 94 717 33 603 q 266 898 154 831 q 526 965 378 965 q 753 905 654 965 q 907 747 853 844 q 964 543 961 649 l 729 543 q 697 647 722 603 q 625 717 671 692 q 518 743 579 743 q 396 706 449 743 q 313 606 343 668 q 281 468 283 543 q 305 326 278 388 q 385 231 332 265 q 510 196 438 196 q 610 219 565 196 q 686 288 656 243 q 725 389 717 332 l 963 389 q 894 191 953 286 q 735 35 836 96 q 506 -26 635 -26 z "},"Ç":{"ha":990,"x_min":28,"x_max":964,"o":"m 214 -222 q 403 -237 340 -237 q 503 -224 467 -237 q 536 -179 540 -210 q 490 -147 533 -151 q 383 -144 446 -142 l 360 -144 l 433 50 l 571 58 l 546 -82 q 678 -93 622 -74 q 746 -171 733 -112 q 708 -312 767 -260 q 514 -380 650 -364 q 201 -367 378 -396 l 214 -222 m 506 -26 q 249 40 357 -26 q 84 218 140 106 q 31 467 28 331 q 94 717 33 603 q 266 898 154 831 q 526 965 378 965 q 753 905 654 965 q 907 747 853 844 q 964 543 961 649 l 729 543 q 697 647 722 603 q 625 717 671 692 q 518 743 579 743 q 396 706 449 743 q 313 606 343 668 q 281 468 283 543 q 305 326 278 388 q 385 231 332 265 q 510 196 438 196 q 610 219 565 196 q 686 288 656 243 q 725 389 717 332 l 963 389 q 894 191 953 286 q 735 35 836 96 q 506 -26 635 -26 z "},"Ĉ":{"ha":990,"x_min":28,"x_max":964,"o":"m 506 -26 q 249 40 357 -26 q 84 218 140 106 q 31 467 28 331 q 94 717 33 603 q 266 898 154 831 q 526 965 378 965 q 753 905 654 965 q 907 747 853 844 q 964 543 961 649 l 729 543 q 697 647 722 603 q 625 717 671 692 q 518 743 579 743 q 396 706 449 743 q 313 606 343 668 q 281 468 283 543 q 305 326 278 388 q 385 231 332 265 q 510 196 438 196 q 610 219 565 196 q 686 288 656 243 q 725 389 717 332 l 963 389 q 894 191 953 286 q 735 35 836 96 q 506 -26 635 -26 z "},"Ċ":{"ha":990,"x_min":28,"x_max":964,"o":"m 506 -26 q 249 40 357 -26 q 84 218 140 106 q 31 467 28 331 q 94 717 33 603 q 266 898 154 831 q 526 965 378 965 q 753 905 654 965 q 907 747 853 844 q 964 543 961 649 l 729 543 q 697 647 722 603 q 625 717 671 692 q 518 743 579 743 q 396 706 449 743 q 313 606 343 668 q 281 468 283 543 q 305 326 278 388 q 385 231 332 265 q 510 196 438 196 q 610 219 565 196 q 686 288 656 243 q 725 389 717 332 l 963 389 q 894 191 953 286 q 735 35 836 96 q 506 -26 635 -26 z "},"D":{"ha":936,"x_min":72,"x_max":896,"o":"m 161 965 l 461 965 q 690 899 592 965 q 842 723 789 833 q 896 482 896 613 q 843 249 896 360 q 690 69 790 138 q 456 0 590 0 l 110 0 l 161 965 m 72 965 l 328 965 l 328 0 l 72 0 l 72 965 m 433 200 q 546 238 496 200 q 625 344 596 276 q 651 496 654 411 q 590 697 647 626 q 438 768 532 768 l 219 768 l 233 200 l 433 200 z "},"Ð":{"ha":936,"x_min":10,"x_max":896,"o":"m 10 582 l 489 582 l 489 397 l 10 397 l 10 582 m 161 965 l 461 965 q 690 899 592 965 q 842 723 789 833 q 896 482 896 613 q 843 249 896 360 q 690 69 790 138 q 456 0 590 0 l 110 0 l 161 965 m 72 965 l 328 965 l 328 0 l 72 0 l 72 965 m 433 200 q 546 238 496 200 q 625 344 596 276 q 651 496 654 411 q 590 697 647 626 q 438 768 532 768 l 219 768 l 233 200 l 433 200 z "},"Ď":{"ha":936,"x_min":72,"x_max":896,"o":"m 161 965 l 461 965 q 690 899 592 965 q 842 723 789 833 q 896 482 896 613 q 843 249 896 360 q 690 69 790 138 q 456 0 590 0 l 110 0 l 161 965 m 72 965 l 328 965 l 328 0 l 72 0 l 72 965 m 433 200 q 546 238 496 200 q 625 344 596 276 q 651 496 654 411 q 590 697 647 626 q 438 768 532 768 l 219 768 l 233 200 l 433 200 z "},"Đ":{"ha":936,"x_min":10,"x_max":896,"o":"m 10 582 l 489 582 l 489 397 l 10 397 l 10 582 m 161 965 l 461 965 q 690 899 592 965 q 842 723 789 833 q 896 482 896 613 q 843 249 896 360 q 690 69 790 138 q 456 0 590 0 l 110 0 l 161 965 m 72 965 l 328 965 l 328 0 l 72 0 l 72 965 m 433 200 q 546 238 496 200 q 625 344 596 276 q 651 496 654 411 q 590 697 647 626 q 438 768 532 768 l 219 768 l 233 200 l 433 200 z "},"E":{"ha":825,"x_min":61,"x_max":781,"o":"m 61 965 l 756 965 l 756 771 l 313 771 l 313 578 l 699 578 l 697 381 l 313 381 l 313 196 l 781 196 l 781 0 l 61 0 l 61 965 z "},"É":{"ha":825,"x_min":61,"x_max":781,"o":"m 61 965 l 756 965 l 756 771 l 313 771 l 313 578 l 699 578 l 697 381 l 313 381 l 313 196 l 781 196 l 781 0 l 61 0 l 61 965 z "},"Ĕ":{"ha":825,"x_min":61,"x_max":781,"o":"m 61 965 l 756 965 l 756 771 l 313 771 l 313 578 l 699 578 l 697 381 l 313 381 l 313 196 l 781 196 l 781 0 l 61 0 l 61 965 z "},"Ě":{"ha":825,"x_min":61,"x_max":781,"o":"m 61 965 l 756 965 l 756 771 l 313 771 l 313 578 l 699 578 l 697 381 l 313 381 l 313 196 l 781 196 l 781 0 l 61 0 l 61 965 z "},"Ê":{"ha":825,"x_min":61,"x_max":781,"o":"m 61 965 l 756 965 l 756 771 l 313 771 l 313 578 l 699 578 l 697 381 l 313 381 l 313 196 l 781 196 l 781 0 l 61 0 l 61 965 z "},"Ë":{"ha":825,"x_min":61,"x_max":781,"o":"m 61 965 l 756 965 l 756 771 l 313 771 l 313 578 l 699 578 l 697 381 l 313 381 l 313 196 l 781 196 l 781 0 l 61 0 l 61 965 z "},"Ė":{"ha":825,"x_min":61,"x_max":781,"o":"m 61 965 l 756 965 l 756 771 l 313 771 l 313 578 l 699 578 l 697 381 l 313 381 l 313 196 l 781 196 l 781 0 l 61 0 l 61 965 z "},"È":{"ha":825,"x_min":61,"x_max":781,"o":"m 61 965 l 756 965 l 756 771 l 313 771 l 313 578 l 699 578 l 697 381 l 313 381 l 313 196 l 781 196 l 781 0 l 61 0 l 61 965 z "},"Ē":{"ha":825,"x_min":61,"x_max":781,"o":"m 61 965 l 756 965 l 756 771 l 313 771 l 313 578 l 699 578 l 697 381 l 313 381 l 313 196 l 781 196 l 781 0 l 61 0 l 61 965 z "},"Ę":{"ha":825,"x_min":61,"x_max":781,"o":"m 617 -389 q 286 -410 407 -432 q 138 -307 165 -387 q 143 -199 119 -257 q 241 -77 167 -142 q 446 58 315 -12 q 510 47 490 65 q 528 -1 529 29 q 369 -111 428 -54 q 338 -210 311 -168 q 408 -240 354 -237 q 528 -229 461 -243 l 617 -389 m 61 965 l 756 965 l 756 771 l 313 771 l 313 578 l 699 578 l 697 381 l 313 381 l 313 196 l 781 196 l 781 0 l 61 0 l 61 965 z "},"Ẽ":{"ha":825,"x_min":61,"x_max":781,"o":"m 61 965 l 756 965 l 756 771 l 313 771 l 313 578 l 699 578 l 697 381 l 313 381 l 313 196 l 781 196 l 781 0 l 61 0 l 61 965 z "},"F":{"ha":749,"x_min":56,"x_max":746,"o":"m 56 965 l 746 965 l 744 764 l 308 764 l 308 492 l 700 492 l 699 290 l 308 290 l 308 0 l 56 0 l 56 965 z "},"G":{"ha":1036,"x_min":28,"x_max":999,"o":"m 517 -26 q 256 40 367 -26 q 86 219 144 106 q 31 475 28 333 q 96 716 33 603 q 272 897 158 829 q 538 965 386 965 q 763 909 667 965 q 913 767 858 853 q 981 593 968 681 l 739 593 q 706 665 732 631 q 635 721 679 699 q 529 743 590 743 q 401 708 457 743 q 315 611 346 672 q 281 475 283 550 q 307 331 278 394 q 390 231 336 267 q 518 194 444 194 q 631 221 579 194 q 715 295 682 247 q 757 406 747 343 l 999 401 q 925 194 986 292 q 759 35 864 96 q 517 -26 654 -26 m 507 508 l 999 508 l 999 401 l 894 353 l 507 353 l 507 508 z "},"Ğ":{"ha":1036,"x_min":28,"x_max":999,"o":"m 517 -26 q 256 40 367 -26 q 86 219 144 106 q 31 475 28 333 q 96 716 33 603 q 272 897 158 829 q 538 965 386 965 q 763 909 667 965 q 913 767 858 853 q 981 593 968 681 l 739 593 q 706 665 732 631 q 635 721 679 699 q 529 743 590 743 q 401 708 457 743 q 315 611 346 672 q 281 475 283 550 q 307 331 278 394 q 390 231 336 267 q 518 194 444 194 q 631 221 579 194 q 715 295 682 247 q 757 406 747 343 l 999 401 q 925 194 986 292 q 759 35 864 96 q 517 -26 654 -26 m 507 508 l 999 508 l 999 401 l 894 353 l 507 353 l 507 508 z "},"Ǧ":{"ha":1036,"x_min":28,"x_max":999,"o":"m 517 -26 q 256 40 367 -26 q 86 219 144 106 q 31 475 28 333 q 96 716 33 603 q 272 897 158 829 q 538 965 386 965 q 763 909 667 965 q 913 767 858 853 q 981 593 968 681 l 739 593 q 706 665 732 631 q 635 721 679 699 q 529 743 590 743 q 401 708 457 743 q 315 611 346 672 q 281 475 283 550 q 307 331 278 394 q 390 231 336 267 q 518 194 444 194 q 631 221 579 194 q 715 295 682 247 q 757 406 747 343 l 999 401 q 925 194 986 292 q 759 35 864 96 q 517 -26 654 -26 m 507 508 l 999 508 l 999 401 l 894 353 l 507 353 l 507 508 z "},"Ĝ":{"ha":1036,"x_min":28,"x_max":999,"o":"m 517 -26 q 256 40 367 -26 q 86 219 144 106 q 31 475 28 333 q 96 716 33 603 q 272 897 158 829 q 538 965 386 965 q 763 909 667 965 q 913 767 858 853 q 981 593 968 681 l 739 593 q 706 665 732 631 q 635 721 679 699 q 529 743 590 743 q 401 708 457 743 q 315 611 346 672 q 281 475 283 550 q 307 331 278 394 q 390 231 336 267 q 518 194 444 194 q 631 221 579 194 q 715 295 682 247 q 757 406 747 343 l 999 401 q 925 194 986 292 q 759 35 864 96 q 517 -26 654 -26 m 507 508 l 999 508 l 999 401 l 894 353 l 507 353 l 507 508 z "},"Ġ":{"ha":1036,"x_min":28,"x_max":999,"o":"m 517 -26 q 256 40 367 -26 q 86 219 144 106 q 31 475 28 333 q 96 716 33 603 q 272 897 158 829 q 538 965 386 965 q 763 909 667 965 q 913 767 858 853 q 981 593 968 681 l 739 593 q 706 665 732 631 q 635 721 679 699 q 529 743 590 743 q 401 708 457 743 q 315 611 346 672 q 281 475 283 550 q 307 331 278 394 q 390 231 336 267 q 518 194 444 194 q 631 221 579 194 q 715 295 682 247 q 757 406 747 343 l 999 401 q 925 194 986 292 q 759 35 864 96 q 517 -26 654 -26 m 507 508 l 999 508 l 999 401 l 894 353 l 507 353 l 507 508 z "},"H":{"ha":1000,"x_min":63,"x_max":938,"o":"m 686 386 l 314 386 l 314 0 l 63 0 l 63 965 l 314 965 l 314 576 l 686 576 l 686 965 l 938 965 l 938 0 l 686 0 l 686 386 z "},"Ħ":{"ha":1000,"x_min":63,"x_max":938,"o":"m 686 386 l 314 386 l 314 0 l 63 0 l 63 965 l 314 965 l 314 849 l 686 849 l 686 965 l 938 965 l 938 0 l 686 0 l 686 386 m 686 576 l 686 675 l 314 675 l 314 576 l 686 576 z "},"Ĥ":{"ha":1000,"x_min":63,"x_max":938,"o":"m 686 386 l 314 386 l 314 0 l 63 0 l 63 965 l 314 965 l 314 576 l 686 576 l 686 965 l 938 965 l 938 0 l 686 0 l 686 386 z "},"I":{"ha":417,"x_min":86,"x_max":338,"o":"m 86 965 l 338 965 l 338 0 l 86 0 l 86 965 z "},"Ĳ":{"ha":1376,"x_min":86,"x_max":1321,"o":"m 86 965 l 338 965 l 338 0 l 86 0 l 86 965 m 839 -26 q 607 35 697 -26 q 479 199 517 96 q 456 429 442 303 l 696 429 q 706 310 689 361 q 761 232 722 260 q 857 204 800 204 q 1006 274 954 204 q 1058 481 1058 343 l 1058 965 l 1321 965 l 1321 474 q 1265 207 1321 319 q 1101 34 1210 94 q 839 -26 992 -26 z "},"Í":{"ha":417,"x_min":24,"x_max":457,"o":"m 86 965 l 338 965 l 338 0 l 86 0 l 86 965 z "},"Ĭ":{"ha":417,"x_min":-49,"x_max":464,"o":"m 86 965 l 338 965 l 338 0 l 86 0 l 86 965 z "},"Î":{"ha":417,"x_min":-132,"x_max":547,"o":"m 86 965 l 338 965 l 338 0 l 86 0 l 86 965 z "},"Ï":{"ha":417,"x_min":-124,"x_max":540,"o":"m 86 965 l 338 965 l 338 0 l 86 0 l 86 965 z "},"İ":{"ha":417,"x_min":63,"x_max":354,"o":"m 86 965 l 338 965 l 338 0 l 86 0 l 86 965 z "},"Ì":{"ha":417,"x_min":-36,"x_max":396,"o":"m 86 965 l 338 965 l 338 0 l 86 0 l 86 965 z "},"Ī":{"ha":417,"x_min":-83,"x_max":501,"o":"m 86 965 l 338 965 l 338 0 l 86 0 l 86 965 m -83 1226 l 501 1226 l 501 1032 l -83 1032 l -83 1226 z "},"Į":{"ha":417,"x_min":-101,"x_max":394,"o":"m 394 -389 q 65 -410 186 -432 q -83 -307 -56 -387 q -78 -199 -101 -257 q 20 -77 -54 -142 q 224 58 94 -12 q 289 47 269 65 q 306 -1 308 29 q 149 -111 207 -54 q 115 -210 90 -168 q 187 -240 133 -237 q 307 -229 240 -243 l 394 -389 m 86 965 l 338 965 l 338 0 l 86 0 l 86 965 z "},"Ĩ":{"ha":417,"x_min":-125,"x_max":540,"o":"m 86 965 l 338 965 l 338 0 l 86 0 l 86 965 z "},"J":{"ha":960,"x_min":25,"x_max":904,"o":"m 422 -26 q 190 35 281 -26 q 63 199 100 96 q 39 429 25 303 l 279 429 q 289 310 272 361 q 344 232 306 260 q 440 204 383 204 q 590 274 538 204 q 642 481 642 343 l 642 965 l 904 965 l 904 474 q 849 207 904 319 q 684 34 793 94 q 422 -26 575 -26 z "},"Ĵ":{"ha":960,"x_min":25,"x_max":1068,"o":"m 422 -26 q 190 35 281 -26 q 63 199 100 96 q 39 429 25 303 l 279 429 q 289 310 272 361 q 344 232 306 260 q 440 204 383 204 q 590 274 538 204 q 642 481 642 343 l 642 965 l 904 965 l 904 474 q 849 207 904 319 q 684 34 793 94 q 422 -26 575 -26 z "},"K":{"ha":957,"x_min":69,"x_max":1046,"o":"m 321 464 l 321 0 l 69 0 l 69 965 l 321 965 l 321 533 l 699 965 l 1024 965 l 597 507 l 1046 0 l 719 0 l 321 464 z "},"L":{"ha":790,"x_min":64,"x_max":783,"o":"m 64 965 l 317 965 l 317 214 l 783 214 l 783 0 l 64 0 l 64 965 z "},"Ĺ":{"ha":790,"x_min":64,"x_max":783,"o":"m 64 965 l 317 965 l 317 214 l 783 214 l 783 0 l 64 0 l 64 965 z "},"Ľ":{"ha":790,"x_min":64,"x_max":783,"o":"m 64 965 l 317 965 l 317 214 l 783 214 l 783 0 l 64 0 l 64 965 m 65 1249 l 279 1249 l 386 1133 l 504 1249 l 744 1249 l 492 999 l 303 999 l 65 1249 z "},"Ŀ":{"ha":790,"x_min":64,"x_max":783,"o":"m 64 965 l 317 965 l 317 214 l 783 214 l 783 0 l 64 0 l 64 965 m 594 450 q 490 488 532 450 q 449 581 449 525 q 489 674 449 636 q 592 713 529 713 q 698 674 656 713 q 740 581 740 636 q 699 488 740 525 q 594 450 658 450 z "},"Ł":{"ha":790,"x_min":-25,"x_max":783,"o":"m 64 378 l -25 360 l -25 551 l 64 571 l 64 965 l 317 965 l 317 621 l 561 672 l 561 479 l 317 429 l 317 214 l 783 214 l 783 0 l 64 0 l 64 378 z "},"M":{"ha":1250,"x_min":72,"x_max":1193,"o":"m 307 647 l 307 0 l 72 0 l 72 965 l 403 965 l 626 400 l 863 965 l 1193 965 l 1193 0 l 957 0 l 957 643 l 710 0 l 529 0 l 307 647 z "},"N":{"ha":1043,"x_min":72,"x_max":974,"o":"m 315 596 l 315 0 l 72 0 l 72 965 l 315 965 l 731 363 l 731 965 l 974 965 l 974 0 l 724 0 l 315 596 z "},"Ń":{"ha":1043,"x_min":72,"x_max":974,"o":"m 315 596 l 315 0 l 72 0 l 72 965 l 315 965 l 731 363 l 731 965 l 974 965 l 974 0 l 724 0 l 315 596 z "},"Ň":{"ha":1043,"x_min":72,"x_max":974,"o":"m 315 596 l 315 0 l 72 0 l 72 965 l 315 965 l 731 363 l 731 965 l 974 965 l 974 0 l 724 0 l 315 596 z "},"Ñ":{"ha":1043,"x_min":72,"x_max":974,"o":"m 315 596 l 315 0 l 72 0 l 72 965 l 315 965 l 731 363 l 731 965 l 974 965 l 974 0 l 724 0 l 315 596 z "},"Ŋ":{"ha":1043,"x_min":72,"x_max":974,"o":"m 176 807 l 315 965 l 974 0 l 724 0 l 176 807 m 72 965 l 315 965 l 315 0 l 72 0 l 72 965 m 521 -114 l 547 -114 q 680 -76 639 -114 q 721 33 721 -39 l 721 288 l 974 293 l 974 -28 q 931 -176 974 -111 q 811 -275 889 -240 q 629 -310 733 -310 l 521 -310 l 521 -114 m 731 965 l 974 965 l 974 0 l 731 0 l 731 965 z "},"O":{"ha":1067,"x_min":28,"x_max":1026,"o":"m 517 -26 q 253 38 364 -26 q 85 215 143 103 q 31 468 28 328 q 95 715 33 601 q 272 897 157 828 q 538 965 386 965 q 800 900 689 965 q 969 722 911 835 q 1025 468 1026 608 q 957 217 1022 329 q 777 39 892 104 q 517 -26 663 -26 m 521 193 q 651 231 594 193 q 738 331 707 268 q 772 468 769 394 q 747 608 775 546 q 663 708 718 671 q 533 744 608 744 q 403 706 460 744 q 316 605 347 668 q 283 468 285 542 q 308 327 279 389 q 391 229 336 265 q 521 193 446 193 z "},"Ó":{"ha":1067,"x_min":28,"x_max":1026,"o":"m 517 -26 q 253 38 364 -26 q 85 215 143 103 q 31 468 28 328 q 95 715 33 601 q 272 897 157 828 q 538 965 386 965 q 800 900 689 965 q 969 722 911 835 q 1025 468 1026 608 q 957 217 1022 329 q 777 39 892 104 q 517 -26 663 -26 m 521 193 q 651 231 594 193 q 738 331 707 268 q 772 468 769 394 q 747 608 775 546 q 663 708 718 671 q 533 744 608 744 q 403 706 460 744 q 316 605 347 668 q 283 468 285 542 q 308 327 279 389 q 391 229 336 265 q 521 193 446 193 z "},"Ŏ":{"ha":1067,"x_min":28,"x_max":1026,"o":"m 517 -26 q 253 38 364 -26 q 85 215 143 103 q 31 468 28 328 q 95 715 33 601 q 272 897 157 828 q 538 965 386 965 q 800 900 689 965 q 969 722 911 835 q 1025 468 1026 608 q 957 217 1022 329 q 777 39 892 104 q 517 -26 663 -26 m 521 193 q 651 231 594 193 q 738 331 707 268 q 772 468 769 394 q 747 608 775 546 q 663 708 718 671 q 533 744 608 744 q 403 706 460 744 q 316 605 347 668 q 283 468 285 542 q 308 327 279 389 q 391 229 336 265 q 521 193 446 193 z "},"Ô":{"ha":1067,"x_min":28,"x_max":1026,"o":"m 517 -26 q 253 38 364 -26 q 85 215 143 103 q 31 468 28 328 q 95 715 33 601 q 272 897 157 828 q 538 965 386 965 q 800 900 689 965 q 969 722 911 835 q 1025 468 1026 608 q 957 217 1022 329 q 777 39 892 104 q 517 -26 663 -26 m 521 193 q 651 231 594 193 q 738 331 707 268 q 772 468 769 394 q 747 608 775 546 q 663 708 718 671 q 533 744 608 744 q 403 706 460 744 q 316 605 347 668 q 283 468 285 542 q 308 327 279 389 q 391 229 336 265 q 521 193 446 193 z "},"Ö":{"ha":1067,"x_min":28,"x_max":1026,"o":"m 517 -26 q 253 38 364 -26 q 85 215 143 103 q 31 468 28 328 q 95 715 33 601 q 272 897 157 828 q 538 965 386 965 q 800 900 689 965 q 969 722 911 835 q 1025 468 1026 608 q 957 217 1022 329 q 777 39 892 104 q 517 -26 663 -26 m 521 193 q 651 231 594 193 q 738 331 707 268 q 772 468 769 394 q 747 608 775 546 q 663 708 718 671 q 533 744 608 744 q 403 706 460 744 q 316 605 347 668 q 283 468 285 542 q 308 327 279 389 q 391 229 336 265 q 521 193 446 193 z "},"Ò":{"ha":1067,"x_min":28,"x_max":1026,"o":"m 517 -26 q 253 38 364 -26 q 85 215 143 103 q 31 468 28 328 q 95 715 33 601 q 272 897 157 828 q 538 965 386 965 q 800 900 689 965 q 969 722 911 835 q 1025 468 1026 608 q 957 217 1022 329 q 777 39 892 104 q 517 -26 663 -26 m 521 193 q 651 231 594 193 q 738 331 707 268 q 772 468 769 394 q 747 608 775 546 q 663 708 718 671 q 533 744 608 744 q 403 706 460 744 q 316 605 347 668 q 283 468 285 542 q 308 327 279 389 q 391 229 336 265 q 521 193 446 193 z "},"Ő":{"ha":1067,"x_min":28,"x_max":1026,"o":"m 517 -26 q 253 38 364 -26 q 85 215 143 103 q 31 468 28 328 q 95 715 33 601 q 272 897 157 828 q 538 965 386 965 q 800 900 689 965 q 969 722 911 835 q 1025 468 1026 608 q 957 217 1022 329 q 777 39 892 104 q 517 -26 663 -26 m 521 193 q 651 231 594 193 q 738 331 707 268 q 772 468 769 394 q 747 608 775 546 q 663 708 718 671 q 533 744 608 744 q 403 706 460 744 q 316 605 347 668 q 283 468 285 542 q 308 327 279 389 q 391 229 336 265 q 521 193 446 193 z "},"Ō":{"ha":1067,"x_min":28,"x_max":1026,"o":"m 517 -26 q 253 38 364 -26 q 85 215 143 103 q 31 468 28 328 q 95 715 33 601 q 272 897 157 828 q 538 965 386 965 q 800 900 689 965 q 969 722 911 835 q 1025 468 1026 608 q 957 217 1022 329 q 777 39 892 104 q 517 -26 663 -26 m 521 193 q 651 231 594 193 q 738 331 707 268 q 772 468 769 394 q 747 608 775 546 q 663 708 718 671 q 533 744 608 744 q 403 706 460 744 q 316 605 347 668 q 283 468 285 542 q 308 327 279 389 q 391 229 336 265 q 521 193 446 193 z "},"Ø":{"ha":1067,"x_min":28,"x_max":1026,"o":"m 517 -26 q 253 38 364 -26 q 85 215 143 103 q 31 468 28 328 q 95 715 33 601 q 272 897 157 828 q 538 965 386 965 q 800 900 689 965 q 969 722 911 835 q 1025 468 1026 608 q 957 217 1022 329 q 777 39 892 104 q 517 -26 663 -26 m 521 193 q 651 231 594 193 q 738 331 707 268 q 772 468 769 394 q 747 608 775 546 q 663 708 718 671 q 533 744 608 744 q 403 706 460 744 q 316 605 347 668 q 283 468 285 542 q 308 327 279 389 q 391 229 336 265 q 521 193 446 193 m 678 961 l 900 961 l 382 -26 l 163 -26 l 678 961 z "},"Ǿ":{"ha":1067,"x_min":28,"x_max":1026,"o":"m 517 -26 q 253 38 364 -26 q 85 215 143 103 q 31 468 28 328 q 95 715 33 601 q 272 897 157 828 q 538 965 386 965 q 800 900 689 965 q 969 722 911 835 q 1025 468 1026 608 q 957 217 1022 329 q 777 39 892 104 q 517 -26 663 -26 m 521 193 q 651 231 594 193 q 738 331 707 268 q 772 468 769 394 q 747 608 775 546 q 663 708 718 671 q 533 744 608 744 q 403 706 460 744 q 316 605 347 668 q 283 468 285 542 q 308 327 279 389 q 391 229 336 265 q 521 193 446 193 m 678 961 l 900 961 l 382 -26 l 163 -26 l 678 961 z "},"Õ":{"ha":1067,"x_min":28,"x_max":1026,"o":"m 517 -26 q 253 38 364 -26 q 85 215 143 103 q 31 468 28 328 q 95 715 33 601 q 272 897 157 828 q 538 965 386 965 q 800 900 689 965 q 969 722 911 835 q 1025 468 1026 608 q 957 217 1022 329 q 777 39 892 104 q 517 -26 663 -26 m 521 193 q 651 231 594 193 q 738 331 707 268 q 772 468 769 394 q 747 608 775 546 q 663 708 718 671 q 533 744 608 744 q 403 706 460 744 q 316 605 347 668 q 283 468 285 542 q 308 327 279 389 q 391 229 336 265 q 521 193 446 193 z "},"Œ":{"ha":1529,"x_min":28,"x_max":1483,"o":"m 517 -26 q 253 38 364 -26 q 85 215 143 103 q 31 468 28 328 q 95 715 33 601 q 272 897 157 828 q 538 965 386 965 q 800 900 689 965 q 947 722 911 835 q 981 468 983 608 q 935 217 978 329 q 777 39 892 104 q 517 -26 663 -26 m 521 193 q 651 231 594 193 q 732 331 707 268 q 760 468 757 394 q 740 608 763 546 q 663 708 718 671 q 533 744 608 744 q 403 706 460 744 q 316 605 347 668 q 283 468 285 542 q 308 327 279 389 q 391 229 336 265 q 521 193 446 193 m 953 196 l 1483 196 l 1483 0 l 950 0 l 953 196 m 765 965 l 1018 965 l 1018 0 l 764 0 l 765 965 m 888 578 l 1403 578 l 1401 381 l 882 381 l 888 578 m 928 965 l 1461 965 l 1460 771 l 926 771 l 928 965 z "},"P":{"ha":865,"x_min":64,"x_max":853,"o":"m 146 965 l 438 965 q 664 918 571 965 q 803 791 757 871 q 853 615 850 711 q 798 417 853 501 q 640 287 743 333 q 394 238 536 240 l 133 238 l 146 965 m 64 965 l 317 965 l 317 0 l 64 0 l 64 965 m 429 439 q 560 486 511 439 q 606 617 608 533 q 552 728 601 688 q 426 768 503 768 l 200 768 l 214 439 l 429 439 z "},"Þ":{"ha":915,"x_min":64,"x_max":874,"o":"m 164 839 l 454 839 q 682 792 588 839 q 824 665 776 744 q 872 488 871 585 q 817 290 874 374 q 652 160 760 206 q 396 113 544 114 l 154 113 l 164 839 m 64 965 l 317 965 l 317 0 l 64 0 l 64 965 m 428 322 q 524 341 479 322 q 598 399 569 360 q 622 501 626 439 q 570 613 619 572 q 444 653 521 653 l 218 651 l 233 322 l 428 322 z "},"Q":{"ha":1071,"x_min":28,"x_max":1026,"o":"m 517 -26 q 253 38 364 -26 q 85 215 143 103 q 31 468 28 328 q 95 715 33 601 q 272 897 157 828 q 538 965 386 965 q 800 900 689 965 q 969 722 911 835 q 1025 469 1026 608 q 957 217 1022 329 q 777 39 892 104 q 517 -26 663 -26 m 610 57 l 819 150 l 964 -54 l 756 -165 l 610 57 m 521 193 q 651 231 594 193 q 738 331 707 268 q 772 468 769 394 q 747 608 775 546 q 663 708 718 671 q 533 744 608 744 q 403 706 460 744 q 316 605 347 668 q 283 468 285 542 q 308 327 279 389 q 391 229 336 265 q 521 193 446 193 z "},"R":{"ha":871,"x_min":69,"x_max":900,"o":"m 240 446 l 235 965 l 436 965 q 649 922 560 967 q 787 802 739 878 q 835 635 835 726 q 771 447 835 524 q 593 340 707 371 l 900 0 l 603 0 l 240 446 m 69 965 l 324 965 l 324 0 l 69 0 l 69 965 m 421 483 q 538 522 493 485 q 579 629 582 560 q 534 727 576 694 q 419 758 492 760 l 289 758 l 288 483 l 421 483 z "},"Ŕ":{"ha":871,"x_min":69,"x_max":900,"o":"m 240 446 l 235 965 l 436 965 q 649 922 560 967 q 787 802 739 878 q 835 635 835 726 q 771 447 835 524 q 593 340 707 371 l 900 0 l 603 0 l 240 446 m 69 965 l 324 965 l 324 0 l 69 0 l 69 965 m 421 483 q 538 522 493 485 q 579 629 582 560 q 534 727 576 694 q 419 758 492 760 l 289 758 l 288 483 l 421 483 z "},"Ř":{"ha":871,"x_min":69,"x_max":900,"o":"m 240 446 l 235 965 l 436 965 q 649 922 560 967 q 787 802 739 878 q 835 635 835 726 q 771 447 835 524 q 593 340 707 371 l 900 0 l 603 0 l 240 446 m 69 965 l 324 965 l 324 0 l 69 0 l 69 965 m 421 483 q 538 522 493 485 q 579 629 582 560 q 534 727 576 694 q 419 758 492 760 l 289 758 l 288 483 l 421 483 z "},"S":{"ha":951,"x_min":-1,"x_max":918,"o":"m 468 -26 q 226 22 331 -26 q 62 152 121 71 q -1 331 3 233 l 246 331 q 309 224 257 265 q 447 178 361 183 q 592 201 538 172 q 651 279 647 229 q 608 348 654 324 q 453 383 563 372 q 148 479 250 404 q 47 683 46 554 q 104 833 49 769 q 252 931 160 897 q 454 965 344 965 q 681 922 581 965 q 842 802 781 879 q 918 624 904 725 l 672 625 q 601 722 660 685 q 454 760 543 760 q 371 747 407 760 q 316 711 335 733 q 297 664 297 689 q 329 608 297 628 q 438 578 361 588 l 463 575 q 806 476 703 550 q 910 281 908 401 q 859 122 913 192 q 705 13 806 53 q 468 -26 604 -26 z "},"Ś":{"ha":951,"x_min":-1,"x_max":918,"o":"m 468 -26 q 226 22 331 -26 q 62 152 121 71 q -1 331 3 233 l 246 331 q 309 224 257 265 q 447 178 361 183 q 592 201 538 172 q 651 279 647 229 q 608 348 654 324 q 453 383 563 372 q 148 479 250 404 q 47 683 46 554 q 104 833 49 769 q 252 931 160 897 q 454 965 344 965 q 681 922 581 965 q 842 802 781 879 q 918 624 904 725 l 672 625 q 601 722 660 685 q 454 760 543 760 q 371 747 407 760 q 316 711 335 733 q 297 664 297 689 q 329 608 297 628 q 438 578 361 588 l 463 575 q 806 476 703 550 q 910 281 908 401 q 859 122 913 192 q 705 13 806 53 q 468 -26 604 -26 z "},"Š":{"ha":951,"x_min":-1,"x_max":918,"o":"m 468 -26 q 226 22 331 -26 q 62 152 121 71 q -1 331 3 233 l 246 331 q 309 224 257 265 q 447 178 361 183 q 592 201 538 172 q 651 279 647 229 q 608 348 654 324 q 453 383 563 372 q 148 479 250 404 q 47 683 46 554 q 104 833 49 769 q 252 931 160 897 q 454 965 344 965 q 681 922 581 965 q 842 802 781 879 q 918 624 904 725 l 672 625 q 601 722 660 685 q 454 760 543 760 q 371 747 407 760 q 316 711 335 733 q 297 664 297 689 q 329 608 297 628 q 438 578 361 588 l 463 575 q 806 476 703 550 q 910 281 908 401 q 859 122 913 192 q 705 13 806 53 q 468 -26 604 -26 z "},"Ş":{"ha":951,"x_min":-1,"x_max":918,"o":"m 196 -222 q 384 -237 321 -237 q 484 -224 447 -237 q 517 -179 521 -210 q 470 -147 514 -151 q 364 -144 426 -142 l 340 -144 l 414 50 l 551 58 l 528 -82 q 658 -93 603 -74 q 728 -171 714 -112 q 689 -312 747 -260 q 494 -380 631 -364 q 182 -367 358 -396 l 196 -222 m 468 -26 q 226 22 331 -26 q 62 152 121 71 q -1 331 3 233 l 246 331 q 309 224 257 265 q 447 178 361 183 q 592 201 538 172 q 651 279 647 229 q 608 348 654 324 q 453 383 563 372 q 148 479 250 404 q 47 683 46 554 q 104 833 49 769 q 252 931 160 897 q 454 965 344 965 q 681 922 581 965 q 842 802 781 879 q 918 624 904 725 l 672 625 q 601 722 660 685 q 454 760 543 760 q 371 747 407 760 q 316 711 335 733 q 297 664 297 689 q 329 608 297 628 q 438 578 361 588 l 463 575 q 806 476 703 550 q 910 281 908 401 q 859 122 913 192 q 705 13 806 53 q 468 -26 604 -26 z "},"Ŝ":{"ha":951,"x_min":-1,"x_max":918,"o":"m 468 -26 q 226 22 331 -26 q 62 152 121 71 q -1 331 3 233 l 246 331 q 309 224 257 265 q 447 178 361 183 q 592 201 538 172 q 651 279 647 229 q 608 348 654 324 q 453 383 563 372 q 148 479 250 404 q 47 683 46 554 q 104 833 49 769 q 252 931 160 897 q 454 965 344 965 q 681 922 581 965 q 842 802 781 879 q 918 624 904 725 l 672 625 q 601 722 660 685 q 454 760 543 760 q 371 747 407 760 q 316 711 335 733 q 297 664 297 689 q 329 608 297 628 q 438 578 361 588 l 463 575 q 806 476 703 550 q 910 281 908 401 q 859 122 913 192 q 705 13 806 53 q 468 -26 604 -26 z "},"ẞ":{"ha":950,"x_min":61,"x_max":911,"o":"m 61 658 q 111 824 63 747 q 253 946 160 900 q 472 992 346 992 q 705 946 608 992 q 848 825 801 900 q 890 664 894 750 q 866 580 889 619 q 805 511 843 540 q 717 468 767 482 q 853 401 803 454 q 907 275 903 349 q 872 133 911 194 q 758 35 833 71 q 574 0 682 0 l 400 0 l 400 186 l 519 186 q 631 213 592 186 q 674 297 669 239 q 635 373 675 347 q 526 399 596 399 l 404 399 l 404 569 l 521 569 q 620 597 583 569 q 660 668 657 624 q 622 750 664 718 q 499 782 581 782 q 358 738 406 782 q 310 610 310 693 l 310 0 l 61 0 l 61 658 z "},"T":{"ha":829,"x_min":-14,"x_max":857,"o":"m 294 769 l -14 769 l -14 965 l 857 965 l 857 769 l 549 769 l 549 0 l 294 0 l 294 769 z "},"Ŧ":{"ha":829,"x_min":-14,"x_max":857,"o":"m 294 390 l 133 390 l 133 585 l 294 585 l 294 769 l -14 769 l -14 965 l 857 965 l 857 769 l 549 769 l 549 585 l 718 585 l 718 390 l 549 390 l 549 0 l 294 0 l 294 390 z "},"Ť":{"ha":829,"x_min":-14,"x_max":857,"o":"m 294 769 l -14 769 l -14 965 l 857 965 l 857 769 l 549 769 l 549 0 l 294 0 l 294 769 z "},"U":{"ha":1042,"x_min":54,"x_max":996,"o":"m 515 -26 q 177 90 300 -26 q 54 450 54 207 l 54 965 l 306 965 l 306 463 q 362 265 306 324 q 519 206 418 206 q 681 269 625 206 q 738 463 738 332 l 738 965 l 996 965 l 996 447 q 940 193 996 300 q 776 30 885 86 q 515 -26 668 -26 z "},"Ú":{"ha":1042,"x_min":54,"x_max":996,"o":"m 515 -26 q 177 90 300 -26 q 54 450 54 207 l 54 965 l 306 965 l 306 463 q 362 265 306 324 q 519 206 418 206 q 681 269 625 206 q 738 463 738 332 l 738 965 l 996 965 l 996 447 q 940 193 996 300 q 776 30 885 86 q 515 -26 668 -26 z "},"Ŭ":{"ha":1042,"x_min":54,"x_max":996,"o":"m 515 -26 q 177 90 300 -26 q 54 450 54 207 l 54 965 l 306 965 l 306 463 q 362 265 306 324 q 519 206 418 206 q 681 269 625 206 q 738 463 738 332 l 738 965 l 996 965 l 996 447 q 940 193 996 300 q 776 30 885 86 q 515 -26 668 -26 z "},"Û":{"ha":1042,"x_min":54,"x_max":996,"o":"m 515 -26 q 177 90 300 -26 q 54 450 54 207 l 54 965 l 306 965 l 306 463 q 362 265 306 324 q 519 206 418 206 q 681 269 625 206 q 738 463 738 332 l 738 965 l 996 965 l 996 447 q 940 193 996 300 q 776 30 885 86 q 515 -26 668 -26 z "},"Ü":{"ha":1042,"x_min":54,"x_max":996,"o":"m 515 -26 q 177 90 300 -26 q 54 450 54 207 l 54 965 l 306 965 l 306 463 q 362 265 306 324 q 519 206 418 206 q 681 269 625 206 q 738 463 738 332 l 738 965 l 996 965 l 996 447 q 940 193 996 300 q 776 30 885 86 q 515 -26 668 -26 z "},"Ù":{"ha":1042,"x_min":54,"x_max":996,"o":"m 515 -26 q 177 90 300 -26 q 54 450 54 207 l 54 965 l 306 965 l 306 463 q 362 265 306 324 q 519 206 418 206 q 681 269 625 206 q 738 463 738 332 l 738 965 l 996 965 l 996 447 q 940 193 996 300 q 776 30 885 86 q 515 -26 668 -26 z "},"Ű":{"ha":1042,"x_min":54,"x_max":996,"o":"m 515 -26 q 177 90 300 -26 q 54 450 54 207 l 54 965 l 306 965 l 306 463 q 362 265 306 324 q 519 206 418 206 q 681 269 625 206 q 738 463 738 332 l 738 965 l 996 965 l 996 447 q 940 193 996 300 q 776 30 885 86 q 515 -26 668 -26 z "},"Ū":{"ha":1042,"x_min":54,"x_max":996,"o":"m 515 -26 q 177 90 300 -26 q 54 450 54 207 l 54 965 l 306 965 l 306 463 q 362 265 306 324 q 519 206 418 206 q 681 269 625 206 q 738 463 738 332 l 738 965 l 996 965 l 996 447 q 940 193 996 300 q 776 30 885 86 q 515 -26 668 -26 z "},"Ų":{"ha":1042,"x_min":54,"x_max":996,"o":"m 822 -389 q 493 -410 614 -432 q 344 -307 372 -387 q 350 -199 326 -257 q 448 -77 374 -142 q 651 58 522 -12 q 717 47 697 65 q 733 -1 736 29 q 576 -111 635 -54 q 543 -210 518 -168 q 615 -240 561 -237 q 735 -229 668 -243 l 822 -389 m 515 -26 q 177 90 300 -26 q 54 450 54 207 l 54 965 l 306 965 l 306 463 q 362 265 306 324 q 519 206 418 206 q 681 269 625 206 q 738 463 738 332 l 738 965 l 996 965 l 996 447 q 940 193 996 300 q 776 30 885 86 q 515 -26 668 -26 z "},"Ů":{"ha":1042,"x_min":54,"x_max":996,"o":"m 515 -26 q 177 90 300 -26 q 54 450 54 207 l 54 965 l 306 965 l 306 463 q 362 265 306 324 q 519 206 418 206 q 681 269 625 206 q 738 463 738 332 l 738 965 l 996 965 l 996 447 q 940 193 996 300 q 776 30 885 86 q 515 -26 668 -26 z "},"Ũ":{"ha":1042,"x_min":54,"x_max":996,"o":"m 515 -26 q 177 90 300 -26 q 54 450 54 207 l 54 965 l 306 965 l 306 463 q 362 265 306 324 q 519 206 418 206 q 681 269 625 206 q 738 463 738 332 l 738 965 l 996 965 l 996 447 q 940 193 996 300 q 776 30 885 86 q 515 -26 668 -26 z "},"V":{"ha":928,"x_min":-7,"x_max":942,"o":"m -7 965 l 244 965 l 440 268 l 674 965 l 942 965 l 611 0 l 285 0 l -7 965 z "},"W":{"ha":1286,"x_min":-14,"x_max":1324,"o":"m 650 600 l 510 0 l 179 0 l -14 965 l 243 965 l 360 260 l 521 965 l 765 965 l 926 264 l 1056 965 l 1324 965 l 1107 0 l 796 0 l 650 600 z "},"Ẃ":{"ha":1286,"x_min":-14,"x_max":1324,"o":"m 650 600 l 510 0 l 179 0 l -14 965 l 243 965 l 360 260 l 521 965 l 765 965 l 926 264 l 1056 965 l 1324 965 l 1107 0 l 796 0 l 650 600 z "},"Ŵ":{"ha":1286,"x_min":-14,"x_max":1324,"o":"m 650 600 l 510 0 l 179 0 l -14 965 l 243 965 l 360 260 l 521 965 l 765 965 l 926 264 l 1056 965 l 1324 965 l 1107 0 l 796 0 l 650 600 z "},"Ẅ":{"ha":1286,"x_min":-14,"x_max":1324,"o":"m 650 600 l 510 0 l 179 0 l -14 965 l 243 965 l 360 260 l 521 965 l 765 965 l 926 264 l 1056 965 l 1324 965 l 1107 0 l 796 0 l 650 600 z "},"Ẁ":{"ha":1286,"x_min":-14,"x_max":1324,"o":"m 650 600 l 510 0 l 179 0 l -14 965 l 243 965 l 360 260 l 521 965 l 765 965 l 926 264 l 1056 965 l 1324 965 l 1107 0 l 796 0 l 650 600 z "},"X":{"ha":985,"x_min":-4,"x_max":1021,"o":"m 500 392 l 297 0 l -4 0 l 272 494 l 3 965 l 294 965 l 496 604 l 688 965 l 1000 965 l 728 506 l 1021 0 l 729 0 l 500 392 z "},"Y":{"ha":735,"x_min":-86,"x_max":840,"o":"m 235 286 l -86 965 l 175 965 l 361 522 l 569 965 l 840 965 l 493 308 l 492 0 l 235 0 l 235 286 z "},"Ý":{"ha":735,"x_min":-86,"x_max":840,"o":"m 235 286 l -86 965 l 175 965 l 361 522 l 569 965 l 840 965 l 493 308 l 492 0 l 235 0 l 235 286 z "},"Ŷ":{"ha":735,"x_min":-86,"x_max":840,"o":"m 235 286 l -86 965 l 175 965 l 361 522 l 569 965 l 840 965 l 493 308 l 492 0 l 235 0 l 235 286 z "},"Ÿ":{"ha":735,"x_min":-86,"x_max":840,"o":"m 235 286 l -86 965 l 175 965 l 361 522 l 569 965 l 840 965 l 493 308 l 492 0 l 235 0 l 235 286 z "},"Ỳ":{"ha":735,"x_min":-86,"x_max":840,"o":"m 235 286 l -86 965 l 175 965 l 361 522 l 569 965 l 840 965 l 493 308 l 492 0 l 235 0 l 235 286 z "},"Z":{"ha":929,"x_min":-29,"x_max":939,"o":"m 517 768 l 14 768 l 14 965 l 939 965 l 379 194 l 917 194 l 917 0 l -29 0 l 517 768 z "},"Ź":{"ha":929,"x_min":-29,"x_max":939,"o":"m 517 768 l 14 768 l 14 965 l 939 965 l 379 194 l 917 194 l 917 0 l -29 0 l 517 768 z "},"Ž":{"ha":929,"x_min":-29,"x_max":939,"o":"m 517 768 l 14 768 l 14 965 l 939 965 l 379 194 l 917 194 l 917 0 l -29 0 l 517 768 z "},"Ż":{"ha":929,"x_min":-29,"x_max":939,"o":"m 517 768 l 14 768 l 14 965 l 939 965 l 379 194 l 917 194 l 917 0 l -29 0 l 517 768 z "},"Ģ":{"ha":1036,"x_min":28,"x_max":999,"o":"m 517 -26 q 256 40 367 -26 q 86 219 144 106 q 31 475 28 333 q 96 716 33 603 q 272 897 158 829 q 538 965 386 965 q 763 909 667 965 q 913 767 858 853 q 981 593 968 681 l 739 593 q 706 665 732 631 q 635 721 679 699 q 529 743 590 743 q 401 708 457 743 q 315 611 346 672 q 281 475 283 550 q 307 331 278 394 q 390 231 336 267 q 518 194 444 194 q 631 221 579 194 q 715 295 682 247 q 757 406 747 343 l 999 401 q 925 194 986 292 q 759 35 864 96 q 517 -26 654 -26 m 507 508 l 999 508 l 999 401 l 894 353 l 507 353 l 507 508 z "},"Ķ":{"ha":957,"x_min":69,"x_max":1046,"o":"m 321 464 l 321 0 l 69 0 l 69 965 l 321 965 l 321 533 l 699 965 l 1024 965 l 597 507 l 1046 0 l 719 0 l 321 464 z "},"Ļ":{"ha":790,"x_min":64,"x_max":783,"o":"m 64 965 l 317 965 l 317 214 l 783 214 l 783 0 l 64 0 l 64 965 z "},"Ņ":{"ha":1043,"x_min":72,"x_max":974,"o":"m 315 596 l 315 0 l 72 0 l 72 965 l 315 965 l 731 363 l 731 965 l 974 965 l 974 0 l 724 0 l 315 596 z "},"Ŗ":{"ha":871,"x_min":69,"x_max":900,"o":"m 240 446 l 235 965 l 436 965 q 649 922 560 967 q 787 802 739 878 q 835 635 835 726 q 771 447 835 524 q 593 340 707 371 l 900 0 l 603 0 l 240 446 m 69 965 l 324 965 l 324 0 l 69 0 l 69 965 m 421 483 q 538 522 493 485 q 579 629 582 560 q 534 727 576 694 q 419 758 492 760 l 289 758 l 288 483 l 421 483 z "},"Ţ":{"ha":829,"x_min":-14,"x_max":857,"o":"m 294 769 l -14 769 l -14 965 l 857 965 l 857 769 l 549 769 l 549 0 l 294 0 l 294 769 z "},"Ɖ":{"ha":936,"x_min":10,"x_max":896,"o":"m 10 582 l 489 582 l 489 397 l 10 397 l 10 582 m 161 965 l 461 965 q 690 899 592 965 q 842 723 789 833 q 896 482 896 613 q 843 249 896 360 q 690 69 790 138 q 456 0 590 0 l 110 0 l 161 965 m 72 965 l 328 965 l 328 0 l 72 0 l 72 965 m 433 200 q 546 238 496 200 q 625 344 596 276 q 651 496 654 411 q 590 697 647 626 q 438 768 532 768 l 219 768 l 233 200 l 433 200 z "},"Ǆ":{"ha":1865,"x_min":72,"x_max":1875,"o":"m 161 965 l 461 965 q 690 899 592 965 q 842 723 789 833 q 896 482 896 613 q 843 249 896 360 q 690 69 790 138 q 456 0 590 0 l 110 0 l 161 965 m 72 965 l 328 965 l 328 0 l 72 0 l 72 965 m 433 200 q 546 238 496 200 q 625 344 596 276 q 651 496 654 411 q 590 697 647 626 q 438 768 532 768 l 219 768 l 233 200 l 433 200 m 1453 768 l 950 768 l 950 965 l 1875 965 l 1315 194 l 1853 194 l 1853 0 l 907 0 l 1453 768 z "},"ǅ":{"ha":1735,"x_min":72,"x_max":1743,"o":"m 161 965 l 461 965 q 690 899 592 965 q 842 723 789 833 q 896 482 896 613 q 843 249 896 360 q 690 69 790 138 q 456 0 590 0 l 110 0 l 161 965 m 72 965 l 328 965 l 328 0 l 72 0 l 72 965 m 433 200 q 546 238 496 200 q 625 344 596 276 q 651 496 654 411 q 590 697 647 626 q 438 768 532 768 l 219 768 l 233 200 l 433 200 m 1333 535 l 951 535 l 951 726 l 1743 726 l 1328 189 l 1728 189 l 1728 0 l 935 0 l 1333 535 m 985 1021 l 1199 1021 l 1306 906 l 1424 1021 l 1664 1021 l 1411 771 l 1222 771 l 985 1021 z "},"Ǉ":{"ha":1750,"x_min":64,"x_max":1694,"o":"m 64 965 l 317 965 l 317 214 l 783 214 l 783 0 l 64 0 l 64 965 m 1213 -26 q 981 35 1071 -26 q 853 199 890 96 q 829 429 815 303 l 1069 429 q 1079 310 1063 361 q 1135 232 1096 260 q 1231 204 1174 204 q 1380 274 1328 204 q 1432 481 1432 343 l 1432 965 l 1694 965 l 1694 474 q 1639 207 1694 319 q 1474 34 1583 94 q 1213 -26 1365 -26 z "},"ǈ":{"ha":1200,"x_min":64,"x_max":1167,"o":"m 64 965 l 317 965 l 317 214 l 783 214 l 783 0 l 64 0 l 64 965 m 664 -114 l 692 -114 q 820 -72 775 -114 q 865 51 865 -29 l 865 726 l 1117 726 l 1117 60 q 1075 -137 1117 -53 q 955 -265 1033 -221 q 772 -310 876 -310 l 664 -310 l 664 -114 m 988 811 q 897 832 938 811 q 831 888 856 853 q 807 964 807 924 q 831 1040 807 1006 q 897 1097 856 1075 q 988 1118 938 1118 q 1077 1097 1036 1118 q 1142 1040 1118 1075 q 1167 964 1167 1006 q 1142 888 1167 924 q 1077 832 1118 853 q 988 811 1036 811 z "},"Ǌ":{"ha":2003,"x_min":72,"x_max":1947,"o":"m 315 596 l 315 0 l 72 0 l 72 965 l 315 965 l 731 363 l 731 965 l 974 965 l 974 0 l 724 0 l 315 596 m 1465 -26 q 1233 35 1324 -26 q 1106 199 1143 96 q 1082 429 1068 303 l 1322 429 q 1332 310 1315 361 q 1388 232 1349 260 q 1483 204 1426 204 q 1633 274 1581 204 q 1685 481 1685 343 l 1685 965 l 1947 965 l 1947 474 q 1892 207 1947 319 q 1727 34 1836 94 q 1465 -26 1618 -26 z "},"ǋ":{"ha":1454,"x_min":72,"x_max":1419,"o":"m 315 596 l 315 0 l 72 0 l 72 965 l 315 965 l 731 363 l 731 965 l 974 965 l 974 0 l 724 0 l 315 596 m 917 -114 l 944 -114 q 1073 -72 1028 -114 q 1118 51 1118 -29 l 1118 726 l 1369 726 l 1369 60 q 1328 -137 1369 -53 q 1208 -265 1286 -221 q 1025 -310 1129 -310 l 917 -310 l 917 -114 m 1240 811 q 1149 832 1190 811 q 1084 888 1108 853 q 1060 964 1060 924 q 1084 1040 1060 1006 q 1149 1097 1108 1075 q 1240 1118 1190 1118 q 1330 1097 1289 1118 q 1395 1040 1371 1075 q 1419 964 1419 1006 q 1395 888 1419 924 q 1330 832 1371 853 q 1240 811 1289 811 z "},"Ǎ":{"ha":1004,"x_min":14,"x_max":989,"o":"m 335 965 l 674 965 l 989 0 l 729 0 l 667 192 l 343 192 l 286 0 l 14 0 l 335 965 m 610 374 l 497 711 l 390 374 l 610 374 z "},"Ǐ":{"ha":417,"x_min":-121,"x_max":558,"o":"m 86 965 l 338 965 l 338 0 l 86 0 l 86 965 z "},"Ǒ":{"ha":1067,"x_min":28,"x_max":1026,"o":"m 517 -26 q 253 38 364 -26 q 85 215 143 103 q 31 468 28 328 q 95 715 33 601 q 272 897 157 828 q 538 965 386 965 q 800 900 689 965 q 969 722 911 835 q 1025 468 1026 608 q 957 217 1022 329 q 777 39 892 104 q 517 -26 663 -26 m 521 193 q 651 231 594 193 q 738 331 707 268 q 772 468 769 394 q 747 608 775 546 q 663 708 718 671 q 533 744 608 744 q 403 706 460 744 q 316 605 347 668 q 283 468 285 542 q 308 327 279 389 q 391 229 336 265 q 521 193 446 193 z "},"Ǔ":{"ha":1042,"x_min":54,"x_max":996,"o":"m 515 -26 q 177 90 300 -26 q 54 450 54 207 l 54 965 l 306 965 l 306 463 q 362 265 306 324 q 519 206 418 206 q 681 269 625 206 q 738 463 738 332 l 738 965 l 996 965 l 996 447 q 940 193 996 300 q 776 30 885 86 q 515 -26 668 -26 z "},"Ǖ":{"ha":1042,"x_min":54,"x_max":996,"o":"m 515 -26 q 177 90 300 -26 q 54 450 54 207 l 54 965 l 306 965 l 306 463 q 362 265 306 324 q 519 206 418 206 q 681 269 625 206 q 738 463 738 332 l 738 965 l 996 965 l 996 447 q 940 193 996 300 q 776 30 885 86 q 515 -26 668 -26 m 706 1007 q 600 1045 642 1007 q 558 1139 558 1083 q 599 1232 558 1193 q 704 1269 640 1271 q 810 1232 767 1271 q 853 1138 853 1193 q 811 1045 853 1083 q 706 1007 769 1007 m 336 1007 q 230 1045 271 1007 q 189 1139 189 1083 q 229 1232 189 1193 q 332 1269 269 1271 q 438 1232 396 1271 q 482 1138 481 1193 q 440 1045 481 1083 q 336 1007 399 1007 m 226 1454 l 811 1454 l 811 1303 l 226 1303 l 226 1454 z "},"Ǘ":{"ha":1042,"x_min":54,"x_max":996,"o":"m 515 -26 q 177 89 300 -26 q 54 443 54 204 l 54 949 l 306 949 l 306 454 q 362 260 306 318 q 519 203 418 203 q 681 265 625 203 q 738 454 738 326 l 738 949 l 996 949 l 996 440 q 940 190 996 294 q 776 29 885 85 q 515 -26 668 -26 m 706 990 q 600 1028 642 990 q 558 1119 558 1065 q 599 1210 558 1172 q 704 1249 640 1249 q 810 1210 767 1249 q 853 1118 853 1172 q 811 1028 853 1065 q 706 990 769 990 m 336 990 q 230 1028 271 990 q 189 1119 189 1065 q 229 1210 189 1172 q 332 1249 269 1249 q 438 1210 396 1249 q 482 1118 481 1172 q 440 1028 481 1065 q 336 990 399 990 m 358 1307 l 686 1508 l 792 1335 l 418 1206 l 358 1307 z "},"Ǚ":{"ha":1042,"x_min":54,"x_max":996,"o":"m 515 -26 q 177 90 300 -26 q 54 450 54 207 l 54 965 l 306 965 l 306 463 q 362 265 306 324 q 519 206 418 206 q 681 269 625 206 q 738 463 738 332 l 738 965 l 996 965 l 996 447 q 940 193 996 300 q 776 30 885 86 q 515 -26 668 -26 m 706 1007 q 600 1045 642 1007 q 558 1139 558 1083 q 599 1232 558 1193 q 704 1269 640 1271 q 810 1232 767 1271 q 853 1138 853 1193 q 811 1045 853 1083 q 706 1007 769 1007 m 336 1007 q 230 1045 271 1007 q 189 1139 189 1083 q 229 1232 189 1193 q 332 1269 269 1271 q 438 1232 396 1271 q 482 1138 481 1193 q 440 1045 481 1083 q 336 1007 399 1007 m 192 1467 l 406 1467 l 513 1351 l 631 1467 l 871 1467 l 618 1217 l 429 1217 l 192 1467 z "},"Ǜ":{"ha":1042,"x_min":54,"x_max":996,"o":"m 515 -26 q 177 90 300 -26 q 54 450 54 207 l 54 965 l 306 965 l 306 463 q 362 265 306 324 q 519 206 418 206 q 681 269 625 206 q 738 463 738 332 l 738 965 l 996 965 l 996 447 q 940 193 996 300 q 776 30 885 86 q 515 -26 668 -26 m 706 1007 q 600 1045 642 1007 q 558 1139 558 1083 q 599 1232 558 1193 q 704 1269 640 1271 q 810 1232 767 1271 q 853 1138 853 1193 q 811 1045 853 1083 q 706 1007 769 1007 m 336 1007 q 230 1045 271 1007 q 189 1139 189 1083 q 229 1232 189 1193 q 332 1269 269 1271 q 438 1232 396 1271 q 482 1138 481 1193 q 440 1045 481 1083 q 336 1007 399 1007 m 251 1383 l 357 1533 l 683 1332 l 633 1251 l 251 1383 z "},"Ǟ":{"ha":1004,"x_min":14,"x_max":989,"o":"m 335 965 l 674 965 l 989 0 l 729 0 l 667 192 l 343 192 l 286 0 l 14 0 l 335 965 m 610 374 l 497 711 l 390 374 l 610 374 m 688 1008 q 582 1045 624 1007 q 540 1139 540 1083 q 581 1232 540 1193 q 686 1271 622 1271 q 792 1232 749 1271 q 835 1139 835 1193 q 793 1045 835 1083 q 688 1008 751 1007 m 318 1008 q 212 1045 253 1007 q 171 1139 171 1083 q 211 1232 171 1193 q 314 1271 251 1271 q 420 1232 378 1271 q 464 1139 463 1193 q 422 1045 463 1083 q 318 1008 381 1007 m 204 1446 l 789 1446 l 789 1296 l 204 1296 l 204 1446 z "},"Ǡ":{"ha":1004,"x_min":14,"x_max":989,"o":"m 335 965 l 674 965 l 989 0 l 729 0 l 667 192 l 343 192 l 286 0 l 14 0 l 335 965 m 610 374 l 497 711 l 390 374 l 610 374 m 504 1018 q 399 1056 440 1018 q 357 1149 357 1093 q 397 1242 357 1204 q 500 1281 438 1281 q 606 1242 564 1281 q 649 1149 649 1204 q 608 1056 649 1093 q 504 1018 567 1018 m 210 1447 l 794 1447 l 794 1303 l 210 1303 l 210 1447 z "},"Ǩ":{"ha":957,"x_min":69,"x_max":1046,"o":"m 321 464 l 321 0 l 69 0 l 69 965 l 321 965 l 321 533 l 699 965 l 1024 965 l 597 507 l 1046 0 l 719 0 l 321 464 z "},"Ǫ":{"ha":1067,"x_min":28,"x_max":1026,"o":"m 738 -389 q 407 -410 528 -432 q 258 -307 286 -387 q 264 -199 240 -257 q 362 -77 288 -142 q 567 58 436 -12 q 631 47 611 65 q 649 -1 650 29 q 490 -111 549 -54 q 458 -210 432 -168 q 528 -240 475 -237 q 649 -229 582 -243 l 738 -389 m 517 -26 q 253 38 364 -26 q 85 215 143 103 q 31 468 28 328 q 95 715 33 601 q 272 897 157 828 q 538 965 386 965 q 800 900 689 965 q 969 722 911 835 q 1025 468 1026 608 q 957 217 1022 329 q 777 39 892 104 q 517 -26 663 -26 m 521 193 q 651 231 594 193 q 738 331 707 268 q 772 468 769 394 q 747 608 775 546 q 663 708 718 671 q 533 744 608 744 q 403 706 460 744 q 316 605 347 668 q 283 468 285 542 q 308 327 279 389 q 391 229 336 265 q 521 193 446 193 z "},"Ǭ":{"ha":1067,"x_min":28,"x_max":1026,"o":"m 738 -389 q 407 -410 528 -432 q 258 -307 286 -387 q 264 -199 240 -257 q 362 -77 288 -142 q 567 58 436 -12 q 631 47 611 65 q 649 -1 650 29 q 490 -111 549 -54 q 458 -210 432 -168 q 528 -240 475 -237 q 649 -229 582 -243 l 738 -389 m 517 -26 q 253 38 364 -26 q 85 215 143 103 q 31 468 28 328 q 95 715 33 601 q 272 897 157 828 q 538 965 386 965 q 800 900 689 965 q 969 722 911 835 q 1025 468 1026 608 q 957 217 1022 329 q 777 39 892 104 q 517 -26 663 -26 m 521 193 q 651 231 594 193 q 738 331 707 268 q 772 468 769 394 q 747 608 775 546 q 663 708 718 671 q 533 744 608 744 q 403 706 460 744 q 316 605 347 668 q 283 468 285 542 q 308 327 279 389 q 391 229 336 265 q 521 193 446 193 z "},"Ǳ":{"ha":1865,"x_min":72,"x_max":1875,"o":"m 161 965 l 461 965 q 690 899 592 965 q 842 723 789 833 q 896 482 896 613 q 843 249 896 360 q 690 69 790 138 q 456 0 590 0 l 110 0 l 161 965 m 72 965 l 328 965 l 328 0 l 72 0 l 72 965 m 433 200 q 546 238 496 200 q 625 344 596 276 q 651 496 654 411 q 590 697 647 626 q 438 768 532 768 l 219 768 l 233 200 l 433 200 m 1453 768 l 950 768 l 950 965 l 1875 965 l 1315 194 l 1853 194 l 1853 0 l 907 0 l 1453 768 z "},"ǲ":{"ha":1735,"x_min":72,"x_max":1743,"o":"m 161 965 l 461 965 q 690 899 592 965 q 842 723 789 833 q 896 482 896 613 q 843 249 896 360 q 690 69 790 138 q 456 0 590 0 l 110 0 l 161 965 m 72 965 l 328 965 l 328 0 l 72 0 l 72 965 m 433 200 q 546 238 496 200 q 625 344 596 276 q 651 496 654 411 q 590 697 647 626 q 438 768 532 768 l 219 768 l 233 200 l 433 200 m 1333 535 l 951 535 l 951 726 l 1743 726 l 1328 189 l 1728 189 l 1728 0 l 935 0 l 1333 535 z "},"Ǵ":{"ha":1036,"x_min":28,"x_max":999,"o":"m 517 -26 q 256 40 367 -26 q 86 219 144 106 q 31 475 28 333 q 96 716 33 603 q 272 897 158 829 q 538 965 386 965 q 763 909 667 965 q 913 767 858 853 q 981 593 968 681 l 739 593 q 706 665 732 631 q 635 721 679 699 q 529 743 590 743 q 401 708 457 743 q 315 611 346 672 q 281 475 283 550 q 307 331 278 394 q 390 231 336 267 q 518 194 444 194 q 631 221 579 194 q 715 295 682 247 q 757 406 747 343 l 999 401 q 925 194 986 292 q 759 35 864 96 q 517 -26 654 -26 m 507 508 l 999 508 l 999 401 l 894 353 l 507 353 l 507 508 z "},"Ǹ":{"ha":1043,"x_min":72,"x_max":974,"o":"m 315 596 l 315 0 l 72 0 l 72 965 l 315 965 l 731 363 l 731 965 l 974 965 l 974 0 l 724 0 l 315 596 z "},"Ȁ":{"ha":1004,"x_min":14,"x_max":989,"o":"m 335 965 l 674 965 l 989 0 l 729 0 l 667 192 l 343 192 l 286 0 l 14 0 l 335 965 m 610 374 l 497 711 l 390 374 l 610 374 m 135 1126 l 232 1310 l 475 1142 l 564 1310 l 872 1097 l 819 990 l 538 1099 l 540 1097 l 488 990 l 135 1126 z "},"Ȃ":{"ha":1004,"x_min":14,"x_max":989,"o":"m 335 965 l 674 965 l 989 0 l 729 0 l 667 192 l 343 192 l 286 0 l 14 0 l 335 965 m 610 374 l 497 711 l 390 374 l 610 374 m 503 1200 q 640 1174 582 1200 q 728 1103 697 1149 q 758 1001 758 1057 l 608 1001 q 586 1056 611 1036 q 503 1076 561 1076 q 423 1056 449 1076 q 399 1001 397 1036 l 246 1001 q 275 1103 246 1058 q 363 1174 304 1149 q 503 1200 421 1200 z "},"Ȅ":{"ha":825,"x_min":-15,"x_max":781,"o":"m 61 965 l 756 965 l 756 771 l 313 771 l 313 578 l 699 578 l 697 381 l 313 381 l 313 196 l 781 196 l 781 0 l 61 0 l 61 965 m -15 1126 l 82 1310 l 325 1142 l 414 1310 l 722 1097 l 669 990 l 388 1099 l 390 1097 l 338 990 l -15 1126 z "},"Ȇ":{"ha":825,"x_min":61,"x_max":781,"o":"m 61 965 l 756 965 l 756 771 l 313 771 l 313 578 l 699 578 l 697 381 l 313 381 l 313 196 l 781 196 l 781 0 l 61 0 l 61 965 m 417 1213 q 553 1187 496 1213 q 642 1115 611 1161 q 672 1014 672 1069 l 522 1014 q 500 1069 525 1049 q 417 1089 475 1089 q 337 1069 363 1089 q 313 1014 311 1049 l 160 1014 q 189 1116 160 1071 q 276 1187 218 1161 q 417 1213 335 1213 z "},"Ȉ":{"ha":417,"x_min":-221,"x_max":517,"o":"m 86 965 l 338 965 l 338 0 l 86 0 l 86 965 m -221 1126 l -124 1310 l 119 1142 l 208 1310 l 517 1097 l 464 990 l 182 1099 l 185 1097 l 132 990 l -221 1126 z "},"Ȋ":{"ha":417,"x_min":-46,"x_max":467,"o":"m 86 965 l 338 965 l 338 0 l 86 0 l 86 965 m 211 1200 q 348 1174 290 1200 q 436 1103 406 1149 q 467 1001 467 1057 l 317 1001 q 294 1056 319 1036 q 211 1076 269 1076 q 131 1056 157 1076 q 107 1001 106 1036 l -46 1001 q -17 1103 -46 1058 q 71 1174 13 1149 q 211 1200 129 1200 z "},"Ȍ":{"ha":1067,"x_min":28,"x_max":1026,"o":"m 517 -26 q 253 38 364 -26 q 85 215 143 103 q 31 468 28 328 q 95 715 33 601 q 272 897 157 828 q 538 965 386 965 q 800 900 689 965 q 969 722 911 835 q 1025 468 1026 608 q 957 217 1022 329 q 777 39 892 104 q 517 -26 663 -26 m 521 193 q 651 231 594 193 q 738 331 707 268 q 772 468 769 394 q 747 608 775 546 q 663 708 718 671 q 533 744 608 744 q 403 706 460 744 q 316 605 347 668 q 283 468 285 542 q 308 327 279 389 q 391 229 336 265 q 521 193 446 193 m 106 1126 l 203 1310 l 446 1142 l 535 1310 l 843 1097 l 790 990 l 508 1099 l 511 1097 l 458 990 l 106 1126 z "},"Ȏ":{"ha":1067,"x_min":28,"x_max":1026,"o":"m 517 -26 q 253 38 364 -26 q 85 215 143 103 q 31 468 28 328 q 95 715 33 601 q 272 897 157 828 q 538 965 386 965 q 800 900 689 965 q 969 722 911 835 q 1025 468 1026 608 q 957 217 1022 329 q 777 39 892 104 q 517 -26 663 -26 m 521 193 q 651 231 594 193 q 738 331 707 268 q 772 468 769 394 q 747 608 775 546 q 663 708 718 671 q 533 744 608 744 q 403 706 460 744 q 316 605 347 668 q 283 468 285 542 q 308 327 279 389 q 391 229 336 265 q 521 193 446 193 m 538 1189 q 674 1163 617 1189 q 763 1092 732 1138 q 793 990 793 1046 l 643 990 q 621 1045 646 1025 q 538 1065 596 1065 q 458 1045 483 1065 q 433 990 432 1025 l 281 990 q 310 1092 281 1047 q 397 1163 339 1138 q 538 1189 456 1189 z "},"Ȑ":{"ha":871,"x_min":7,"x_max":900,"o":"m 240 446 l 235 965 l 436 965 q 649 922 560 967 q 787 802 739 878 q 835 635 835 726 q 771 447 835 524 q 593 340 707 371 l 900 0 l 603 0 l 240 446 m 69 965 l 324 965 l 324 0 l 69 0 l 69 965 m 421 483 q 538 522 493 485 q 579 629 582 560 q 534 727 576 694 q 419 758 492 760 l 289 758 l 288 483 l 421 483 m 7 1126 l 104 1310 l 347 1142 l 436 1310 l 744 1097 l 692 990 l 410 1099 l 413 1097 l 360 990 l 7 1126 z "},"Ȓ":{"ha":871,"x_min":69,"x_max":900,"o":"m 240 446 l 235 965 l 436 965 q 649 922 560 967 q 787 802 739 878 q 835 635 835 726 q 771 447 835 524 q 593 340 707 371 l 900 0 l 603 0 l 240 446 m 69 965 l 324 965 l 324 0 l 69 0 l 69 965 m 421 483 q 538 522 493 485 q 579 629 582 560 q 534 727 576 694 q 419 758 492 760 l 289 758 l 288 483 l 421 483 m 424 1200 q 560 1174 503 1200 q 649 1103 618 1149 q 679 1001 679 1057 l 529 1001 q 507 1056 532 1036 q 424 1076 482 1076 q 344 1056 369 1076 q 319 1001 318 1036 l 167 1001 q 196 1103 167 1058 q 283 1174 225 1149 q 424 1200 342 1200 z "},"Ȕ":{"ha":1042,"x_min":54,"x_max":996,"o":"m 515 -26 q 177 90 300 -26 q 54 450 54 207 l 54 965 l 306 965 l 306 463 q 362 265 306 324 q 519 206 418 206 q 681 269 625 206 q 738 463 738 332 l 738 965 l 996 965 l 996 447 q 940 193 996 300 q 776 30 885 86 q 515 -26 668 -26 m 92 1126 l 189 1310 l 432 1142 l 521 1310 l 829 1097 l 776 990 l 494 1099 l 497 1097 l 444 990 l 92 1126 z "},"Ȗ":{"ha":1042,"x_min":54,"x_max":996,"o":"m 515 -26 q 177 90 300 -26 q 54 450 54 207 l 54 965 l 306 965 l 306 463 q 362 265 306 324 q 519 206 418 206 q 681 269 625 206 q 738 463 738 332 l 738 965 l 996 965 l 996 447 q 940 193 996 300 q 776 30 885 86 q 515 -26 668 -26 m 525 1183 q 662 1158 604 1183 q 750 1086 719 1132 q 781 985 781 1040 l 631 985 q 608 1040 633 1019 q 525 1060 583 1060 q 445 1040 471 1060 q 421 985 419 1019 l 268 985 q 297 1087 268 1042 q 385 1158 326 1132 q 525 1183 443 1183 z "},"Ș":{"ha":951,"x_min":-1,"x_max":918,"o":"m 468 -26 q 226 22 331 -26 q 62 152 121 71 q -1 331 3 233 l 246 331 q 309 224 257 265 q 447 178 361 183 q 592 201 538 172 q 651 279 647 229 q 608 348 654 324 q 453 383 563 372 q 148 479 250 404 q 47 683 46 554 q 104 833 49 769 q 252 931 160 897 q 454 965 344 965 q 681 922 581 965 q 842 802 781 879 q 918 624 904 725 l 672 625 q 601 722 660 685 q 454 760 543 760 q 371 747 407 760 q 316 711 335 733 q 297 664 297 689 q 329 608 297 628 q 438 578 361 588 l 463 575 q 806 476 703 550 q 910 281 908 401 q 859 122 913 192 q 705 13 806 53 q 468 -26 604 -26 z "},"Ț":{"ha":829,"x_min":-14,"x_max":857,"o":"m 294 769 l -14 769 l -14 965 l 857 965 l 857 769 l 549 769 l 549 0 l 294 0 l 294 769 z "},"Ȟ":{"ha":1000,"x_min":63,"x_max":938,"o":"m 686 386 l 314 386 l 314 0 l 63 0 l 63 965 l 314 965 l 314 576 l 686 576 l 686 965 l 938 965 l 938 0 l 686 0 l 686 386 z "},"Ȧ":{"ha":1004,"x_min":14,"x_max":989,"o":"m 335 965 l 674 965 l 989 0 l 729 0 l 667 192 l 343 192 l 286 0 l 14 0 l 335 965 m 610 374 l 497 711 l 390 374 l 610 374 z "},"Ȩ":{"ha":825,"x_min":61,"x_max":781,"o":"m 114 -222 q 302 -237 239 -237 q 402 -224 365 -237 q 435 -179 439 -210 q 388 -147 432 -151 q 282 -144 344 -142 l 258 -144 l 332 50 l 469 58 l 446 -82 q 576 -93 521 -74 q 646 -171 632 -112 q 607 -312 665 -260 q 413 -380 549 -364 q 100 -367 276 -396 l 114 -222 m 61 965 l 756 965 l 756 771 l 313 771 l 313 578 l 699 578 l 697 381 l 313 381 l 313 196 l 781 196 l 781 0 l 61 0 l 61 965 z "},"Ȫ":{"ha":1067,"x_min":28,"x_max":1026,"o":"m 517 -26 q 253 37 364 -26 q 85 210 143 100 q 31 458 28 321 q 95 699 33 589 q 272 877 157 810 q 538 944 386 944 q 800 881 689 944 q 969 706 911 817 q 1025 458 1026 596 q 957 212 1022 322 q 777 38 892 101 q 517 -26 663 -26 m 521 189 q 651 226 594 189 q 738 324 707 263 q 772 458 769 386 q 747 596 775 535 q 663 692 718 657 q 533 728 608 728 q 403 691 460 728 q 316 592 347 654 q 283 458 285 531 q 308 320 279 381 q 391 224 336 260 q 521 189 446 189 m 719 986 q 614 1023 656 986 q 571 1115 572 1060 q 613 1206 572 1168 q 717 1243 654 1243 q 824 1206 781 1243 q 865 1114 867 1168 q 825 1023 867 1060 q 719 986 783 986 m 349 986 q 244 1023 285 986 q 203 1115 203 1060 q 243 1206 203 1168 q 344 1243 283 1243 q 452 1206 410 1243 q 494 1114 494 1168 q 453 1023 494 1060 q 349 986 413 986 m 242 1421 l 826 1421 l 826 1279 l 242 1279 l 242 1421 z "},"Ȭ":{"ha":1067,"x_min":28,"x_max":1026,"o":"m 517 -26 q 253 38 364 -26 q 85 211 143 101 q 31 458 28 321 q 95 700 33 589 q 272 878 157 811 q 538 946 386 946 q 800 882 689 946 q 969 707 911 818 q 1025 458 1026 596 q 957 213 1022 322 q 777 38 892 103 q 517 -26 663 -26 m 521 190 q 651 226 594 189 q 738 324 707 263 q 772 458 769 386 q 747 596 775 535 q 663 693 718 657 q 533 729 608 729 q 403 692 460 729 q 316 593 347 656 q 283 458 285 531 q 308 320 279 381 q 391 224 336 260 q 521 190 446 189 m 215 979 q 222 1124 201 1064 q 288 1215 242 1183 q 397 1247 333 1247 q 476 1233 444 1247 q 544 1194 508 1218 q 580 1172 564 1181 q 611 1164 596 1164 q 669 1185 651 1164 q 681 1242 686 1207 l 853 1242 q 842 1101 867 1160 q 768 1011 818 1042 q 654 979 718 981 q 578 993 607 981 q 515 1032 549 1006 q 480 1056 494 1049 q 447 1064 465 1064 q 397 1042 411 1064 q 389 981 382 1019 l 215 979 m 247 1424 l 832 1424 l 832 1272 l 247 1272 l 247 1424 z "},"Ȯ":{"ha":1067,"x_min":28,"x_max":1026,"o":"m 517 -26 q 253 38 364 -26 q 85 215 143 103 q 31 468 28 328 q 95 715 33 601 q 272 897 157 828 q 538 965 386 965 q 800 900 689 965 q 969 722 911 835 q 1025 468 1026 608 q 957 217 1022 329 q 777 39 892 104 q 517 -26 663 -26 m 521 193 q 651 231 594 193 q 738 331 707 268 q 772 468 769 394 q 747 608 775 546 q 663 708 718 671 q 533 744 608 744 q 403 706 460 744 q 316 605 347 668 q 283 468 285 542 q 308 327 279 389 q 391 229 336 265 q 521 193 446 193 z "},"Ȱ":{"ha":1067,"x_min":28,"x_max":1026,"o":"m 517 -26 q 253 37 364 -26 q 85 210 143 100 q 31 458 28 321 q 95 700 33 589 q 272 878 157 811 q 538 946 386 946 q 800 882 689 946 q 969 707 911 818 q 1025 458 1026 596 q 957 212 1022 322 q 777 38 892 101 q 517 -26 663 -26 m 521 190 q 651 226 594 189 q 738 324 707 263 q 772 458 769 386 q 747 596 775 535 q 663 693 718 657 q 533 729 608 729 q 403 692 460 729 q 316 592 347 654 q 283 458 285 531 q 308 320 279 381 q 391 224 336 260 q 521 190 446 189 m 535 997 q 431 1034 472 997 q 388 1125 389 1071 q 429 1217 389 1179 q 531 1254 469 1254 q 638 1217 596 1254 q 681 1125 681 1179 q 640 1034 681 1071 q 535 997 599 997 m 239 1450 l 824 1450 l 824 1289 l 239 1289 l 239 1450 z "},"Ȳ":{"ha":735,"x_min":-86,"x_max":840,"o":"m 235 286 l -86 965 l 175 965 l 361 522 l 569 965 l 840 965 l 493 308 l 492 0 l 235 0 l 235 286 z "},"Ḃ":{"ha":893,"x_min":65,"x_max":868,"o":"m 126 535 l 463 535 q 747 475 644 535 q 860 294 849 415 q 827 150 868 218 q 703 41 786 82 q 504 0 619 0 l 107 0 l 126 535 m 65 965 l 318 965 l 318 0 l 65 0 l 65 965 m 454 193 q 568 220 526 193 q 613 300 610 247 q 582 374 615 344 q 481 403 549 403 l 221 403 l 213 193 l 454 193 m 442 568 q 545 594 508 568 q 586 671 582 621 q 553 753 589 724 q 453 783 518 783 l 206 783 l 208 568 l 442 568 m 147 965 l 510 965 q 749 888 675 965 q 819 694 824 811 q 696 517 815 578 q 388 457 576 457 l 117 457 l 147 965 z "},"Ḋ":{"ha":936,"x_min":72,"x_max":896,"o":"m 161 965 l 461 965 q 690 899 592 965 q 842 723 789 833 q 896 482 896 613 q 843 249 896 360 q 690 69 790 138 q 456 0 590 0 l 110 0 l 161 965 m 72 965 l 328 965 l 328 0 l 72 0 l 72 965 m 433 200 q 546 238 496 200 q 625 344 596 276 q 651 496 654 411 q 590 697 647 626 q 438 768 532 768 l 219 768 l 233 200 l 433 200 z "},"Ḟ":{"ha":749,"x_min":56,"x_max":746,"o":"m 56 965 l 746 965 l 744 764 l 308 764 l 308 492 l 700 492 l 699 290 l 308 290 l 308 0 l 56 0 l 56 965 z "},"Ḡ":{"ha":1036,"x_min":28,"x_max":999,"o":"m 517 -26 q 256 40 367 -26 q 86 219 144 106 q 31 475 28 333 q 96 716 33 603 q 272 897 158 829 q 538 965 386 965 q 763 909 667 965 q 913 767 858 853 q 981 593 968 681 l 739 593 q 706 665 732 631 q 635 721 679 699 q 529 743 590 743 q 401 708 457 743 q 315 611 346 672 q 281 475 283 550 q 307 331 278 394 q 390 231 336 267 q 518 194 444 194 q 631 221 579 194 q 715 295 682 247 q 757 406 747 343 l 999 401 q 925 194 986 292 q 759 35 864 96 q 517 -26 654 -26 m 507 508 l 999 508 l 999 401 l 894 353 l 507 353 l 507 508 z "},"Ḣ":{"ha":1000,"x_min":63,"x_max":938,"o":"m 686 386 l 314 386 l 314 0 l 63 0 l 63 965 l 314 965 l 314 576 l 686 576 l 686 965 l 938 965 l 938 0 l 686 0 l 686 386 z "},"Ḧ":{"ha":1000,"x_min":63,"x_max":938,"o":"m 686 386 l 314 386 l 314 0 l 63 0 l 63 965 l 314 965 l 314 576 l 686 576 l 686 965 l 938 965 l 938 0 l 686 0 l 686 386 z "},"Ḱ":{"ha":957,"x_min":69,"x_max":1046,"o":"m 321 464 l 321 0 l 69 0 l 69 965 l 321 965 l 321 533 l 699 965 l 1024 965 l 597 507 l 1046 0 l 719 0 l 321 464 z "},"Ḿ":{"ha":1250,"x_min":72,"x_max":1193,"o":"m 307 647 l 307 0 l 72 0 l 72 965 l 403 965 l 626 400 l 863 965 l 1193 965 l 1193 0 l 957 0 l 957 643 l 710 0 l 529 0 l 307 647 z "},"Ṅ":{"ha":1043,"x_min":72,"x_max":974,"o":"m 315 596 l 315 0 l 72 0 l 72 965 l 315 965 l 731 363 l 731 965 l 974 965 l 974 0 l 724 0 l 315 596 z "},"Ṕ":{"ha":865,"x_min":64,"x_max":853,"o":"m 146 965 l 438 965 q 664 918 571 965 q 803 791 757 871 q 853 615 850 711 q 798 417 853 501 q 640 287 743 333 q 394 238 536 240 l 133 238 l 146 965 m 64 965 l 317 965 l 317 0 l 64 0 l 64 965 m 429 439 q 560 486 511 439 q 606 617 608 533 q 552 728 601 688 q 426 768 503 768 l 200 768 l 214 439 l 429 439 z "},"Ṗ":{"ha":865,"x_min":64,"x_max":853,"o":"m 146 965 l 438 965 q 664 918 571 965 q 803 791 757 871 q 853 615 850 711 q 798 417 853 501 q 640 287 743 333 q 394 238 536 240 l 133 238 l 146 965 m 64 965 l 317 965 l 317 0 l 64 0 l 64 965 m 429 439 q 560 486 511 439 q 606 617 608 533 q 552 728 601 688 q 426 768 503 768 l 200 768 l 214 439 l 429 439 z "},"Ṙ":{"ha":871,"x_min":69,"x_max":900,"o":"m 240 446 l 235 965 l 436 965 q 649 922 560 967 q 787 802 739 878 q 835 635 835 726 q 771 447 835 524 q 593 340 707 371 l 900 0 l 603 0 l 240 446 m 69 965 l 324 965 l 324 0 l 69 0 l 69 965 m 421 483 q 538 522 493 485 q 579 629 582 560 q 534 727 576 694 q 419 758 492 760 l 289 758 l 288 483 l 421 483 z "},"Ṡ":{"ha":951,"x_min":-1,"x_max":918,"o":"m 468 -26 q 226 22 331 -26 q 62 152 121 71 q -1 331 3 233 l 246 331 q 309 224 257 265 q 447 178 361 183 q 592 201 538 172 q 651 279 647 229 q 608 348 654 324 q 453 383 563 372 q 148 479 250 404 q 47 683 46 554 q 104 833 49 769 q 252 931 160 897 q 454 965 344 965 q 681 922 581 965 q 842 802 781 879 q 918 624 904 725 l 672 625 q 601 722 660 685 q 454 760 543 760 q 371 747 407 760 q 316 711 335 733 q 297 664 297 689 q 329 608 297 628 q 438 578 361 588 l 463 575 q 806 476 703 550 q 910 281 908 401 q 859 122 913 192 q 705 13 806 53 q 468 -26 604 -26 z "},"Ṧ":{"ha":951,"x_min":-1,"x_max":918,"o":"m 468 -26 q 226 22 331 -26 q 62 152 121 71 q -1 331 3 233 l 246 331 q 309 224 257 265 q 447 178 361 183 q 592 201 538 172 q 651 279 647 229 q 608 348 654 324 q 453 383 563 372 q 148 479 250 404 q 47 683 46 554 q 104 833 49 769 q 252 931 160 897 q 454 965 344 965 q 681 922 581 965 q 842 802 781 879 q 918 624 904 725 l 672 625 q 601 722 660 685 q 454 760 543 760 q 371 747 407 760 q 316 711 335 733 q 297 664 297 689 q 329 608 297 628 q 438 578 361 588 l 463 575 q 806 476 703 550 q 910 281 908 401 q 859 122 913 192 q 705 13 806 53 q 468 -26 604 -26 z "},"Ṫ":{"ha":829,"x_min":-14,"x_max":857,"o":"m 294 769 l -14 769 l -14 965 l 857 965 l 857 769 l 549 769 l 549 0 l 294 0 l 294 769 z "},"Ṵ":{"ha":1042,"x_min":54,"x_max":996,"o":"m 515 -26 q 177 90 300 -26 q 54 450 54 207 l 54 965 l 306 965 l 306 463 q 362 265 306 324 q 519 206 418 206 q 681 269 625 206 q 738 463 738 332 l 738 965 l 996 965 l 996 447 q 940 193 996 300 q 776 30 885 86 q 515 -26 668 -26 z "},"Ṽ":{"ha":928,"x_min":-7,"x_max":942,"o":"m -7 965 l 244 965 l 440 268 l 674 965 l 942 965 l 611 0 l 285 0 l -7 965 z "},"Ẇ":{"ha":1286,"x_min":-14,"x_max":1324,"o":"m 650 600 l 510 0 l 179 0 l -14 965 l 243 965 l 360 260 l 521 965 l 765 965 l 926 264 l 1056 965 l 1324 965 l 1107 0 l 796 0 l 650 600 z "},"Ẋ":{"ha":985,"x_min":-4,"x_max":1021,"o":"m 500 392 l 297 0 l -4 0 l 272 494 l 3 965 l 294 965 l 496 604 l 688 965 l 1000 965 l 728 506 l 1021 0 l 729 0 l 500 392 z "},"Ẍ":{"ha":985,"x_min":-4,"x_max":1021,"o":"m 500 392 l 297 0 l -4 0 l 272 494 l 3 965 l 294 965 l 496 604 l 688 965 l 1000 965 l 728 506 l 1021 0 l 729 0 l 500 392 z "},"Ẏ":{"ha":735,"x_min":-86,"x_max":840,"o":"m 235 286 l -86 965 l 175 965 l 361 522 l 569 965 l 840 965 l 493 308 l 492 0 l 235 0 l 235 286 z "},"Ẑ":{"ha":929,"x_min":-29,"x_max":939,"o":"m 517 768 l 14 768 l 14 965 l 939 965 l 379 194 l 917 194 l 917 0 l -29 0 l 517 768 z "},"Ả":{"ha":1004,"x_min":14,"x_max":989,"o":"m 335 965 l 674 965 l 989 0 l 729 0 l 497 711 l 286 0 l 14 0 l 335 965 m 301 374 l 728 374 l 715 192 l 289 192 l 301 374 m 435 933 l 410 1075 q 424 1074 417 1074 q 439 1074 431 1074 q 540 1079 500 1071 q 589 1114 579 1088 q 572 1159 600 1144 q 477 1171 543 1174 q 308 1146 411 1168 l 294 1281 q 559 1302 444 1310 q 731 1250 674 1294 q 771 1125 789 1206 q 701 1037 756 1064 q 579 1011 646 1010 l 572 925 l 435 933 z "},"Ỏ":{"ha":1067,"x_min":28,"x_max":1026,"o":"m 517 -26 q 253 38 364 -26 q 85 215 143 103 q 31 468 28 328 q 95 715 33 601 q 272 897 157 828 q 538 965 386 965 q 800 900 689 965 q 969 722 911 835 q 1025 468 1026 608 q 957 217 1022 329 q 777 39 892 104 q 517 -26 663 -26 m 521 193 q 651 231 594 193 q 738 331 707 268 q 772 468 769 394 q 747 608 775 546 q 663 708 718 671 q 533 744 608 744 q 403 706 460 744 q 316 605 347 668 q 283 468 285 542 q 308 327 279 389 q 391 229 336 265 q 521 193 446 193 m 465 933 l 442 1075 q 456 1074 449 1074 q 469 1074 463 1074 q 572 1079 532 1071 q 619 1114 611 1088 q 603 1159 631 1144 q 509 1171 575 1174 q 340 1146 443 1168 l 326 1281 q 591 1302 476 1310 q 763 1250 706 1294 q 801 1125 821 1206 q 733 1037 788 1064 q 611 1011 678 1010 l 604 925 l 465 933 z "},"Ủ":{"ha":1042,"x_min":54,"x_max":996,"o":"m 515 -26 q 177 90 300 -26 q 54 450 54 207 l 54 965 l 306 965 l 306 463 q 362 265 306 324 q 519 206 418 206 q 681 269 625 206 q 738 463 738 332 l 738 965 l 996 965 l 996 447 q 940 193 996 300 q 776 30 885 86 q 515 -26 668 -26 m 453 933 l 429 1075 q 443 1074 436 1074 q 457 1074 450 1074 q 559 1080 519 1072 q 607 1114 599 1088 q 590 1159 618 1144 q 497 1171 563 1174 q 328 1147 431 1168 l 314 1281 q 578 1302 464 1310 q 751 1250 693 1294 q 789 1125 808 1206 q 721 1038 775 1065 q 599 1011 667 1010 l 590 925 l 453 933 z "},"Ỷ":{"ha":735,"x_min":-86,"x_max":840,"o":"m 235 286 l -86 965 l 175 965 l 361 522 l 569 965 l 840 965 l 493 308 l 492 0 l 235 0 l 235 286 m 299 933 l 275 1075 q 289 1074 282 1074 q 303 1074 296 1074 q 405 1080 365 1072 q 453 1114 444 1088 q 436 1159 464 1144 q 342 1171 408 1174 q 174 1147 276 1168 l 160 1281 q 424 1302 310 1310 q 597 1250 539 1294 q 635 1125 654 1206 q 567 1038 621 1065 q 444 1011 513 1010 l 436 925 l 299 933 z "},"Ỹ":{"ha":735,"x_min":-86,"x_max":840,"o":"m 235 286 l -86 965 l 175 965 l 361 522 l 569 965 l 840 965 l 493 308 l 492 0 l 235 0 l 235 286 z "},"a":{"ha":981,"x_min":42,"x_max":924,"o":"m 386 -26 q 209 24 288 -26 q 86 165 131 75 q 42 364 42 254 q 90 560 42 471 q 223 701 139 649 q 406 753 307 753 q 582 701 504 753 q 703 561 660 650 q 746 364 746 472 q 695 167 743 257 q 566 26 647 78 q 386 -26 485 -26 m 465 147 q 565 176 518 147 q 642 253 613 204 q 672 364 671 303 q 647 475 672 425 q 578 553 622 525 q 481 581 535 581 q 378 552 424 581 q 304 474 332 524 q 276 363 276 424 q 301 252 276 301 q 369 175 326 203 q 465 147 413 147 m 671 726 l 922 726 l 924 0 l 672 0 l 671 726 z "},"á":{"ha":981,"x_min":42,"x_max":924,"o":"m 386 -26 q 209 24 288 -26 q 86 165 131 75 q 42 364 42 254 q 90 560 42 471 q 223 701 139 649 q 406 753 307 753 q 582 701 504 753 q 703 561 660 650 q 746 364 746 472 q 695 167 743 257 q 566 26 647 78 q 386 -26 485 -26 m 465 147 q 565 176 518 147 q 642 253 613 204 q 672 364 671 303 q 647 475 672 425 q 578 553 622 525 q 481 581 535 581 q 378 552 424 581 q 304 474 332 524 q 276 363 276 424 q 301 252 276 301 q 369 175 326 203 q 465 147 413 147 m 671 726 l 922 726 l 924 0 l 672 0 l 671 726 z "},"ă":{"ha":981,"x_min":42,"x_max":924,"o":"m 386 -26 q 209 24 288 -26 q 86 165 131 75 q 42 364 42 254 q 90 560 42 471 q 223 701 139 649 q 406 753 307 753 q 582 701 504 753 q 703 561 660 650 q 746 364 746 472 q 695 167 743 257 q 566 26 647 78 q 386 -26 485 -26 m 465 147 q 565 176 518 147 q 642 253 613 204 q 672 364 671 303 q 647 475 672 425 q 578 553 622 525 q 481 581 535 581 q 378 552 424 581 q 304 474 332 524 q 276 363 276 424 q 301 252 276 301 q 369 175 326 203 q 465 147 413 147 m 671 726 l 922 726 l 924 0 l 672 0 l 671 726 z "},"â":{"ha":981,"x_min":42,"x_max":924,"o":"m 386 -26 q 209 24 288 -26 q 86 165 131 75 q 42 364 42 254 q 90 560 42 471 q 223 701 139 649 q 406 753 307 753 q 582 701 504 753 q 703 561 660 650 q 746 364 746 472 q 695 167 743 257 q 566 26 647 78 q 386 -26 485 -26 m 465 147 q 565 176 518 147 q 642 253 613 204 q 672 364 671 303 q 647 475 672 425 q 578 553 622 525 q 481 581 535 581 q 378 552 424 581 q 304 474 332 524 q 276 363 276 424 q 301 252 276 301 q 369 175 326 203 q 465 147 413 147 m 671 726 l 922 726 l 924 0 l 672 0 l 671 726 m 408 1056 l 581 1056 l 803 806 l 604 806 l 503 921 l 396 806 l 178 806 l 408 1056 z "},"ä":{"ha":981,"x_min":42,"x_max":924,"o":"m 386 -26 q 209 24 288 -26 q 86 165 131 75 q 42 364 42 254 q 90 560 42 471 q 223 701 139 649 q 406 753 307 753 q 582 701 504 753 q 703 561 660 650 q 746 364 746 472 q 695 167 743 257 q 566 26 647 78 q 386 -26 485 -26 m 465 147 q 565 176 518 147 q 642 253 613 204 q 672 364 671 303 q 647 475 672 425 q 578 553 622 525 q 481 581 535 581 q 378 552 424 581 q 304 474 332 524 q 276 363 276 424 q 301 252 276 301 q 369 175 326 203 q 465 147 413 147 m 671 726 l 922 726 l 924 0 l 672 0 l 671 726 z "},"à":{"ha":981,"x_min":42,"x_max":924,"o":"m 386 -26 q 209 24 288 -26 q 86 165 131 75 q 42 364 42 254 q 90 560 42 471 q 223 701 139 649 q 406 753 307 753 q 582 701 504 753 q 703 561 660 650 q 746 364 746 472 q 695 167 743 257 q 566 26 647 78 q 386 -26 485 -26 m 465 147 q 565 176 518 147 q 642 253 613 204 q 672 364 671 303 q 647 475 672 425 q 578 553 622 525 q 481 581 535 581 q 378 552 424 581 q 304 474 332 524 q 276 363 276 424 q 301 252 276 301 q 369 175 326 203 q 465 147 413 147 m 671 726 l 922 726 l 924 0 l 672 0 l 671 726 z "},"ɑ":{"ha":981,"x_min":42,"x_max":924,"o":"m 386 -26 q 209 24 288 -26 q 86 165 131 75 q 42 364 42 254 q 90 560 42 471 q 223 701 139 649 q 406 753 307 753 q 582 701 504 753 q 703 561 660 650 q 746 364 746 472 q 695 167 743 257 q 566 26 647 78 q 386 -26 485 -26 m 465 147 q 565 176 518 147 q 642 253 613 204 q 672 364 671 303 q 647 475 672 425 q 578 553 622 525 q 481 581 535 581 q 378 552 424 581 q 304 474 332 524 q 276 363 276 424 q 301 252 276 301 q 369 175 326 203 q 465 147 413 147 m 671 726 l 922 726 l 924 0 l 672 0 l 671 726 z "},"ā":{"ha":981,"x_min":42,"x_max":924,"o":"m 386 -26 q 209 24 288 -26 q 86 165 131 75 q 42 364 42 254 q 90 560 42 471 q 223 701 139 649 q 406 753 307 753 q 582 701 504 753 q 703 561 660 650 q 746 364 746 472 q 695 167 743 257 q 566 26 647 78 q 386 -26 485 -26 m 465 147 q 565 176 518 147 q 642 253 613 204 q 672 364 671 303 q 647 475 672 425 q 578 553 622 525 q 481 581 535 581 q 378 552 424 581 q 304 474 332 524 q 276 363 276 424 q 301 252 276 301 q 369 175 326 203 q 465 147 413 147 m 671 726 l 922 726 l 924 0 l 672 0 l 671 726 z "},"ą":{"ha":981,"x_min":42,"x_max":979,"o":"m 979 -389 q 650 -410 771 -432 q 501 -307 529 -387 q 507 -199 483 -257 q 605 -77 531 -142 q 810 58 679 -12 q 874 47 854 65 q 892 -1 893 29 q 733 -111 792 -54 q 701 -210 675 -168 q 772 -240 718 -237 q 892 -229 825 -243 l 979 -389 m 386 -26 q 209 24 288 -26 q 86 165 131 75 q 42 364 42 254 q 90 560 42 471 q 223 701 139 649 q 406 753 307 753 q 582 701 504 753 q 703 561 660 650 q 746 364 746 472 q 695 167 743 257 q 566 26 647 78 q 386 -26 485 -26 m 465 147 q 565 176 518 147 q 642 253 613 204 q 672 364 671 303 q 647 475 672 425 q 578 553 622 525 q 481 581 535 581 q 378 552 424 581 q 304 474 332 524 q 276 363 276 424 q 301 252 276 301 q 369 175 326 203 q 465 147 413 147 m 671 726 l 922 726 l 924 0 l 672 0 l 671 726 z "},"å":{"ha":981,"x_min":42,"x_max":924,"o":"m 386 -26 q 209 24 288 -26 q 86 165 131 75 q 42 364 42 254 q 90 560 42 471 q 223 701 139 649 q 406 753 307 753 q 582 701 504 753 q 703 561 660 650 q 746 364 746 472 q 695 167 743 257 q 566 26 647 78 q 386 -26 485 -26 m 465 147 q 565 176 518 147 q 642 253 613 204 q 672 364 671 303 q 647 475 672 425 q 578 553 622 525 q 481 581 535 581 q 378 552 424 581 q 304 474 332 524 q 276 363 276 424 q 301 252 276 301 q 369 175 326 203 q 465 147 413 147 m 671 726 l 922 726 l 924 0 l 672 0 l 671 726 z "},"ǻ":{"ha":981,"x_min":42,"x_max":924,"o":"m 386 -26 q 209 24 288 -26 q 86 165 131 75 q 42 364 42 254 q 90 560 42 471 q 223 701 139 649 q 406 753 307 753 q 582 701 504 753 q 703 561 660 650 q 746 364 746 472 q 695 167 743 257 q 566 26 647 78 q 386 -26 485 -26 m 465 147 q 565 176 518 147 q 642 253 613 204 q 672 364 671 303 q 647 475 672 425 q 578 553 622 525 q 481 581 535 581 q 378 552 424 581 q 304 474 332 524 q 276 363 276 424 q 301 252 276 301 q 369 175 326 203 q 465 147 413 147 m 671 726 l 922 726 l 924 0 l 672 0 l 671 726 z "},"ã":{"ha":981,"x_min":42,"x_max":924,"o":"m 386 -26 q 209 24 288 -26 q 86 165 131 75 q 42 364 42 254 q 90 560 42 471 q 223 701 139 649 q 406 753 307 753 q 582 701 504 753 q 703 561 660 650 q 746 364 746 472 q 695 167 743 257 q 566 26 647 78 q 386 -26 485 -26 m 465 147 q 565 176 518 147 q 642 253 613 204 q 672 364 671 303 q 647 475 672 425 q 578 553 622 525 q 481 581 535 581 q 378 552 424 581 q 304 474 332 524 q 276 363 276 424 q 301 252 276 301 q 369 175 326 203 q 465 147 413 147 m 671 726 l 922 726 l 924 0 l 672 0 l 671 726 z "},"æ":{"ha":1457,"x_min":3,"x_max":1408,"o":"m 1004 -26 q 791 24 881 -26 q 653 162 701 74 q 608 364 606 250 q 658 558 610 469 q 794 700 706 647 q 1000 753 882 753 q 1223 699 1131 753 q 1362 556 1315 644 q 1406 363 1408 467 q 1399 296 1406 338 l 826 296 q 881 197 832 235 q 1011 158 931 158 q 1108 179 1063 158 q 1181 233 1153 200 l 1360 128 q 1206 15 1296 57 q 1004 -26 1115 -26 m 397 154 q 526 192 475 154 q 592 294 578 229 l 372 294 q 275 259 303 294 q 281 189 247 224 q 397 154 314 154 m 342 -26 q 78 87 154 -26 q 73 313 3 200 q 324 426 143 426 l 596 426 q 554 519 596 485 q 432 554 513 554 q 333 533 372 554 q 272 472 294 513 l 68 560 q 208 699 113 644 q 447 753 303 753 q 656 708 574 753 q 778 581 739 663 q 813 393 817 500 l 775 328 q 715 143 772 224 q 560 18 658 63 q 342 -26 463 -26 m 1165 431 q 1144 500 1163 468 q 1092 551 1126 532 q 1008 569 1057 569 q 892 532 938 569 q 832 431 847 494 l 1165 431 z "},"ǽ":{"ha":1457,"x_min":3,"x_max":1408,"o":"m 1004 -26 q 791 24 881 -26 q 653 162 701 74 q 608 364 606 250 q 658 558 610 469 q 794 700 706 647 q 1000 753 882 753 q 1223 699 1131 753 q 1362 556 1315 644 q 1406 363 1408 467 q 1399 296 1406 338 l 826 296 q 881 197 832 235 q 1011 158 931 158 q 1108 179 1063 158 q 1181 233 1153 200 l 1360 128 q 1206 15 1296 57 q 1004 -26 1115 -26 m 397 154 q 526 192 475 154 q 592 294 578 229 l 372 294 q 275 259 303 294 q 281 189 247 224 q 397 154 314 154 m 342 -26 q 78 87 154 -26 q 73 313 3 200 q 324 426 143 426 l 596 426 q 554 519 596 485 q 432 554 513 554 q 333 533 372 554 q 272 472 294 513 l 68 560 q 208 699 113 644 q 447 753 303 753 q 656 708 574 753 q 778 581 739 663 q 813 393 817 500 l 775 328 q 715 143 772 224 q 560 18 658 63 q 342 -26 463 -26 m 1165 431 q 1144 500 1163 468 q 1092 551 1126 532 q 1008 569 1057 569 q 892 532 938 569 q 832 431 847 494 l 1165 431 m 513 846 l 840 1060 l 946 875 l 572 739 l 513 846 z "},"ǣ":{"ha":1457,"x_min":3,"x_max":1408,"o":"m 1004 -26 q 791 24 881 -26 q 653 162 701 74 q 608 364 606 250 q 658 558 610 469 q 794 700 706 647 q 1000 753 882 753 q 1223 699 1131 753 q 1362 556 1315 644 q 1406 363 1408 467 q 1399 296 1406 338 l 826 296 q 881 197 832 235 q 1011 158 931 158 q 1108 179 1063 158 q 1181 233 1153 200 l 1360 128 q 1206 15 1296 57 q 1004 -26 1115 -26 m 397 154 q 526 192 475 154 q 592 294 578 229 l 372 294 q 275 259 303 294 q 281 189 247 224 q 397 154 314 154 m 342 -26 q 78 87 154 -26 q 73 313 3 200 q 324 426 143 426 l 596 426 q 554 519 596 485 q 432 554 513 554 q 333 533 372 554 q 272 472 294 513 l 68 560 q 208 699 113 644 q 447 753 303 753 q 656 708 574 753 q 778 581 739 663 q 813 393 817 500 l 775 328 q 715 143 772 224 q 560 18 658 63 q 342 -26 463 -26 m 1165 431 q 1144 500 1163 468 q 1092 551 1126 532 q 1008 569 1057 569 q 892 532 938 569 q 832 431 847 494 l 1165 431 z "},"b":{"ha":975,"x_min":56,"x_max":936,"o":"m 593 -26 q 413 26 494 -26 q 283 167 331 78 q 233 364 235 257 q 276 561 232 472 q 397 701 319 650 q 574 753 475 753 q 756 701 672 753 q 888 560 839 649 q 936 364 936 471 q 892 165 936 254 q 770 24 849 75 q 593 -26 692 -26 m 56 1036 l 307 1036 l 307 0 l 56 0 l 56 1036 m 514 147 q 610 175 567 147 q 677 252 653 203 q 701 363 701 301 q 674 474 701 424 q 601 552 647 524 q 497 581 554 581 q 401 553 444 581 q 332 475 357 525 q 307 364 307 425 q 336 253 307 303 q 413 176 365 204 q 514 147 460 147 z "},"c":{"ha":936,"x_min":38,"x_max":886,"o":"m 460 -26 q 235 26 332 -26 q 88 167 139 78 q 40 365 38 256 q 97 560 43 472 q 248 701 150 649 q 475 753 346 753 q 676 709 585 753 q 823 590 768 665 q 886 422 878 514 l 656 422 q 625 488 649 457 q 563 538 601 519 q 475 557 524 557 q 370 531 415 557 q 300 460 325 504 q 274 365 275 415 q 295 264 272 308 q 362 194 318 219 q 464 169 406 169 q 588 210 539 169 q 654 310 638 250 l 883 310 q 813 138 872 214 q 661 17 754 61 q 460 -26 568 -26 z "},"ć":{"ha":936,"x_min":38,"x_max":886,"o":"m 460 -26 q 235 26 332 -26 q 88 167 139 78 q 40 365 38 256 q 97 560 43 472 q 248 701 150 649 q 475 753 346 753 q 676 709 585 753 q 823 590 768 665 q 886 422 878 514 l 656 422 q 625 488 649 457 q 563 538 601 519 q 475 557 524 557 q 370 531 415 557 q 300 460 325 504 q 274 365 275 415 q 295 264 272 308 q 362 194 318 219 q 464 169 406 169 q 588 210 539 169 q 654 310 638 250 l 883 310 q 813 138 872 214 q 661 17 754 61 q 460 -26 568 -26 z "},"č":{"ha":936,"x_min":38,"x_max":886,"o":"m 460 -26 q 235 26 332 -26 q 88 167 139 78 q 40 365 38 256 q 97 560 43 472 q 248 701 150 649 q 475 753 346 753 q 676 709 585 753 q 823 590 768 665 q 886 422 878 514 l 656 422 q 625 488 649 457 q 563 538 601 519 q 475 557 524 557 q 370 531 415 557 q 300 460 325 504 q 274 365 275 415 q 295 264 272 308 q 362 194 318 219 q 464 169 406 169 q 588 210 539 169 q 654 310 638 250 l 883 310 q 813 138 872 214 q 661 17 754 61 q 460 -26 568 -26 z "},"ç":{"ha":936,"x_min":38,"x_max":886,"o":"m 189 -222 q 377 -237 314 -237 q 477 -224 440 -237 q 510 -179 514 -210 q 463 -147 507 -151 q 357 -144 419 -142 l 333 -144 l 407 50 l 544 58 l 521 -82 q 651 -93 596 -74 q 721 -171 707 -112 q 682 -312 740 -260 q 488 -380 624 -364 q 175 -367 351 -396 l 189 -222 m 460 -26 q 235 26 332 -26 q 88 167 139 78 q 40 365 38 256 q 97 560 43 472 q 248 701 150 649 q 475 753 346 753 q 676 709 585 753 q 823 590 768 665 q 886 422 878 514 l 656 422 q 625 488 649 457 q 563 538 601 519 q 475 557 524 557 q 370 531 415 557 q 300 460 325 504 q 274 365 275 415 q 295 264 272 308 q 362 194 318 219 q 464 169 406 169 q 588 210 539 169 q 654 310 638 250 l 883 310 q 813 138 872 214 q 661 17 754 61 q 460 -26 568 -26 z "},"ĉ":{"ha":936,"x_min":38,"x_max":886,"o":"m 460 -26 q 235 26 332 -26 q 88 167 139 78 q 40 365 38 256 q 97 560 43 472 q 248 701 150 649 q 475 753 346 753 q 676 709 585 753 q 823 590 768 665 q 886 422 878 514 l 656 422 q 625 488 649 457 q 563 538 601 519 q 475 557 524 557 q 370 531 415 557 q 300 460 325 504 q 274 365 275 415 q 295 264 272 308 q 362 194 318 219 q 464 169 406 169 q 588 210 539 169 q 654 310 638 250 l 883 310 q 813 138 872 214 q 661 17 754 61 q 460 -26 568 -26 z "},"ċ":{"ha":936,"x_min":38,"x_max":886,"o":"m 460 -26 q 235 26 332 -26 q 88 167 139 78 q 40 365 38 256 q 97 560 43 472 q 248 701 150 649 q 475 753 346 753 q 676 709 585 753 q 823 590 768 665 q 886 422 878 514 l 656 422 q 625 488 649 457 q 563 538 601 519 q 475 557 524 557 q 370 531 415 557 q 300 460 325 504 q 274 365 275 415 q 295 264 272 308 q 362 194 318 219 q 464 169 406 169 q 588 210 539 169 q 654 310 638 250 l 883 310 q 813 138 872 214 q 661 17 754 61 q 460 -26 568 -26 z "},"d":{"ha":975,"x_min":42,"x_max":924,"o":"m 386 -26 q 209 24 288 -26 q 86 165 131 75 q 42 364 42 254 q 90 560 42 471 q 223 701 139 649 q 406 753 307 753 q 582 701 504 753 q 703 561 660 650 q 746 364 746 472 q 695 167 743 257 q 566 26 647 78 q 386 -26 485 -26 m 465 147 q 565 176 518 147 q 642 253 613 204 q 672 364 671 303 q 647 475 672 425 q 578 553 622 525 q 481 581 535 581 q 378 552 424 581 q 304 474 332 524 q 276 363 276 424 q 301 252 276 301 q 369 175 326 203 q 465 147 413 147 m 671 1036 l 922 1036 l 924 0 l 672 0 l 671 1036 z "},"ð":{"ha":1018,"x_min":32,"x_max":985,"o":"m 504 -26 q 258 29 368 -26 q 90 181 149 85 q 40 393 32 276 q 146 619 51 532 q 376 725 240 707 q 636 688 513 743 q 163 1039 490 871 l 501 1039 q 753 854 643 960 q 924 628 864 749 q 983 386 985 507 q 921 176 982 271 q 751 28 860 82 q 504 -26 643 -26 m 508 178 q 623 204 574 178 q 699 276 672 231 q 731 381 726 322 q 707 483 732 438 q 634 556 682 529 q 521 582 586 582 q 404 556 456 582 q 324 484 353 531 q 294 381 296 438 q 319 277 293 324 q 393 204 344 231 q 508 178 442 178 m 182 872 l 811 1061 l 881 942 l 247 778 l 182 872 z "},"ď":{"ha":975,"x_min":42,"x_max":924,"o":"m 386 -26 q 209 24 288 -26 q 86 165 131 75 q 42 364 42 254 q 90 560 42 471 q 223 701 139 649 q 406 753 307 753 q 582 701 504 753 q 703 561 660 650 q 746 364 746 472 q 695 167 743 257 q 566 26 647 78 q 386 -26 485 -26 m 465 147 q 565 176 518 147 q 642 253 613 204 q 672 364 671 303 q 647 475 672 425 q 578 553 622 525 q 481 581 535 581 q 378 552 424 581 q 304 474 332 524 q 276 363 276 424 q 301 252 276 301 q 369 175 326 203 q 465 147 413 147 m 671 1036 l 922 1036 l 924 0 l 672 0 l 671 1036 m 49 1136 l 263 1136 l 369 1021 l 488 1136 l 728 1136 l 475 886 l 286 886 l 49 1136 z "},"đ":{"ha":975,"x_min":42,"x_max":1044,"o":"m 386 -26 q 209 24 288 -26 q 86 165 131 75 q 42 364 42 254 q 90 560 42 471 q 223 701 139 649 q 406 753 307 753 q 582 701 504 753 q 703 561 660 650 q 746 364 746 472 q 695 167 743 257 q 566 26 647 78 q 386 -26 485 -26 m 465 147 q 565 176 518 147 q 642 253 613 204 q 672 364 671 303 q 647 475 672 425 q 578 553 622 525 q 481 581 535 581 q 378 552 424 581 q 304 474 332 524 q 276 363 276 424 q 301 252 276 301 q 369 175 326 203 q 465 147 413 147 m 671 1036 l 922 1036 l 924 0 l 672 0 l 671 1036 m 460 975 l 1044 975 l 1044 794 l 460 794 l 460 975 z "},"e":{"ha":921,"x_min":31,"x_max":888,"o":"m 468 -26 q 235 24 333 -26 q 83 162 136 74 q 32 364 31 250 q 88 558 33 469 q 240 700 142 647 q 465 753 338 753 q 691 699 594 753 q 838 555 788 644 q 886 363 888 465 q 878 296 882 314 l 274 296 q 335 197 281 235 q 475 158 390 158 q 583 180 532 158 q 661 233 633 201 l 840 128 q 680 16 778 58 q 468 -26 582 -26 m 644 431 q 621 499 642 467 q 562 551 600 532 q 471 569 524 569 q 344 532 394 569 q 278 431 293 494 l 644 431 z "},"é":{"ha":921,"x_min":31,"x_max":888,"o":"m 468 -26 q 235 24 333 -26 q 83 162 136 74 q 32 364 31 250 q 88 558 33 469 q 240 700 142 647 q 465 753 338 753 q 691 699 594 753 q 838 555 788 644 q 886 363 888 465 q 878 296 882 314 l 274 296 q 335 197 281 235 q 475 158 390 158 q 583 180 532 158 q 661 233 633 201 l 840 128 q 680 16 778 58 q 468 -26 582 -26 m 644 431 q 621 499 642 467 q 562 551 600 532 q 471 569 524 569 q 344 532 394 569 q 278 431 293 494 l 644 431 z "},"ĕ":{"ha":921,"x_min":31,"x_max":888,"o":"m 468 -26 q 235 24 333 -26 q 83 162 136 74 q 32 364 31 250 q 88 558 33 469 q 240 700 142 647 q 465 753 338 753 q 691 699 594 753 q 838 555 788 644 q 886 363 888 465 q 878 296 882 314 l 274 296 q 335 197 281 235 q 475 158 390 158 q 583 180 532 158 q 661 233 633 201 l 840 128 q 680 16 778 58 q 468 -26 582 -26 m 644 431 q 621 499 642 467 q 562 551 600 532 q 471 569 524 569 q 344 532 394 569 q 278 431 293 494 l 644 431 z "},"ě":{"ha":921,"x_min":31,"x_max":888,"o":"m 468 -26 q 235 24 333 -26 q 83 162 136 74 q 32 364 31 250 q 88 558 33 469 q 240 700 142 647 q 465 753 338 753 q 691 699 594 753 q 838 555 788 644 q 886 363 888 465 q 878 296 882 314 l 274 296 q 335 197 281 235 q 475 158 390 158 q 583 180 532 158 q 661 233 633 201 l 840 128 q 680 16 778 58 q 468 -26 582 -26 m 644 431 q 621 499 642 467 q 562 551 600 532 q 471 569 524 569 q 344 532 394 569 q 278 431 293 494 l 644 431 z "},"ê":{"ha":921,"x_min":31,"x_max":888,"o":"m 468 -26 q 235 24 333 -26 q 83 162 136 74 q 32 364 31 250 q 88 558 33 469 q 240 700 142 647 q 465 753 338 753 q 691 699 594 753 q 838 555 788 644 q 886 363 888 465 q 878 296 882 314 l 274 296 q 335 197 281 235 q 475 158 390 158 q 583 180 532 158 q 661 233 633 201 l 840 128 q 680 16 778 58 q 468 -26 582 -26 m 644 431 q 621 499 642 467 q 562 551 600 532 q 471 569 524 569 q 344 532 394 569 q 278 431 293 494 l 644 431 z "},"ë":{"ha":921,"x_min":31,"x_max":888,"o":"m 468 -26 q 235 24 333 -26 q 83 162 136 74 q 32 364 31 250 q 88 558 33 469 q 240 700 142 647 q 465 753 338 753 q 691 699 594 753 q 838 555 788 644 q 886 363 888 465 q 878 296 882 314 l 274 296 q 335 197 281 235 q 475 158 390 158 q 583 180 532 158 q 661 233 633 201 l 840 128 q 680 16 778 58 q 468 -26 582 -26 m 644 431 q 621 499 642 467 q 562 551 600 532 q 471 569 524 569 q 344 532 394 569 q 278 431 293 494 l 644 431 z "},"ė":{"ha":921,"x_min":31,"x_max":888,"o":"m 468 -26 q 235 24 333 -26 q 83 162 136 74 q 32 364 31 250 q 88 558 33 469 q 240 700 142 647 q 465 753 338 753 q 691 699 594 753 q 838 555 788 644 q 886 363 888 465 q 878 296 882 314 l 274 296 q 335 197 281 235 q 475 158 390 158 q 583 180 532 158 q 661 233 633 201 l 840 128 q 680 16 778 58 q 468 -26 582 -26 m 644 431 q 621 499 642 467 q 562 551 600 532 q 471 569 524 569 q 344 532 394 569 q 278 431 293 494 l 644 431 z "},"è":{"ha":921,"x_min":31,"x_max":888,"o":"m 468 -26 q 235 24 333 -26 q 83 162 136 74 q 32 364 31 250 q 88 558 33 469 q 240 700 142 647 q 465 753 338 753 q 691 699 594 753 q 838 555 788 644 q 886 363 888 465 q 878 296 882 314 l 274 296 q 335 197 281 235 q 475 158 390 158 q 583 180 532 158 q 661 233 633 201 l 840 128 q 680 16 778 58 q 468 -26 582 -26 m 644 431 q 621 499 642 467 q 562 551 600 532 q 471 569 524 569 q 344 532 394 569 q 278 431 293 494 l 644 431 z "},"ē":{"ha":921,"x_min":31,"x_max":888,"o":"m 468 -26 q 235 24 333 -26 q 83 162 136 74 q 32 364 31 250 q 88 558 33 469 q 240 700 142 647 q 465 753 338 753 q 691 699 594 753 q 838 555 788 644 q 886 363 888 465 q 878 296 882 314 l 274 296 q 335 197 281 235 q 475 158 390 158 q 583 180 532 158 q 661 233 633 201 l 840 128 q 680 16 778 58 q 468 -26 582 -26 m 644 431 q 621 499 642 467 q 562 551 600 532 q 471 569 524 569 q 344 532 394 569 q 278 431 293 494 l 644 431 z "},"ę":{"ha":921,"x_min":31,"x_max":888,"o":"m 664 -389 q 333 -410 454 -432 q 185 -307 213 -387 q 190 -199 167 -257 q 288 -77 214 -142 q 493 58 363 -12 q 557 47 538 65 q 575 -1 576 29 q 417 -111 475 -54 q 385 -210 358 -168 q 455 -240 401 -237 q 575 -229 508 -243 l 664 -389 m 468 -26 q 235 24 333 -26 q 83 162 136 74 q 32 364 31 250 q 88 558 33 469 q 240 700 142 647 q 465 753 338 753 q 691 699 594 753 q 838 555 788 644 q 886 363 888 465 q 878 296 882 314 l 274 296 q 335 197 281 235 q 475 158 390 158 q 583 180 532 158 q 661 233 633 201 l 840 128 q 680 16 778 58 q 468 -26 582 -26 m 644 431 q 621 499 642 467 q 562 551 600 532 q 471 569 524 569 q 344 532 394 569 q 278 431 293 494 l 644 431 z "},"ẽ":{"ha":921,"x_min":31,"x_max":888,"o":"m 468 -26 q 235 24 333 -26 q 83 162 136 74 q 32 364 31 250 q 88 558 33 469 q 240 700 142 647 q 465 753 338 753 q 691 699 594 753 q 838 555 788 644 q 886 363 888 465 q 878 296 882 314 l 274 296 q 335 197 281 235 q 475 158 390 158 q 583 180 532 158 q 661 233 633 201 l 840 128 q 680 16 778 58 q 468 -26 582 -26 m 644 431 q 621 499 642 467 q 562 551 600 532 q 471 569 524 569 q 344 532 394 569 q 278 431 293 494 l 644 431 z "},"f":{"ha":743,"x_min":-4,"x_max":729,"o":"m 200 694 q 246 870 200 792 q 372 992 292 949 q 551 1036 453 1036 l 646 1036 l 644 840 l 624 840 q 499 806 544 840 q 453 703 453 772 l 453 0 l 200 0 l 200 694 m -4 661 l 729 661 l 729 479 l -4 479 l -4 661 z "},"g":{"ha":967,"x_min":42,"x_max":907,"o":"m 513 -399 q 288 -344 388 -399 q 131 -190 189 -290 l 333 -99 q 410 -171 367 -146 q 499 -194 453 -196 q 617 -143 576 -194 q 658 -7 657 -92 l 658 726 l 907 726 l 907 21 q 861 -197 907 -103 q 726 -345 815 -292 q 513 -399 638 -399 m 376 -26 q 204 26 282 -26 q 84 169 126 79 q 44 364 42 258 q 97 560 47 471 q 228 701 146 649 q 406 753 310 753 q 576 701 499 753 q 695 560 653 649 q 735 365 738 471 q 682 169 732 258 q 551 26 632 79 q 376 -26 469 -26 m 461 147 q 557 176 513 147 q 630 253 601 204 q 660 365 658 303 q 637 474 661 424 q 569 552 613 524 q 475 581 526 581 q 380 552 424 581 q 308 473 336 524 q 279 363 281 422 q 301 253 278 303 q 367 176 325 204 q 461 147 410 147 z "},"ğ":{"ha":967,"x_min":42,"x_max":907,"o":"m 513 -399 q 288 -344 388 -399 q 131 -190 189 -290 l 333 -99 q 410 -171 367 -146 q 499 -194 453 -196 q 617 -143 576 -194 q 658 -7 657 -92 l 658 726 l 907 726 l 907 21 q 861 -197 907 -103 q 726 -345 815 -292 q 513 -399 638 -399 m 376 -26 q 204 26 282 -26 q 84 169 126 79 q 44 364 42 258 q 97 560 47 471 q 228 701 146 649 q 406 753 310 753 q 576 701 499 753 q 695 560 653 649 q 735 365 738 471 q 682 169 732 258 q 551 26 632 79 q 376 -26 469 -26 m 461 147 q 557 176 513 147 q 630 253 601 204 q 660 365 658 303 q 637 474 661 424 q 569 552 613 524 q 475 581 526 581 q 380 552 424 581 q 308 473 336 524 q 279 363 281 422 q 301 253 278 303 q 367 176 325 204 q 461 147 410 147 z "},"ǧ":{"ha":967,"x_min":42,"x_max":907,"o":"m 513 -399 q 288 -344 388 -399 q 131 -190 189 -290 l 333 -99 q 410 -171 367 -146 q 499 -194 453 -196 q 617 -143 576 -194 q 658 -7 657 -92 l 658 726 l 907 726 l 907 21 q 861 -197 907 -103 q 726 -345 815 -292 q 513 -399 638 -399 m 376 -26 q 204 26 282 -26 q 84 169 126 79 q 44 364 42 258 q 97 560 47 471 q 228 701 146 649 q 406 753 310 753 q 576 701 499 753 q 695 560 653 649 q 735 365 738 471 q 682 169 732 258 q 551 26 632 79 q 376 -26 469 -26 m 461 147 q 557 176 513 147 q 630 253 601 204 q 660 365 658 303 q 637 474 661 424 q 569 552 613 524 q 475 581 526 581 q 380 552 424 581 q 308 473 336 524 q 279 363 281 422 q 301 253 278 303 q 367 176 325 204 q 461 147 410 147 z "},"ĝ":{"ha":967,"x_min":42,"x_max":907,"o":"m 513 -399 q 288 -344 388 -399 q 131 -190 189 -290 l 333 -99 q 410 -171 367 -146 q 499 -194 453 -196 q 617 -143 576 -194 q 658 -7 657 -92 l 658 726 l 907 726 l 907 21 q 861 -197 907 -103 q 726 -345 815 -292 q 513 -399 638 -399 m 376 -26 q 204 26 282 -26 q 84 169 126 79 q 44 364 42 258 q 97 560 47 471 q 228 701 146 649 q 406 753 310 753 q 576 701 499 753 q 695 560 653 649 q 735 365 738 471 q 682 169 732 258 q 551 26 632 79 q 376 -26 469 -26 m 461 147 q 557 176 513 147 q 630 253 601 204 q 660 365 658 303 q 637 474 661 424 q 569 552 613 524 q 475 581 526 581 q 380 552 424 581 q 308 473 336 524 q 279 363 281 422 q 301 253 278 303 q 367 176 325 204 q 461 147 410 147 z "},"ġ":{"ha":967,"x_min":42,"x_max":907,"o":"m 513 -399 q 288 -344 388 -399 q 131 -190 189 -290 l 333 -99 q 410 -171 367 -146 q 499 -194 453 -196 q 617 -143 576 -194 q 658 -7 657 -92 l 658 726 l 907 726 l 907 21 q 861 -197 907 -103 q 726 -345 815 -292 q 513 -399 638 -399 m 376 -26 q 204 26 282 -26 q 84 169 126 79 q 44 364 42 258 q 97 560 47 471 q 228 701 146 649 q 406 753 310 753 q 576 701 499 753 q 695 560 653 649 q 735 365 738 471 q 682 169 732 258 q 551 26 632 79 q 376 -26 469 -26 m 461 147 q 557 176 513 147 q 630 253 601 204 q 660 365 658 303 q 637 474 661 424 q 569 552 613 524 q 475 581 526 581 q 380 552 424 581 q 308 473 336 524 q 279 363 281 422 q 301 253 278 303 q 367 176 325 204 q 461 147 410 147 z "},"ḡ":{"ha":967,"x_min":42,"x_max":907,"o":"m 513 -399 q 288 -344 388 -399 q 131 -190 189 -290 l 333 -99 q 410 -171 367 -146 q 499 -194 453 -196 q 617 -143 576 -194 q 658 -7 657 -92 l 658 726 l 907 726 l 907 21 q 861 -197 907 -103 q 726 -345 815 -292 q 513 -399 638 -399 m 376 -26 q 204 26 282 -26 q 84 169 126 79 q 44 364 42 258 q 97 560 47 471 q 228 701 146 649 q 406 753 310 753 q 576 701 499 753 q 695 560 653 649 q 735 365 738 471 q 682 169 732 258 q 551 26 632 79 q 376 -26 469 -26 m 461 147 q 557 176 513 147 q 630 253 601 204 q 660 365 658 303 q 637 474 661 424 q 569 552 613 524 q 475 581 526 581 q 380 552 424 581 q 308 473 336 524 q 279 363 281 422 q 301 253 278 303 q 367 176 325 204 q 461 147 410 147 m 189 978 l 774 978 l 774 804 l 189 804 l 189 978 z "},"h":{"ha":975,"x_min":58,"x_max":917,"o":"m 663 403 q 626 518 663 475 q 522 561 590 561 q 416 531 464 561 q 340 443 368 500 q 311 311 313 386 l 238 339 q 293 553 240 460 q 433 700 346 647 q 626 753 521 753 q 841 668 765 753 q 917 425 917 583 l 917 0 l 663 0 l 663 403 m 58 1036 l 311 1036 l 311 0 l 58 0 l 58 1036 z "},"ħ":{"ha":975,"x_min":-40,"x_max":917,"o":"m 663 403 q 626 518 663 475 q 522 561 590 561 q 416 531 464 561 q 340 443 368 500 q 311 311 313 386 l 238 339 q 293 553 240 460 q 433 700 346 647 q 626 753 521 753 q 841 668 765 753 q 917 425 917 583 l 917 0 l 663 0 l 663 403 m 58 1036 l 311 1036 l 311 0 l 58 0 l 58 1036 m -40 976 l 544 976 l 544 782 l -40 782 l -40 976 z "},"ĥ":{"ha":975,"x_min":58,"x_max":917,"o":"m 663 403 q 626 518 663 475 q 522 561 590 561 q 416 531 464 561 q 340 443 368 500 q 311 311 313 386 l 238 339 q 293 553 240 460 q 433 700 346 647 q 626 753 521 753 q 841 668 765 753 q 917 425 917 583 l 917 0 l 663 0 l 663 403 m 58 1036 l 311 1036 l 311 0 l 58 0 l 58 1036 m 483 1157 l 671 1157 l 911 907 l 696 907 l 586 1022 l 469 907 l 232 907 l 483 1157 z "},"i":{"ha":394,"x_min":15,"x_max":375,"o":"m 69 726 l 324 726 l 324 0 l 69 0 l 69 726 m 196 811 q 106 832 147 811 q 40 888 64 853 q 15 964 15 924 q 40 1040 15 1006 q 106 1097 64 1075 q 196 1118 147 1118 q 285 1097 244 1118 q 351 1040 326 1075 q 375 964 375 1006 q 351 888 375 924 q 285 832 326 853 q 196 811 244 811 z "},"ı":{"ha":394,"x_min":69,"x_max":324,"o":"m 69 726 l 324 726 l 324 0 l 69 0 l 69 726 z "},"í":{"ha":394,"x_min":29,"x_max":463,"o":"m 69 726 l 324 726 l 324 0 l 69 0 l 69 726 z "},"ĭ":{"ha":394,"x_min":-31,"x_max":432,"o":"m 69 726 l 324 726 l 324 0 l 69 0 l 69 726 m 199 790 q 77 816 129 790 q -3 888 25 842 q -31 989 -31 933 l 104 989 q 125 934 103 954 q 199 914 147 914 q 272 934 249 914 q 293 989 294 954 l 431 989 q 406 887 432 932 q 326 816 379 842 q 199 790 274 790 z "},"î":{"ha":394,"x_min":-89,"x_max":465,"o":"m 69 726 l 324 726 l 324 0 l 69 0 l 69 726 m 115 1051 l 269 1051 l 465 801 l 289 801 l 200 917 l 104 801 l -89 801 l 115 1051 z "},"ï":{"ha":394,"x_min":-133,"x_max":531,"o":"m 69 726 l 324 726 l 324 0 l 69 0 l 69 726 z "},"ì":{"ha":394,"x_min":-51,"x_max":381,"o":"m 69 726 l 324 726 l 324 0 l 69 0 l 69 726 z "},"ĳ":{"ha":804,"x_min":15,"x_max":771,"o":"m 69 726 l 324 726 l 324 0 l 69 0 l 69 726 m 196 811 q 106 832 147 811 q 40 888 64 853 q 15 964 15 924 q 40 1040 15 1006 q 106 1097 64 1075 q 196 1118 147 1118 q 285 1097 244 1118 q 351 1040 326 1075 q 375 964 375 1006 q 351 888 375 924 q 285 832 326 853 q 196 811 244 811 m 268 -114 l 296 -114 q 424 -72 379 -114 q 469 51 469 -29 l 469 726 l 721 726 l 721 60 q 679 -137 721 -53 q 559 -265 638 -221 q 376 -310 481 -310 l 268 -310 l 268 -114 m 592 811 q 501 832 542 811 q 435 888 460 853 q 411 964 411 924 q 435 1040 411 1006 q 501 1097 460 1075 q 592 1118 542 1118 q 681 1097 640 1118 q 747 1040 722 1075 q 771 964 771 1006 q 747 888 771 924 q 681 832 722 853 q 592 811 640 811 z "},"ī":{"ha":394,"x_min":-94,"x_max":490,"o":"m 69 726 l 324 726 l 324 0 l 69 0 l 69 726 z "},"į":{"ha":394,"x_min":-117,"x_max":379,"o":"m 379 -389 q 50 -410 171 -432 q -99 -307 -71 -387 q -93 -199 -117 -257 q 5 -77 -69 -142 q 210 58 79 -12 q 274 47 254 65 q 292 -1 293 29 q 133 -111 192 -54 q 100 -210 75 -168 q 172 -240 118 -237 q 292 -229 225 -243 l 379 -389 m 69 726 l 324 726 l 324 0 l 69 0 l 69 726 m 196 811 q 106 832 147 811 q 40 888 64 853 q 15 964 15 924 q 40 1040 15 1006 q 106 1097 64 1075 q 196 1118 147 1118 q 285 1097 244 1118 q 351 1040 326 1075 q 375 964 375 1006 q 351 888 375 924 q 285 832 326 853 q 196 811 244 811 z "},"ĩ":{"ha":394,"x_min":-43,"x_max":468,"o":"m 69 726 l 324 726 l 324 0 l 69 0 l 69 726 m -32 804 q -27 931 -43 878 q 24 1013 -11 985 q 108 1040 58 1040 q 169 1028 144 1040 q 221 994 193 1015 q 248 974 236 982 q 272 967 260 967 q 316 986 303 967 q 325 1036 329 1006 l 457 1036 q 449 911 468 964 q 392 831 431 858 q 304 804 354 804 q 246 816 268 804 q 199 850 224 828 q 171 872 182 865 q 146 879 160 878 q 107 858 118 878 q 101 804 96 839 l -32 804 z "},"j":{"ha":411,"x_min":-126,"x_max":376,"o":"m -126 -114 l -99 -114 q 30 -72 -15 -114 q 75 51 75 -29 l 75 726 l 326 726 l 326 60 q 285 -137 326 -53 q 165 -265 243 -221 q -18 -310 86 -310 l -126 -310 l -126 -114 m 197 811 q 106 832 147 811 q 41 888 65 853 q 17 964 17 924 q 41 1040 17 1006 q 106 1097 65 1075 q 197 1118 147 1118 q 287 1097 246 1118 q 352 1040 328 1075 q 376 964 376 1006 q 352 888 376 924 q 287 832 328 853 q 197 811 246 811 z "},"ȷ":{"ha":411,"x_min":-126,"x_max":326,"o":"m -126 -114 l -99 -114 q 30 -72 -15 -114 q 75 51 75 -29 l 75 726 l 326 726 l 326 60 q 285 -137 326 -53 q 165 -265 243 -221 q -18 -310 86 -310 l -126 -310 l -126 -114 z "},"ĵ":{"ha":411,"x_min":-151,"x_max":528,"o":"m -126 -114 l -99 -114 q 30 -72 -15 -114 q 75 51 75 -29 l 75 726 l 326 726 l 326 60 q 285 -137 326 -53 q 165 -265 243 -221 q -18 -310 86 -310 l -126 -310 l -126 -114 m 100 1017 l 288 1017 l 528 767 l 313 767 l 203 882 l 86 767 l -151 767 l 100 1017 z "},"k":{"ha":933,"x_min":65,"x_max":993,"o":"m 318 333 l 318 0 l 65 0 l 65 1036 l 318 1036 l 318 394 l 650 726 l 985 726 l 599 372 l 993 0 l 661 0 l 318 333 z "},"ĸ":{"ha":933,"x_min":65,"x_max":993,"o":"m 318 333 l 318 0 l 65 0 l 65 726 l 318 726 l 318 394 l 650 726 l 985 726 l 599 372 l 993 0 l 661 0 l 318 333 z "},"l":{"ha":397,"x_min":69,"x_max":321,"o":"m 69 1036 l 321 1036 l 321 0 l 69 0 l 69 1036 z "},"ĺ":{"ha":397,"x_min":29,"x_max":463,"o":"m 69 1036 l 79 1036 l 29 1125 l 357 1339 l 463 1154 l 139 1036 l 321 1036 l 321 0 l 69 0 l 69 1036 z "},"ľ":{"ha":397,"x_min":-86,"x_max":493,"o":"m 69 1036 l 321 1036 l 321 0 l 69 0 l 69 1036 m 96 1279 l 188 1179 l 289 1279 l 493 1279 l 278 1061 l 117 1061 l -86 1279 l 96 1279 z "},"ŀ":{"ha":681,"x_min":69,"x_max":679,"o":"m 69 1036 l 321 1036 l 321 0 l 69 0 l 69 1036 m 533 385 q 429 422 471 385 q 388 515 388 460 q 428 609 388 571 q 531 647 468 647 q 637 609 594 647 q 679 515 679 571 q 638 422 679 460 q 533 385 597 385 z "},"ł":{"ha":397,"x_min":-75,"x_max":458,"o":"m 69 681 l -75 647 l -75 840 l 69 872 l 69 1036 l 321 1036 l 321 928 l 458 960 l 458 767 l 321 736 l 321 0 l 69 0 l 69 681 z "},"m":{"ha":1465,"x_min":71,"x_max":1401,"o":"m 1149 396 q 1120 519 1149 476 q 1031 561 1092 561 q 910 501 954 561 q 863 329 865 440 l 789 356 q 837 567 792 476 q 957 705 882 657 q 1126 753 1032 753 q 1329 669 1257 753 q 1401 433 1401 586 l 1401 0 l 1149 0 l 1149 396 m 71 726 l 322 726 l 322 0 l 71 0 l 71 726 m 608 396 q 581 518 608 475 q 493 561 554 561 q 372 499 418 561 q 322 329 325 438 l 250 356 q 298 567 253 476 q 418 705 343 657 q 586 753 493 753 q 792 666 721 753 q 863 418 863 579 l 863 0 l 608 0 l 608 396 z "},"n":{"ha":990,"x_min":71,"x_max":929,"o":"m 675 403 q 639 518 675 475 q 533 561 603 561 q 428 531 476 561 q 352 443 381 500 q 322 311 324 386 l 250 339 q 306 553 253 458 q 446 700 358 647 q 638 753 533 753 q 853 668 778 753 q 929 425 929 583 l 929 0 l 675 0 l 675 403 m 71 726 l 322 726 l 322 0 l 71 0 l 71 726 z "},"ń":{"ha":990,"x_min":71,"x_max":929,"o":"m 675 403 q 639 518 675 475 q 533 561 603 561 q 428 531 476 561 q 352 443 381 500 q 322 311 324 386 l 250 339 q 306 553 253 458 q 446 700 358 647 q 638 753 533 753 q 853 668 778 753 q 929 425 929 583 l 929 0 l 675 0 l 675 403 m 71 726 l 322 726 l 322 0 l 71 0 l 71 726 z "},"ŉ":{"ha":990,"x_min":71,"x_max":929,"o":"m 675 403 q 639 518 675 475 q 533 561 603 561 q 428 531 476 561 q 352 443 381 500 q 322 311 324 386 l 250 339 q 306 553 253 458 q 446 700 358 647 q 638 753 533 753 q 853 668 778 753 q 929 425 929 583 l 929 0 l 675 0 l 675 403 m 71 726 l 322 726 l 322 0 l 71 0 l 71 726 z "},"ň":{"ha":990,"x_min":71,"x_max":929,"o":"m 675 403 q 639 518 675 475 q 533 561 603 561 q 428 531 476 561 q 352 443 381 500 q 322 311 324 386 l 250 339 q 306 553 253 458 q 446 700 358 647 q 638 753 533 753 q 853 668 778 753 q 929 425 929 583 l 929 0 l 675 0 l 675 403 m 71 726 l 322 726 l 322 0 l 71 0 l 71 726 z "},"ñ":{"ha":990,"x_min":71,"x_max":929,"o":"m 675 403 q 639 518 675 475 q 533 561 603 561 q 428 531 476 561 q 352 443 381 500 q 322 311 324 386 l 250 339 q 306 553 253 458 q 446 700 358 647 q 638 753 533 753 q 853 668 778 753 q 929 425 929 583 l 929 0 l 675 0 l 675 403 m 71 726 l 322 726 l 322 0 l 71 0 l 71 726 z "},"ŋ":{"ha":990,"x_min":71,"x_max":929,"o":"m 675 417 q 659 488 675 456 q 611 541 643 521 q 533 561 579 561 q 428 531 476 561 q 352 443 381 500 q 322 311 324 386 l 250 339 q 304 553 253 460 q 442 700 356 647 q 636 753 529 753 q 851 674 772 753 q 929 465 929 596 l 929 167 l 675 167 l 675 417 m 71 726 l 322 726 l 322 0 l 71 0 l 71 726 m 476 -114 l 504 -114 q 635 -76 594 -114 q 676 33 676 -39 l 676 288 l 929 293 l 929 -28 q 887 -176 929 -111 q 767 -275 844 -240 q 585 -310 689 -310 l 476 -310 l 476 -114 z "},"o":{"ha":953,"x_min":38,"x_max":919,"o":"m 475 -26 q 249 26 349 -26 q 94 167 150 78 q 39 364 38 257 q 98 561 40 472 q 256 701 156 650 q 482 753 357 753 q 712 701 613 753 q 865 562 811 650 q 919 365 919 474 q 860 167 918 257 q 702 26 803 78 q 475 -26 601 -26 m 472 165 q 577 192 531 165 q 650 263 624 218 q 676 364 676 308 q 655 466 678 421 q 588 537 632 511 q 483 563 543 563 q 378 536 425 563 q 306 465 332 510 q 276 365 279 419 q 299 264 275 310 q 369 192 324 218 q 472 165 414 165 z "},"ó":{"ha":953,"x_min":38,"x_max":919,"o":"m 475 -26 q 249 26 349 -26 q 94 167 150 78 q 39 364 38 257 q 98 561 40 472 q 256 701 156 650 q 482 753 357 753 q 712 701 613 753 q 865 562 811 650 q 919 365 919 474 q 860 167 918 257 q 702 26 803 78 q 475 -26 601 -26 m 472 165 q 577 192 531 165 q 650 263 624 218 q 676 364 676 308 q 655 466 678 421 q 588 537 632 511 q 483 563 543 563 q 378 536 425 563 q 306 465 332 510 q 276 365 279 419 q 299 264 275 310 q 369 192 324 218 q 472 165 414 165 z "},"ŏ":{"ha":953,"x_min":38,"x_max":919,"o":"m 475 -26 q 249 26 349 -26 q 94 167 150 78 q 39 364 38 257 q 98 561 40 472 q 256 701 156 650 q 482 753 357 753 q 712 701 613 753 q 865 562 811 650 q 919 365 919 474 q 860 167 918 257 q 702 26 803 78 q 475 -26 601 -26 m 472 165 q 577 192 531 165 q 650 263 624 218 q 676 364 676 308 q 655 466 678 421 q 588 537 632 511 q 483 563 543 563 q 378 536 425 563 q 306 465 332 510 q 276 365 279 419 q 299 264 275 310 q 369 192 324 218 q 472 165 414 165 z "},"ô":{"ha":953,"x_min":38,"x_max":919,"o":"m 475 -26 q 249 26 349 -26 q 94 167 150 78 q 39 364 38 257 q 98 561 40 472 q 256 701 156 650 q 482 753 357 753 q 712 701 613 753 q 865 562 811 650 q 919 365 919 474 q 860 167 918 257 q 702 26 803 78 q 475 -26 601 -26 m 472 165 q 577 192 531 165 q 650 263 624 218 q 676 364 676 308 q 655 466 678 421 q 588 537 632 511 q 483 563 543 563 q 378 536 425 563 q 306 465 332 510 q 276 365 279 419 q 299 264 275 310 q 369 192 324 218 q 472 165 414 165 z "},"ö":{"ha":953,"x_min":38,"x_max":919,"o":"m 475 -26 q 249 26 349 -26 q 94 167 150 78 q 39 364 38 257 q 98 561 40 472 q 256 701 156 650 q 482 753 357 753 q 712 701 613 753 q 865 562 811 650 q 919 365 919 474 q 860 167 918 257 q 702 26 803 78 q 475 -26 601 -26 m 472 165 q 577 192 531 165 q 650 263 624 218 q 676 364 676 308 q 655 466 678 421 q 588 537 632 511 q 483 563 543 563 q 378 536 425 563 q 306 465 332 510 q 276 365 279 419 q 299 264 275 310 q 369 192 324 218 q 472 165 414 165 z "},"ò":{"ha":953,"x_min":38,"x_max":919,"o":"m 475 -26 q 249 26 349 -26 q 94 167 150 78 q 39 364 38 257 q 98 561 40 472 q 256 701 156 650 q 482 753 357 753 q 712 701 613 753 q 865 562 811 650 q 919 365 919 474 q 860 167 918 257 q 702 26 803 78 q 475 -26 601 -26 m 472 165 q 577 192 531 165 q 650 263 624 218 q 676 364 676 308 q 655 466 678 421 q 588 537 632 511 q 483 563 543 563 q 378 536 425 563 q 306 465 332 510 q 276 365 279 419 q 299 264 275 310 q 369 192 324 218 q 472 165 414 165 z "},"ő":{"ha":953,"x_min":38,"x_max":919,"o":"m 475 -26 q 249 26 349 -26 q 94 167 150 78 q 39 364 38 257 q 98 561 40 472 q 256 701 156 650 q 482 753 357 753 q 712 701 613 753 q 865 562 811 650 q 919 365 919 474 q 860 167 918 257 q 702 26 803 78 q 475 -26 601 -26 m 472 165 q 577 192 531 165 q 650 263 624 218 q 676 364 676 308 q 655 466 678 421 q 588 537 632 511 q 483 563 543 563 q 378 536 425 563 q 306 465 332 510 q 276 365 279 419 q 299 264 275 310 q 369 192 324 218 q 472 165 414 165 z "},"ō":{"ha":953,"x_min":38,"x_max":919,"o":"m 475 -26 q 249 26 349 -26 q 94 167 150 78 q 39 364 38 257 q 98 561 40 472 q 256 701 156 650 q 482 753 357 753 q 712 701 613 753 q 865 562 811 650 q 919 365 919 474 q 860 167 918 257 q 702 26 803 78 q 475 -26 601 -26 m 472 165 q 577 192 531 165 q 650 263 624 218 q 676 364 676 308 q 655 466 678 421 q 588 537 632 511 q 483 563 543 563 q 378 536 425 563 q 306 465 332 510 q 276 365 279 419 q 299 264 275 310 q 369 192 324 218 q 472 165 414 165 z "},"ø":{"ha":953,"x_min":38,"x_max":919,"o":"m 475 -26 q 249 26 349 -26 q 94 167 150 78 q 39 364 38 257 q 98 561 40 472 q 256 701 156 650 q 482 753 357 753 q 712 701 613 753 q 865 562 811 650 q 919 365 919 474 q 860 167 918 257 q 702 26 803 78 q 475 -26 601 -26 m 472 165 q 577 192 531 165 q 650 263 624 218 q 676 364 676 308 q 655 466 678 421 q 588 537 632 511 q 483 563 543 563 q 378 536 425 563 q 306 465 332 510 q 276 365 279 419 q 299 264 275 310 q 369 192 324 218 q 472 165 414 165 m 629 763 l 851 763 l 333 -24 l 114 -24 l 629 763 z "},"ǿ":{"ha":953,"x_min":38,"x_max":919,"o":"m 475 -26 q 249 26 349 -26 q 94 167 150 78 q 39 364 38 257 q 98 561 40 472 q 256 701 156 650 q 482 753 357 753 q 712 701 613 753 q 865 562 811 650 q 919 365 919 474 q 860 167 918 257 q 702 26 803 78 q 475 -26 601 -26 m 472 165 q 577 192 531 165 q 650 263 624 218 q 676 364 676 308 q 655 466 678 421 q 588 537 632 511 q 483 563 543 563 q 378 536 425 563 q 306 465 332 510 q 276 365 279 419 q 299 264 275 310 q 369 192 324 218 q 472 165 414 165 m 629 763 l 851 763 l 333 -24 l 114 -24 l 629 763 z "},"õ":{"ha":953,"x_min":38,"x_max":919,"o":"m 475 -26 q 249 26 349 -26 q 94 167 150 78 q 39 364 38 257 q 98 561 40 472 q 256 701 156 650 q 482 753 357 753 q 712 701 613 753 q 865 562 811 650 q 919 365 919 474 q 860 167 918 257 q 702 26 803 78 q 475 -26 601 -26 m 472 165 q 577 192 531 165 q 650 263 624 218 q 676 364 676 308 q 655 466 678 421 q 588 537 632 511 q 483 563 543 563 q 378 536 425 563 q 306 465 332 510 q 276 365 279 419 q 299 264 275 310 q 369 192 324 218 q 472 165 414 165 z "},"œ":{"ha":1571,"x_min":38,"x_max":1536,"o":"m 475 -26 q 249 26 349 -26 q 94 167 150 78 q 39 364 38 257 q 98 561 40 472 q 256 701 156 650 q 482 753 357 753 q 712 701 613 753 q 865 562 811 650 q 919 365 919 474 q 860 167 918 257 q 702 26 803 78 q 475 -26 601 -26 m 472 165 q 577 192 531 165 q 650 263 624 218 q 676 364 676 308 q 655 466 678 421 q 588 537 632 511 q 483 563 543 563 q 378 536 425 563 q 306 465 332 510 q 276 365 279 419 q 299 264 275 310 q 369 192 324 218 q 472 165 414 165 m 1117 -26 q 883 24 982 -26 q 732 162 785 74 q 681 364 679 250 q 736 558 682 469 q 888 700 790 647 q 1114 753 986 753 q 1340 699 1243 753 q 1486 555 1436 644 q 1535 363 1536 465 q 1526 296 1531 314 l 922 296 q 984 197 929 235 q 1124 158 1039 158 q 1231 180 1181 158 q 1310 233 1282 201 l 1489 128 q 1328 16 1426 58 q 1117 -26 1231 -26 m 1293 431 q 1269 499 1290 467 q 1210 551 1249 532 q 1119 569 1172 569 q 992 532 1043 569 q 926 431 942 494 l 1293 431 z "},"p":{"ha":988,"x_min":60,"x_max":940,"o":"m 578 -26 q 401 26 479 -26 q 279 167 322 78 q 238 363 236 256 q 285 559 238 469 q 416 701 333 649 q 597 753 499 753 q 773 702 694 753 q 896 562 851 651 q 940 363 940 472 q 891 167 940 256 q 758 26 842 78 q 578 -26 675 -26 m 60 726 l 311 726 l 311 -310 l 61 -310 l 60 726 m 501 146 q 603 174 557 146 q 677 253 650 203 q 704 365 704 303 q 680 475 704 426 q 613 551 656 524 q 517 579 571 579 q 415 551 463 579 q 340 473 368 522 q 311 364 311 424 q 335 253 311 303 q 404 174 360 203 q 501 146 449 146 z "},"þ":{"ha":988,"x_min":60,"x_max":940,"o":"m 578 -26 q 401 26 479 -26 q 279 167 322 78 q 238 363 236 256 q 285 559 238 469 q 416 701 333 649 q 597 753 499 753 q 773 702 694 753 q 896 562 851 651 q 940 363 940 472 q 891 167 940 256 q 758 26 842 78 q 578 -26 675 -26 m 60 1036 l 311 1036 l 311 -310 l 61 -310 l 60 1036 m 501 146 q 603 174 557 146 q 677 253 650 203 q 704 365 704 303 q 680 475 704 426 q 613 551 656 524 q 517 579 571 579 q 415 551 463 579 q 340 473 368 522 q 311 364 311 424 q 335 253 311 303 q 404 174 360 203 q 501 146 449 146 z "},"q":{"ha":983,"x_min":42,"x_max":924,"o":"m 406 -26 q 223 26 307 -26 q 90 167 139 78 q 42 363 42 256 q 86 562 42 472 q 209 702 131 651 q 386 753 288 753 q 566 701 485 753 q 695 559 647 649 q 746 363 743 469 q 703 167 746 256 q 582 26 660 78 q 406 -26 504 -26 m 481 146 q 578 174 535 146 q 647 253 622 203 q 672 364 672 303 q 642 473 671 424 q 565 551 613 522 q 465 579 518 579 q 369 551 413 579 q 301 475 326 524 q 276 365 276 426 q 304 253 276 303 q 378 174 332 203 q 481 146 424 146 m 672 726 l 924 726 l 922 -310 l 671 -310 l 672 726 z "},"r":{"ha":864,"x_min":69,"x_max":849,"o":"m 250 328 q 301 553 253 456 q 426 701 350 650 q 585 753 501 753 q 726 714 667 753 q 817 596 785 675 q 846 400 849 517 l 594 400 q 567 518 596 475 q 483 561 538 561 q 401 533 438 561 q 344 453 365 506 q 321 328 322 400 l 250 328 m 69 726 l 321 726 l 321 0 l 69 0 l 69 726 z "},"ŕ":{"ha":864,"x_min":69,"x_max":849,"o":"m 250 328 q 301 553 253 456 q 426 701 350 650 q 585 753 501 753 q 726 714 667 753 q 817 596 785 675 q 846 400 849 517 l 594 400 q 567 518 596 475 q 483 561 538 561 q 401 533 438 561 q 344 453 365 506 q 321 328 322 400 l 250 328 m 69 726 l 321 726 l 321 0 l 69 0 l 69 726 z "},"ř":{"ha":864,"x_min":69,"x_max":849,"o":"m 250 328 q 301 553 253 456 q 426 701 350 650 q 585 753 501 753 q 726 714 667 753 q 817 596 785 675 q 846 400 849 517 l 594 400 q 567 518 596 475 q 483 561 538 561 q 401 533 438 561 q 344 453 365 506 q 321 328 322 400 l 250 328 m 69 726 l 321 726 l 321 0 l 69 0 l 69 726 z "},"s":{"ha":897,"x_min":21,"x_max":849,"o":"m 447 -26 q 222 13 317 -26 q 75 115 126 51 q 21 250 24 178 l 260 250 q 309 178 268 207 q 431 147 350 149 q 522 157 485 146 q 577 185 558 168 q 596 222 596 203 q 583 255 596 242 q 535 276 569 268 q 436 290 500 285 q 166 365 260 306 q 74 526 72 425 q 119 642 74 590 q 247 723 164 693 q 440 753 329 753 q 642 719 556 753 q 777 625 728 685 q 838 488 826 565 l 596 488 q 547 553 588 529 q 436 576 507 576 q 368 566 396 576 q 328 541 340 556 q 317 510 315 526 q 349 467 319 483 q 449 446 379 451 q 687 402 600 432 q 810 327 774 372 q 847 218 846 282 q 803 97 849 153 q 666 8 757 42 q 447 -26 575 -26 z "},"ś":{"ha":897,"x_min":21,"x_max":849,"o":"m 447 -26 q 222 13 317 -26 q 75 115 126 51 q 21 250 24 178 l 260 250 q 309 178 268 207 q 431 147 350 149 q 522 157 485 146 q 577 185 558 168 q 596 222 596 203 q 583 255 596 242 q 535 276 569 268 q 436 290 500 285 q 166 365 260 306 q 74 526 72 425 q 119 642 74 590 q 247 723 164 693 q 440 753 329 753 q 642 719 556 753 q 777 625 728 685 q 838 488 826 565 l 596 488 q 547 553 588 529 q 436 576 507 576 q 368 566 396 576 q 328 541 340 556 q 317 510 315 526 q 349 467 319 483 q 449 446 379 451 q 687 402 600 432 q 810 327 774 372 q 847 218 846 282 q 803 97 849 153 q 666 8 757 42 q 447 -26 575 -26 z "},"š":{"ha":897,"x_min":21,"x_max":849,"o":"m 447 -26 q 222 13 317 -26 q 75 115 126 51 q 21 250 24 178 l 260 250 q 309 178 268 207 q 431 147 350 149 q 522 157 485 146 q 577 185 558 168 q 596 222 596 203 q 583 255 596 242 q 535 276 569 268 q 436 290 500 285 q 166 365 260 306 q 74 526 72 425 q 119 642 74 590 q 247 723 164 693 q 440 753 329 753 q 642 719 556 753 q 777 625 728 685 q 838 488 826 565 l 596 488 q 547 553 588 529 q 436 576 507 576 q 368 566 396 576 q 328 541 340 556 q 317 510 315 526 q 349 467 319 483 q 449 446 379 451 q 687 402 600 432 q 810 327 774 372 q 847 218 846 282 q 803 97 849 153 q 666 8 757 42 q 447 -26 575 -26 z "},"ş":{"ha":897,"x_min":21,"x_max":849,"o":"m 169 -222 q 358 -237 294 -237 q 458 -224 421 -237 q 490 -179 494 -210 q 444 -147 488 -151 q 338 -144 400 -142 l 314 -144 l 388 50 l 525 58 l 501 -82 q 632 -93 576 -74 q 700 -171 688 -112 q 663 -312 721 -260 q 468 -380 604 -364 q 156 -367 332 -396 l 169 -222 m 447 -26 q 222 13 317 -26 q 75 115 126 51 q 21 250 24 178 l 260 250 q 309 178 268 207 q 431 147 350 149 q 522 157 485 146 q 577 185 558 168 q 596 222 596 203 q 583 255 596 242 q 535 276 569 268 q 436 290 500 285 q 166 365 260 306 q 74 526 72 425 q 119 642 74 590 q 247 723 164 693 q 440 753 329 753 q 642 719 556 753 q 777 625 728 685 q 838 488 826 565 l 596 488 q 547 553 588 529 q 436 576 507 576 q 368 566 396 576 q 328 541 340 556 q 317 510 315 526 q 349 467 319 483 q 449 446 379 451 q 687 402 600 432 q 810 327 774 372 q 847 218 846 282 q 803 97 849 153 q 666 8 757 42 q 447 -26 575 -26 z "},"ŝ":{"ha":897,"x_min":21,"x_max":849,"o":"m 447 -26 q 222 13 317 -26 q 75 115 126 51 q 21 250 24 178 l 260 250 q 309 178 268 207 q 431 147 350 149 q 522 157 485 146 q 577 185 558 168 q 596 222 596 203 q 583 255 596 242 q 535 276 569 268 q 436 290 500 285 q 166 365 260 306 q 74 526 72 425 q 119 642 74 590 q 247 723 164 693 q 440 753 329 753 q 642 719 556 753 q 777 625 728 685 q 838 488 826 565 l 596 488 q 547 553 588 529 q 436 576 507 576 q 368 566 396 576 q 328 541 340 556 q 317 510 315 526 q 349 467 319 483 q 449 446 379 451 q 687 402 600 432 q 810 327 774 372 q 847 218 846 282 q 803 97 849 153 q 666 8 757 42 q 447 -26 575 -26 z "},"ß":{"ha":950,"x_min":61,"x_max":910,"o":"m 61 685 q 111 860 63 782 q 252 985 160 939 q 472 1031 344 1031 q 705 984 608 1031 q 848 861 801 938 q 890 697 894 785 q 866 610 889 650 q 805 540 843 569 q 717 494 767 510 q 851 419 801 481 q 907 279 901 357 q 872 134 910 197 q 758 35 833 71 q 574 0 682 0 l 400 0 l 400 186 l 510 186 q 608 215 572 186 q 647 297 644 243 q 618 375 649 346 q 526 404 588 404 l 404 404 l 404 576 l 521 576 q 621 608 583 576 q 660 692 658 639 q 622 783 664 747 q 499 819 581 819 q 404 797 447 819 q 335 732 361 775 q 310 632 310 689 l 310 -86 l 61 -86 l 61 685 z "},"ſ":{"ha":743,"x_min":200,"x_max":646,"o":"m 200 694 q 246 870 200 792 q 372 992 292 949 q 551 1036 453 1036 l 646 1036 l 644 840 l 624 840 q 499 806 544 840 q 453 703 453 772 l 453 0 l 200 0 l 200 694 z "},"t":{"ha":719,"x_min":3,"x_max":728,"o":"m 231 544 l 3 544 l 3 726 l 231 726 l 231 969 l 488 969 l 488 726 l 728 726 l 728 544 l 488 544 l 488 0 l 231 0 l 231 544 z "},"ŧ":{"ha":719,"x_min":3,"x_max":728,"o":"m 68 443 l 231 443 l 231 544 l 3 544 l 3 726 l 231 726 l 231 969 l 488 969 l 488 726 l 728 726 l 728 544 l 488 544 l 488 443 l 653 443 l 653 249 l 488 249 l 488 0 l 231 0 l 231 249 l 68 249 l 68 443 z "},"ť":{"ha":719,"x_min":3,"x_max":728,"o":"m 231 544 l 3 544 l 3 726 l 231 726 l 231 969 l 488 969 l 488 726 l 728 726 l 728 544 l 488 544 l 488 0 l 231 0 l 231 544 m 253 1218 l 354 1117 l 467 1218 l 696 1218 l 456 1000 l 275 1000 l 50 1218 l 253 1218 z "},"u":{"ha":990,"x_min":71,"x_max":929,"o":"m 360 -26 q 146 58 221 -26 q 71 301 71 143 l 71 726 l 324 726 l 324 324 q 360 209 324 251 q 464 167 396 167 q 570 197 522 167 q 647 284 618 228 q 676 415 675 340 l 749 388 q 694 173 746 267 q 553 26 642 79 q 360 -26 465 -26 m 676 726 l 929 726 l 929 0 l 676 0 l 676 726 z "},"ú":{"ha":990,"x_min":71,"x_max":929,"o":"m 360 -26 q 146 58 221 -26 q 71 301 71 143 l 71 726 l 324 726 l 324 324 q 360 209 324 251 q 464 167 396 167 q 570 197 522 167 q 647 284 618 228 q 676 415 675 340 l 749 388 q 694 173 746 267 q 553 26 642 79 q 360 -26 465 -26 m 676 726 l 929 726 l 929 0 l 676 0 l 676 726 z "},"ŭ":{"ha":990,"x_min":71,"x_max":929,"o":"m 360 -26 q 146 58 221 -26 q 71 301 71 143 l 71 726 l 324 726 l 324 324 q 360 209 324 251 q 464 167 396 167 q 570 197 522 167 q 647 284 618 228 q 676 415 675 340 l 749 388 q 694 173 746 267 q 553 26 642 79 q 360 -26 465 -26 m 676 726 l 929 726 l 929 0 l 676 0 l 676 726 z "},"û":{"ha":990,"x_min":71,"x_max":929,"o":"m 360 -26 q 146 58 221 -26 q 71 301 71 143 l 71 726 l 324 726 l 324 324 q 360 209 324 251 q 464 167 396 167 q 570 197 522 167 q 647 284 618 228 q 676 415 675 340 l 749 388 q 694 173 746 267 q 553 26 642 79 q 360 -26 465 -26 m 676 726 l 929 726 l 929 0 l 676 0 l 676 726 z "},"ü":{"ha":990,"x_min":71,"x_max":929,"o":"m 360 -26 q 146 58 221 -26 q 71 301 71 143 l 71 726 l 324 726 l 324 324 q 360 209 324 251 q 464 167 396 167 q 570 197 522 167 q 647 284 618 228 q 676 415 675 340 l 749 388 q 694 173 746 267 q 553 26 642 79 q 360 -26 465 -26 m 676 726 l 929 726 l 929 0 l 676 0 l 676 726 z "},"ù":{"ha":990,"x_min":71,"x_max":929,"o":"m 360 -26 q 146 58 221 -26 q 71 301 71 143 l 71 726 l 324 726 l 324 324 q 360 209 324 251 q 464 167 396 167 q 570 197 522 167 q 647 284 618 228 q 676 415 675 340 l 749 388 q 694 173 746 267 q 553 26 642 79 q 360 -26 465 -26 m 676 726 l 929 726 l 929 0 l 676 0 l 676 726 z "},"ű":{"ha":990,"x_min":71,"x_max":929,"o":"m 360 -26 q 146 58 221 -26 q 71 301 71 143 l 71 726 l 324 726 l 324 324 q 360 209 324 251 q 464 167 396 167 q 570 197 522 167 q 647 284 618 228 q 676 415 675 340 l 749 388 q 694 173 746 267 q 553 26 642 79 q 360 -26 465 -26 m 676 726 l 929 726 l 929 0 l 676 0 l 676 726 z "},"ū":{"ha":990,"x_min":71,"x_max":929,"o":"m 360 -26 q 146 58 221 -26 q 71 301 71 143 l 71 726 l 324 726 l 324 324 q 360 209 324 251 q 464 167 396 167 q 570 197 522 167 q 647 284 618 228 q 676 415 675 340 l 749 388 q 694 173 746 267 q 553 26 642 79 q 360 -26 465 -26 m 676 726 l 929 726 l 929 0 l 676 0 l 676 726 z "},"ģ":{"ha":967,"x_min":42,"x_max":907,"o":"m 513 -399 q 288 -344 388 -399 q 131 -190 189 -290 l 333 -99 q 410 -171 367 -146 q 499 -194 453 -196 q 617 -143 576 -194 q 658 -7 657 -92 l 658 726 l 907 726 l 907 21 q 861 -197 907 -103 q 726 -345 815 -292 q 513 -399 638 -399 m 376 -26 q 204 26 282 -26 q 84 169 126 79 q 44 364 42 258 q 97 560 47 471 q 228 701 146 649 q 406 753 310 753 q 576 701 499 753 q 695 560 653 649 q 735 365 738 471 q 682 169 732 258 q 551 26 632 79 q 376 -26 469 -26 m 461 147 q 557 176 513 147 q 630 253 601 204 q 660 365 658 303 q 637 474 661 424 q 569 552 613 524 q 475 581 526 581 q 380 552 424 581 q 308 473 336 524 q 279 363 281 422 q 301 253 278 303 q 367 176 325 204 q 461 147 410 147 m 638 1119 l 617 803 l 363 803 l 497 1138 l 638 1119 z "},"ķ":{"ha":933,"x_min":65,"x_max":993,"o":"m 318 333 l 318 0 l 65 0 l 65 1036 l 318 1036 l 318 394 l 650 726 l 985 726 l 599 372 l 993 0 l 661 0 l 318 333 z "},"ļ":{"ha":397,"x_min":69,"x_max":321,"o":"m 69 1036 l 321 1036 l 321 0 l 69 0 l 69 1036 z "},"ņ":{"ha":990,"x_min":71,"x_max":929,"o":"m 675 403 q 639 518 675 475 q 533 561 603 561 q 428 531 476 561 q 352 443 381 500 q 322 311 324 386 l 250 339 q 306 553 253 458 q 446 700 358 647 q 638 753 533 753 q 853 668 778 753 q 929 425 929 583 l 929 0 l 675 0 l 675 403 m 71 726 l 322 726 l 322 0 l 71 0 l 71 726 z "},"ŗ":{"ha":864,"x_min":69,"x_max":849,"o":"m 250 328 q 301 553 253 456 q 426 701 350 650 q 585 753 501 753 q 726 714 667 753 q 817 596 785 675 q 846 400 849 517 l 594 400 q 567 518 596 475 q 483 561 538 561 q 401 533 438 561 q 344 453 365 506 q 321 328 322 400 l 250 328 m 69 726 l 321 726 l 321 0 l 69 0 l 69 726 z "},"ţ":{"ha":719,"x_min":3,"x_max":728,"o":"m 231 544 l 3 544 l 3 726 l 231 726 l 231 969 l 488 969 l 488 726 l 728 726 l 728 544 l 488 544 l 488 0 l 231 0 l 231 544 z "},"ǆ":{"ha":1772,"x_min":42,"x_max":1782,"o":"m 386 -26 q 209 24 288 -26 q 86 165 131 75 q 42 364 42 254 q 90 560 42 471 q 223 701 139 649 q 406 753 307 753 q 582 701 504 753 q 703 561 660 650 q 746 364 746 472 q 695 167 743 257 q 566 26 647 78 q 386 -26 485 -26 m 465 147 q 565 176 518 147 q 642 253 613 204 q 672 364 671 303 q 647 475 672 425 q 578 553 622 525 q 481 581 535 581 q 378 552 424 581 q 304 474 332 524 q 276 363 276 424 q 301 252 276 301 q 369 175 326 203 q 465 147 413 147 m 671 1036 l 922 1036 l 924 0 l 672 0 l 671 1036 m 1372 535 l 990 535 l 990 726 l 1782 726 l 1367 189 l 1767 189 l 1767 0 l 974 0 l 1372 535 m 1058 1025 l 1272 1025 l 1379 910 l 1497 1025 l 1738 1025 l 1485 775 l 1296 775 l 1058 1025 z "},"ǉ":{"ha":808,"x_min":69,"x_max":774,"o":"m 69 1036 l 321 1036 l 321 0 l 69 0 l 69 1036 m 271 -114 l 299 -114 q 427 -72 382 -114 q 472 51 472 -29 l 472 726 l 724 726 l 724 60 q 682 -137 724 -53 q 562 -265 640 -221 q 379 -310 483 -310 l 271 -310 l 271 -114 m 594 811 q 503 832 544 811 q 438 888 463 853 q 414 964 414 924 q 438 1040 414 1006 q 503 1097 463 1075 q 594 1118 544 1118 q 684 1097 643 1118 q 749 1040 725 1075 q 774 964 774 1006 q 749 888 774 924 q 684 832 725 853 q 594 811 643 811 z "},"ǌ":{"ha":1401,"x_min":71,"x_max":1367,"o":"m 675 403 q 639 518 675 475 q 533 561 603 561 q 428 531 476 561 q 352 443 381 500 q 322 311 324 386 l 250 339 q 306 553 253 458 q 446 700 358 647 q 638 753 533 753 q 853 668 778 753 q 929 425 929 583 l 929 0 l 675 0 l 675 403 m 71 726 l 322 726 l 322 0 l 71 0 l 71 726 m 864 -114 l 892 -114 q 1020 -72 975 -114 q 1065 51 1065 -29 l 1065 726 l 1317 726 l 1317 60 q 1275 -137 1317 -53 q 1155 -265 1233 -221 q 972 -310 1076 -310 l 864 -310 l 864 -114 m 1188 811 q 1097 832 1138 811 q 1031 888 1056 853 q 1007 964 1007 924 q 1031 1040 1007 1006 q 1097 1097 1056 1075 q 1188 1118 1138 1118 q 1277 1097 1236 1118 q 1342 1040 1318 1075 q 1367 964 1367 1006 q 1342 888 1367 924 q 1277 832 1318 853 q 1188 811 1236 811 z "},"ǎ":{"ha":981,"x_min":42,"x_max":924,"o":"m 386 -26 q 209 24 288 -26 q 86 165 131 75 q 42 364 42 254 q 90 560 42 471 q 223 701 139 649 q 406 753 307 753 q 582 701 504 753 q 703 561 660 650 q 746 364 746 472 q 695 167 743 257 q 566 26 647 78 q 386 -26 485 -26 m 465 147 q 565 176 518 147 q 642 253 613 204 q 672 364 671 303 q 647 475 672 425 q 578 553 622 525 q 481 581 535 581 q 378 552 424 581 q 304 474 332 524 q 276 363 276 424 q 301 252 276 301 q 369 175 326 203 q 465 147 413 147 m 671 726 l 922 726 l 924 0 l 672 0 l 671 726 z "},"ǐ":{"ha":394,"x_min":-132,"x_max":547,"o":"m 69 726 l 324 726 l 324 0 l 69 0 l 69 726 z "},"ǒ":{"ha":953,"x_min":38,"x_max":919,"o":"m 475 -26 q 249 26 349 -26 q 94 167 150 78 q 39 364 38 257 q 98 561 40 472 q 256 701 156 650 q 482 753 357 753 q 712 701 613 753 q 865 562 811 650 q 919 365 919 474 q 860 167 918 257 q 702 26 803 78 q 475 -26 601 -26 m 472 165 q 577 192 531 165 q 650 263 624 218 q 676 364 676 308 q 655 466 678 421 q 588 537 632 511 q 483 563 543 563 q 378 536 425 563 q 306 465 332 510 q 276 365 279 419 q 299 264 275 310 q 369 192 324 218 q 472 165 414 165 z "},"ǔ":{"ha":990,"x_min":71,"x_max":929,"o":"m 360 -26 q 146 58 221 -26 q 71 301 71 143 l 71 726 l 324 726 l 324 324 q 360 209 324 251 q 464 167 396 167 q 570 197 522 167 q 647 284 618 228 q 676 415 675 340 l 749 388 q 694 173 746 267 q 553 26 642 79 q 360 -26 465 -26 m 676 726 l 929 726 l 929 0 l 676 0 l 676 726 z "},"ǖ":{"ha":990,"x_min":71,"x_max":929,"o":"m 360 -26 q 146 58 221 -26 q 71 301 71 143 l 71 726 l 324 726 l 324 324 q 360 209 324 251 q 464 167 396 167 q 570 197 522 167 q 647 284 618 228 q 676 415 675 340 l 749 388 q 694 173 746 267 q 553 26 642 79 q 360 -26 465 -26 m 676 726 l 929 726 l 929 0 l 676 0 l 676 726 z "},"ǘ":{"ha":990,"x_min":71,"x_max":929,"o":"m 360 -26 q 146 58 221 -26 q 71 301 71 143 l 71 726 l 324 726 l 324 324 q 360 209 324 251 q 464 167 396 167 q 570 197 522 167 q 647 284 618 228 q 676 415 675 340 l 749 388 q 694 173 746 267 q 553 26 642 79 q 360 -26 465 -26 m 676 726 l 929 726 l 929 0 l 676 0 l 676 726 z "},"ǚ":{"ha":990,"x_min":71,"x_max":929,"o":"m 360 -26 q 146 58 221 -26 q 71 301 71 143 l 71 726 l 324 726 l 324 324 q 360 209 324 251 q 464 167 396 167 q 570 197 522 167 q 647 284 618 228 q 676 415 675 340 l 749 388 q 694 173 746 267 q 553 26 642 79 q 360 -26 465 -26 m 676 726 l 929 726 l 929 0 l 676 0 l 676 726 z "},"ǜ":{"ha":990,"x_min":71,"x_max":929,"o":"m 360 -26 q 146 58 221 -26 q 71 301 71 143 l 71 726 l 324 726 l 324 324 q 360 209 324 251 q 464 167 396 167 q 570 197 522 167 q 647 284 618 228 q 676 415 675 340 l 749 388 q 694 173 746 267 q 553 26 642 79 q 360 -26 465 -26 m 676 726 l 929 726 l 929 0 l 676 0 l 676 726 z "},"ǟ":{"ha":981,"x_min":42,"x_max":924,"o":"m 386 -26 q 209 24 288 -26 q 86 165 131 75 q 42 364 42 254 q 90 560 42 471 q 223 701 139 649 q 406 753 307 753 q 582 701 504 753 q 703 561 660 650 q 746 364 746 472 q 695 167 743 257 q 566 26 647 78 q 386 -26 485 -26 m 465 147 q 565 176 518 147 q 642 253 613 204 q 672 364 671 303 q 647 475 672 425 q 578 553 622 525 q 481 581 535 581 q 378 552 424 581 q 304 474 332 524 q 276 363 276 424 q 301 252 276 301 q 369 175 326 203 q 465 147 413 147 m 671 726 l 922 726 l 924 0 l 672 0 l 671 726 z "},"ǡ":{"ha":981,"x_min":42,"x_max":924,"o":"z "},"ǩ":{"ha":933,"x_min":65,"x_max":993,"o":"m 318 333 l 318 0 l 65 0 l 65 1036 l 318 1036 l 318 394 l 650 726 l 985 726 l 599 372 l 993 0 l 661 0 l 318 333 z "},"ǫ":{"ha":953,"x_min":38,"x_max":919,"o":"m 679 -389 q 349 -410 469 -432 q 200 -307 228 -387 q 206 -199 182 -257 q 303 -77 229 -142 q 508 58 378 -12 q 572 47 553 65 q 590 -1 592 29 q 432 -111 490 -54 q 400 -210 374 -168 q 470 -240 417 -237 q 590 -229 524 -243 l 679 -389 m 475 -26 q 249 26 349 -26 q 94 167 150 78 q 39 364 38 257 q 98 561 40 472 q 256 701 156 650 q 482 753 357 753 q 712 701 613 753 q 865 562 811 650 q 919 365 919 474 q 860 167 918 257 q 702 26 803 78 q 475 -26 601 -26 m 472 165 q 577 192 531 165 q 650 263 624 218 q 676 364 676 308 q 655 466 678 421 q 588 537 632 511 q 483 563 543 563 q 378 536 425 563 q 306 465 332 510 q 276 365 279 419 q 299 264 275 310 q 369 192 324 218 q 472 165 414 165 z "},"ǭ":{"ha":953,"x_min":38,"x_max":919,"o":"m 679 -389 q 349 -410 469 -432 q 200 -307 228 -387 q 206 -199 182 -257 q 303 -77 229 -142 q 508 58 378 -12 q 572 47 553 65 q 590 -1 592 29 q 432 -111 490 -54 q 400 -210 374 -168 q 470 -240 417 -237 q 590 -229 524 -243 l 679 -389 m 475 -26 q 249 26 349 -26 q 94 167 150 78 q 39 364 38 257 q 98 561 40 472 q 256 701 156 650 q 482 753 357 753 q 712 701 613 753 q 865 562 811 650 q 919 365 919 474 q 860 167 918 257 q 702 26 803 78 q 475 -26 601 -26 m 472 165 q 577 192 531 165 q 650 263 624 218 q 676 364 676 308 q 655 466 678 421 q 588 537 632 511 q 483 563 543 563 q 378 536 425 563 q 306 465 332 510 q 276 365 279 419 q 299 264 275 310 q 369 192 324 218 q 472 165 414 165 z "},"ǳ":{"ha":1772,"x_min":42,"x_max":1782,"o":"m 386 -26 q 209 24 288 -26 q 86 165 131 75 q 42 364 42 254 q 90 560 42 471 q 223 701 139 649 q 406 753 307 753 q 582 701 504 753 q 703 561 660 650 q 746 364 746 472 q 695 167 743 257 q 566 26 647 78 q 386 -26 485 -26 m 465 147 q 565 176 518 147 q 642 253 613 204 q 672 364 671 303 q 647 475 672 425 q 578 553 622 525 q 481 581 535 581 q 378 552 424 581 q 304 474 332 524 q 276 363 276 424 q 301 252 276 301 q 369 175 326 203 q 465 147 413 147 m 671 1036 l 922 1036 l 924 0 l 672 0 l 671 1036 m 1372 535 l 990 535 l 990 726 l 1782 726 l 1367 189 l 1767 189 l 1767 0 l 974 0 l 1372 535 z "},"ǵ":{"ha":967,"x_min":42,"x_max":907,"o":"m 513 -399 q 288 -344 388 -399 q 131 -190 189 -290 l 333 -99 q 410 -171 367 -146 q 499 -194 453 -196 q 617 -143 576 -194 q 658 -7 657 -92 l 658 726 l 907 726 l 907 21 q 861 -197 907 -103 q 726 -345 815 -292 q 513 -399 638 -399 m 376 -26 q 204 26 282 -26 q 84 169 126 79 q 44 364 42 258 q 97 560 47 471 q 228 701 146 649 q 406 753 310 753 q 576 701 499 753 q 695 560 653 649 q 735 365 738 471 q 682 169 732 258 q 551 26 632 79 q 376 -26 469 -26 m 461 147 q 557 176 513 147 q 630 253 601 204 q 660 365 658 303 q 637 474 661 424 q 569 552 613 524 q 475 581 526 581 q 380 552 424 581 q 308 473 336 524 q 279 363 281 422 q 301 253 278 303 q 367 176 325 204 q 461 147 410 147 z "},"ǹ":{"ha":990,"x_min":71,"x_max":929,"o":"m 675 403 q 639 518 675 475 q 533 561 603 561 q 428 531 476 561 q 352 443 381 500 q 322 311 324 386 l 250 339 q 306 553 253 458 q 446 700 358 647 q 638 753 533 753 q 853 668 778 753 q 929 425 929 583 l 929 0 l 675 0 l 675 403 m 71 726 l 322 726 l 322 0 l 71 0 l 71 726 z "},"ȁ":{"ha":981,"x_min":42,"x_max":924,"o":"m 386 -26 q 209 24 288 -26 q 86 165 131 75 q 42 364 42 254 q 90 560 42 471 q 223 701 139 649 q 406 753 307 753 q 582 701 504 753 q 703 561 660 650 q 746 364 746 472 q 695 167 743 257 q 566 26 647 78 q 386 -26 485 -26 m 465 147 q 565 176 518 147 q 642 253 613 204 q 672 364 671 303 q 647 475 672 425 q 578 553 622 525 q 481 581 535 581 q 378 552 424 581 q 304 474 332 524 q 276 363 276 424 q 301 252 276 301 q 369 175 326 203 q 465 147 413 147 m 671 726 l 922 726 l 924 0 l 672 0 l 671 726 m 61 938 l 158 1121 l 401 953 l 490 1121 l 799 908 l 746 801 l 464 910 l 467 908 l 414 801 l 61 938 z "},"ȃ":{"ha":981,"x_min":42,"x_max":924,"o":"m 386 -26 q 209 24 288 -26 q 86 165 131 75 q 42 364 42 254 q 90 560 42 471 q 223 701 139 649 q 406 753 307 753 q 582 701 504 753 q 703 561 660 650 q 746 364 746 472 q 695 167 743 257 q 566 26 647 78 q 386 -26 485 -26 m 465 147 q 565 176 518 147 q 642 253 613 204 q 672 364 671 303 q 647 475 672 425 q 578 553 622 525 q 481 581 535 581 q 378 552 424 581 q 304 474 332 524 q 276 363 276 424 q 301 252 276 301 q 369 175 326 203 q 465 147 413 147 m 671 726 l 922 726 l 924 0 l 672 0 l 671 726 m 494 1006 q 631 980 574 1006 q 719 908 689 954 q 750 807 750 863 l 600 807 q 578 862 603 842 q 494 882 553 882 q 415 862 440 882 q 390 807 389 842 l 238 807 q 267 909 238 864 q 354 980 296 954 q 494 1006 413 1006 z "},"ȅ":{"ha":921,"x_min":31,"x_max":888,"o":"m 468 -26 q 235 24 333 -26 q 83 162 136 74 q 32 364 31 250 q 88 558 33 469 q 240 700 142 647 q 465 753 338 753 q 691 699 594 753 q 838 555 788 644 q 886 363 888 465 q 878 296 882 314 l 274 296 q 335 197 281 235 q 475 158 390 158 q 583 180 532 158 q 661 233 633 201 l 840 128 q 680 16 778 58 q 468 -26 582 -26 m 644 431 q 621 499 642 467 q 562 551 600 532 q 471 569 524 569 q 344 532 394 569 q 278 431 293 494 l 644 431 m 32 938 l 129 1121 l 372 953 l 461 1121 l 769 908 l 717 801 l 435 910 l 438 908 l 385 801 l 32 938 z "},"ȇ":{"ha":921,"x_min":31,"x_max":888,"o":"m 468 -26 q 235 24 333 -26 q 83 162 136 74 q 32 364 31 250 q 88 558 33 469 q 240 700 142 647 q 465 753 338 753 q 691 699 594 753 q 838 555 788 644 q 886 363 888 465 q 878 296 882 314 l 274 296 q 335 197 281 235 q 475 158 390 158 q 583 180 532 158 q 661 233 633 201 l 840 128 q 680 16 778 58 q 468 -26 582 -26 m 644 431 q 621 499 642 467 q 562 551 600 532 q 471 569 524 569 q 344 532 394 569 q 278 431 293 494 l 644 431 m 464 1003 q 601 977 543 1003 q 689 906 658 951 q 719 804 719 860 l 569 804 q 547 859 572 839 q 464 879 522 879 q 384 859 410 879 q 360 804 358 839 l 207 804 q 236 906 207 861 q 324 977 265 951 q 464 1003 382 1003 z "},"ȉ":{"ha":394,"x_min":-232,"x_max":506,"o":"m 69 726 l 324 726 l 324 0 l 69 0 l 69 726 m -232 938 l -135 1121 l 108 953 l 197 1121 l 506 908 l 453 801 l 171 910 l 174 908 l 121 801 l -232 938 z "},"ȋ":{"ha":394,"x_min":-57,"x_max":456,"o":"m -56 818 q -28 919 -57 874 q 60 990 1 964 q 201 1017 118 1017 q 338 990 281 1017 q 425 919 394 964 q 456 818 456 874 l 307 818 q 283 872 308 851 q 201 893 258 893 q 120 872 146 893 q 96 818 94 851 l -56 818 m 69 726 l 324 726 l 324 0 l 69 0 l 69 726 z "},"ȍ":{"ha":953,"x_min":38,"x_max":919,"o":"m 475 -26 q 249 26 349 -26 q 94 167 150 78 q 39 364 38 257 q 98 561 40 472 q 256 701 156 650 q 482 753 357 753 q 712 701 613 753 q 865 562 811 650 q 919 365 919 474 q 860 167 918 257 q 702 26 803 78 q 475 -26 601 -26 m 472 165 q 577 192 531 165 q 650 263 624 218 q 676 364 676 308 q 655 466 678 421 q 588 537 632 511 q 483 563 543 563 q 378 536 425 563 q 306 465 332 510 q 276 365 279 419 q 299 264 275 310 q 369 192 324 218 q 472 165 414 165 m 46 938 l 143 1121 l 386 953 l 475 1121 l 783 908 l 731 801 l 449 910 l 451 908 l 399 801 l 46 938 z "},"ȏ":{"ha":953,"x_min":38,"x_max":919,"o":"m 475 -26 q 249 26 349 -26 q 94 167 150 78 q 39 364 38 257 q 98 561 40 472 q 256 701 156 650 q 482 753 357 753 q 712 701 613 753 q 865 562 811 650 q 919 365 919 474 q 860 167 918 257 q 702 26 803 78 q 475 -26 601 -26 m 472 165 q 577 192 531 165 q 650 263 624 218 q 676 364 676 308 q 655 466 678 421 q 588 537 632 511 q 483 563 543 563 q 378 536 425 563 q 306 465 332 510 q 276 365 279 419 q 299 264 275 310 q 369 192 324 218 q 472 165 414 165 m 481 1007 q 617 981 560 1007 q 706 910 675 956 q 736 808 736 864 l 586 808 q 564 863 589 843 q 481 883 539 883 q 401 863 426 883 q 376 808 375 843 l 224 808 q 253 910 224 865 q 340 981 282 956 q 481 1007 399 1007 z "},"ȑ":{"ha":864,"x_min":3,"x_max":849,"o":"m 250 328 q 301 553 253 456 q 426 701 350 650 q 585 753 501 753 q 726 714 667 753 q 817 596 785 675 q 846 400 849 517 l 594 400 q 567 518 596 475 q 483 561 538 561 q 401 533 438 561 q 344 453 365 506 q 321 328 322 400 l 250 328 m 69 726 l 321 726 l 321 0 l 69 0 l 69 726 m 3 938 l 100 1121 l 343 953 l 432 1121 l 740 908 l 688 801 l 406 910 l 408 908 l 356 801 l 3 938 z "},"ȓ":{"ha":864,"x_min":69,"x_max":849,"o":"m 250 328 q 301 553 253 456 q 426 701 350 650 q 585 753 501 753 q 726 714 667 753 q 817 596 785 675 q 846 400 849 517 l 594 400 q 567 518 596 475 q 483 561 538 561 q 401 533 438 561 q 344 453 365 506 q 321 328 322 400 l 250 328 m 69 726 l 321 726 l 321 0 l 69 0 l 69 726 m 436 996 q 573 970 515 996 q 661 899 631 944 q 692 797 692 853 l 542 797 q 519 852 544 832 q 436 872 494 872 q 356 852 382 872 q 332 797 331 832 l 179 797 q 208 899 179 854 q 296 970 238 944 q 436 996 354 996 z "},"ȕ":{"ha":990,"x_min":67,"x_max":929,"o":"m 360 -26 q 146 58 221 -26 q 71 301 71 143 l 71 726 l 324 726 l 324 324 q 360 209 324 251 q 464 167 396 167 q 570 197 522 167 q 647 284 618 228 q 676 415 675 340 l 749 388 q 694 173 746 267 q 553 26 642 79 q 360 -26 465 -26 m 676 726 l 929 726 l 929 0 l 676 0 l 676 726 m 67 938 l 164 1121 l 407 953 l 496 1121 l 804 908 l 751 801 l 469 910 l 472 908 l 419 801 l 67 938 z "},"ȗ":{"ha":990,"x_min":71,"x_max":929,"o":"m 360 -26 q 146 58 221 -26 q 71 301 71 143 l 71 726 l 324 726 l 324 324 q 360 209 324 251 q 464 167 396 167 q 570 197 522 167 q 647 284 618 228 q 676 415 675 340 l 749 388 q 694 173 746 267 q 553 26 642 79 q 360 -26 465 -26 m 676 726 l 929 726 l 929 0 l 676 0 l 676 726 m 499 994 q 635 969 578 994 q 724 897 693 943 q 754 796 754 851 l 604 796 q 582 851 607 831 q 499 871 557 871 q 419 851 444 871 q 394 796 393 831 l 242 796 q 271 898 242 853 q 358 969 300 943 q 499 994 417 994 z "},"ș":{"ha":897,"x_min":21,"x_max":849,"o":"m 447 -26 q 222 13 317 -26 q 75 115 126 51 q 21 250 24 178 l 260 250 q 309 178 268 207 q 431 147 350 149 q 522 157 485 146 q 577 185 558 168 q 596 222 596 203 q 583 255 596 242 q 535 276 569 268 q 436 290 500 285 q 166 365 260 306 q 74 526 72 425 q 119 642 74 590 q 247 723 164 693 q 440 753 329 753 q 642 719 556 753 q 777 625 728 685 q 838 488 826 565 l 596 488 q 547 553 588 529 q 436 576 507 576 q 368 566 396 576 q 328 541 340 556 q 317 510 315 526 q 349 467 319 483 q 449 446 379 451 q 687 402 600 432 q 810 327 774 372 q 847 218 846 282 q 803 97 849 153 q 666 8 757 42 q 447 -26 575 -26 z "},"ț":{"ha":719,"x_min":3,"x_max":728,"o":"m 231 544 l 3 544 l 3 726 l 231 726 l 231 969 l 488 969 l 488 726 l 728 726 l 728 544 l 488 544 l 488 0 l 231 0 l 231 544 z "},"ȟ":{"ha":975,"x_min":58,"x_max":935,"o":"m 663 403 q 626 518 663 475 q 522 561 590 561 q 416 531 464 561 q 340 443 368 500 q 311 311 313 386 l 238 339 q 293 553 240 460 q 433 700 346 647 q 626 753 521 753 q 841 668 765 753 q 917 425 917 583 l 917 0 l 663 0 l 663 403 m 58 1036 l 311 1036 l 311 0 l 58 0 l 58 1036 z "},"ȧ":{"ha":981,"x_min":42,"x_max":924,"o":"m 386 -26 q 209 24 288 -26 q 86 165 131 75 q 42 364 42 254 q 90 560 42 471 q 223 701 139 649 q 406 753 307 753 q 582 701 504 753 q 703 561 660 650 q 746 364 746 472 q 695 167 743 257 q 566 26 647 78 q 386 -26 485 -26 m 465 147 q 565 176 518 147 q 642 253 613 204 q 672 364 671 303 q 647 475 672 425 q 578 553 622 525 q 481 581 535 581 q 378 552 424 581 q 304 474 332 524 q 276 363 276 424 q 301 252 276 301 q 369 175 326 203 q 465 147 413 147 m 671 726 l 922 726 l 924 0 l 672 0 l 671 726 z "},"ȩ":{"ha":921,"x_min":31,"x_max":888,"o":"m 179 -210 q 369 -224 306 -224 q 469 -210 432 -224 q 501 -165 506 -196 q 455 -133 499 -137 q 349 -131 411 -128 l 325 -131 l 399 64 l 536 72 l 511 -68 q 643 -79 588 -60 q 711 -158 699 -99 q 674 -298 732 -246 q 479 -366 615 -350 q 167 -353 343 -382 l 179 -210 m 468 -26 q 235 24 333 -26 q 83 162 136 74 q 32 364 31 250 q 88 558 33 469 q 240 700 142 647 q 465 753 338 753 q 691 699 594 753 q 838 555 788 644 q 886 363 888 465 q 878 296 882 314 l 274 296 q 335 197 281 235 q 475 158 390 158 q 583 180 532 158 q 661 233 633 201 l 840 128 q 680 16 778 58 q 468 -26 582 -26 m 644 431 q 621 499 642 467 q 562 551 600 532 q 471 569 524 569 q 344 532 394 569 q 278 431 293 494 l 644 431 z "},"ȫ":{"ha":953,"x_min":38,"x_max":919,"o":"m 475 -26 q 249 26 349 -26 q 94 167 150 78 q 39 364 38 257 q 98 561 40 472 q 256 701 156 650 q 482 753 357 753 q 712 701 613 753 q 865 562 811 650 q 919 365 919 474 q 860 167 918 257 q 702 26 803 78 q 475 -26 601 -26 m 472 165 q 577 192 531 165 q 650 263 624 218 q 676 364 676 308 q 655 466 678 421 q 588 537 632 511 q 483 563 543 563 q 378 536 425 563 q 306 465 332 510 q 276 365 279 419 q 299 264 275 310 q 369 192 324 218 q 472 165 414 165 z "},"ȭ":{"ha":953,"x_min":38,"x_max":919,"o":"m 475 -26 q 249 26 349 -26 q 94 167 150 78 q 39 364 38 257 q 98 561 40 472 q 256 701 156 650 q 482 753 357 753 q 712 701 613 753 q 865 562 811 650 q 919 365 919 474 q 860 167 918 257 q 702 26 803 78 q 475 -26 601 -26 m 472 165 q 577 192 531 165 q 650 263 624 218 q 676 364 676 308 q 655 466 678 421 q 588 537 632 511 q 483 563 543 563 q 378 536 425 563 q 306 465 332 510 q 276 365 279 419 q 299 264 275 310 q 369 192 324 218 q 472 165 414 165 z "},"ȯ":{"ha":953,"x_min":38,"x_max":919,"o":"m 475 -26 q 249 26 349 -26 q 94 167 150 78 q 39 364 38 257 q 98 561 40 472 q 256 701 156 650 q 482 753 357 753 q 712 701 613 753 q 865 562 811 650 q 919 365 919 474 q 860 167 918 257 q 702 26 803 78 q 475 -26 601 -26 m 472 165 q 577 192 531 165 q 650 263 624 218 q 676 364 676 308 q 655 466 678 421 q 588 537 632 511 q 483 563 543 563 q 378 536 425 563 q 306 465 332 510 q 276 365 279 419 q 299 264 275 310 q 369 192 324 218 q 472 165 414 165 z "},"ȱ":{"ha":953,"x_min":38,"x_max":919,"o":"m 475 -26 q 249 26 349 -26 q 94 167 150 78 q 39 364 38 257 q 98 561 40 472 q 256 701 156 650 q 482 753 357 753 q 712 701 613 753 q 865 562 811 650 q 919 365 919 474 q 860 167 918 257 q 702 26 803 78 q 475 -26 601 -26 m 472 165 q 577 192 531 165 q 650 263 624 218 q 676 364 676 308 q 655 466 678 421 q 588 537 632 511 q 483 563 543 563 q 378 536 425 563 q 306 465 332 510 q 276 365 279 419 q 299 264 275 310 q 369 192 324 218 q 472 165 414 165 m 476 829 q 371 867 413 829 q 329 960 329 904 q 369 1053 329 1015 q 472 1092 410 1092 q 578 1053 536 1092 q 621 960 621 1015 q 580 867 621 904 q 476 829 539 829 m 183 1304 l 768 1304 l 768 1146 l 183 1146 l 183 1304 z "},"ȳ":{"ha":990,"x_min":71,"x_max":929,"o":"m 360 -26 q 146 58 221 -26 q 71 301 71 143 l 71 726 l 324 726 l 324 324 q 360 209 324 251 q 464 167 396 167 q 570 197 522 167 q 647 284 618 228 q 676 415 675 340 l 749 388 q 694 173 746 267 q 553 26 642 79 q 360 -26 465 -26 m 676 726 l 929 726 l 929 -310 l 676 -310 l 676 726 z "},"ḱ":{"ha":933,"x_min":65,"x_max":993,"o":"m 318 333 l 318 0 l 65 0 l 65 1036 l 318 1036 l 318 394 l 650 726 l 985 726 l 599 372 l 993 0 l 661 0 l 318 333 z "},"ḿ":{"ha":1465,"x_min":71,"x_max":1401,"o":"m 1149 396 q 1120 519 1149 476 q 1031 561 1092 561 q 910 501 954 561 q 863 329 865 440 l 789 356 q 837 567 792 476 q 957 705 882 657 q 1126 753 1032 753 q 1329 669 1257 753 q 1401 433 1401 586 l 1401 0 l 1149 0 l 1149 396 m 71 726 l 322 726 l 322 0 l 71 0 l 71 726 m 608 396 q 581 518 608 475 q 493 561 554 561 q 372 499 418 561 q 322 329 325 438 l 250 356 q 298 567 253 476 q 418 705 343 657 q 586 753 493 753 q 792 666 721 753 q 863 418 863 579 l 863 0 l 608 0 l 608 396 z "},"ṕ":{"ha":988,"x_min":60,"x_max":940,"o":"m 578 -26 q 401 26 479 -26 q 279 167 322 78 q 238 363 236 256 q 285 559 238 469 q 416 701 333 649 q 597 753 499 753 q 773 702 694 753 q 896 562 851 651 q 940 363 940 472 q 891 167 940 256 q 758 26 842 78 q 578 -26 675 -26 m 60 726 l 311 726 l 311 -310 l 61 -310 l 60 726 m 501 146 q 603 174 557 146 q 677 253 650 203 q 704 365 704 303 q 680 475 704 426 q 613 551 656 524 q 517 579 571 579 q 415 551 463 579 q 340 473 368 522 q 311 364 311 424 q 335 253 311 303 q 404 174 360 203 q 501 146 449 146 z "},"ų":{"ha":990,"x_min":71,"x_max":1001,"o":"m 1001 -389 q 671 -410 792 -432 q 522 -307 550 -387 q 528 -199 504 -257 q 626 -77 551 -142 q 831 58 700 -12 q 894 47 875 65 q 913 -1 914 29 q 754 -111 813 -54 q 722 -210 696 -168 q 792 -240 739 -237 q 913 -229 846 -243 l 1001 -389 m 360 -26 q 146 58 221 -26 q 71 301 71 143 l 71 726 l 324 726 l 324 324 q 360 209 324 251 q 464 167 396 167 q 570 197 522 167 q 647 284 618 228 q 676 415 675 340 l 749 388 q 694 173 746 267 q 553 26 642 79 q 360 -26 465 -26 m 676 726 l 929 726 l 929 0 l 676 0 l 676 726 z "},"ů":{"ha":990,"x_min":71,"x_max":929,"o":"m 360 -26 q 146 58 221 -26 q 71 301 71 143 l 71 726 l 324 726 l 324 324 q 360 209 324 251 q 464 167 396 167 q 570 197 522 167 q 647 284 618 228 q 676 415 675 340 l 749 388 q 694 173 746 267 q 553 26 642 79 q 360 -26 465 -26 m 676 726 l 929 726 l 929 0 l 676 0 l 676 726 z "},"ũ":{"ha":990,"x_min":71,"x_max":929,"o":"m 360 -26 q 146 58 221 -26 q 71 301 71 143 l 71 726 l 324 726 l 324 324 q 360 209 324 251 q 464 167 396 167 q 570 197 522 167 q 647 284 618 228 q 676 415 675 340 l 749 388 q 694 173 746 267 q 553 26 642 79 q 360 -26 465 -26 m 676 726 l 929 726 l 929 0 l 676 0 l 676 726 z "},"v":{"ha":915,"x_min":-8,"x_max":939,"o":"m -8 726 l 251 726 l 453 208 l 667 726 l 939 726 l 617 0 l 281 0 l -8 726 z "},"w":{"ha":1347,"x_min":15,"x_max":1353,"o":"m 665 411 l 521 0 l 233 0 l 15 726 l 272 726 l 390 250 l 549 726 l 799 726 l 954 264 l 1090 726 l 1353 726 l 1101 0 l 807 0 l 665 411 z "},"ẃ":{"ha":1347,"x_min":15,"x_max":1353,"o":"m 665 411 l 521 0 l 233 0 l 15 726 l 272 726 l 390 250 l 549 726 l 799 726 l 954 264 l 1090 726 l 1353 726 l 1101 0 l 807 0 l 665 411 z "},"ŵ":{"ha":1347,"x_min":15,"x_max":1353,"o":"m 665 411 l 521 0 l 233 0 l 15 726 l 272 726 l 390 250 l 549 726 l 799 726 l 954 264 l 1090 726 l 1353 726 l 1101 0 l 807 0 l 665 411 z "},"ẅ":{"ha":1347,"x_min":15,"x_max":1353,"o":"m 665 411 l 521 0 l 233 0 l 15 726 l 272 726 l 390 250 l 549 726 l 799 726 l 954 264 l 1090 726 l 1353 726 l 1101 0 l 807 0 l 665 411 z "},"ẁ":{"ha":1347,"x_min":15,"x_max":1353,"o":"m 665 411 l 521 0 l 233 0 l 15 726 l 272 726 l 390 250 l 549 726 l 799 726 l 954 264 l 1090 726 l 1353 726 l 1101 0 l 807 0 l 665 411 z "},"x":{"ha":914,"x_min":-19,"x_max":940,"o":"m 240 358 l -11 726 l 275 726 l 458 450 l 646 726 l 940 726 l 679 374 l 938 0 l 646 0 l 460 276 l 268 0 l -19 0 l 240 358 z "},"y":{"ha":990,"x_min":71,"x_max":929,"o":"m 360 -26 q 146 58 221 -26 q 71 301 71 143 l 71 726 l 324 726 l 324 324 q 360 209 324 251 q 464 167 396 167 q 570 197 522 167 q 647 284 618 228 q 676 415 675 340 l 749 388 q 694 173 746 267 q 553 26 642 79 q 360 -26 465 -26 m 676 726 l 929 726 l 929 -310 l 676 -310 l 676 726 z "},"ý":{"ha":990,"x_min":71,"x_max":929,"o":"m 360 -26 q 146 58 221 -26 q 71 301 71 143 l 71 726 l 324 726 l 324 324 q 360 209 324 251 q 464 167 396 167 q 570 197 522 167 q 647 284 618 228 q 676 415 675 340 l 749 388 q 694 173 746 267 q 553 26 642 79 q 360 -26 465 -26 m 676 726 l 929 726 l 929 -310 l 676 -310 l 676 726 z "},"ŷ":{"ha":990,"x_min":71,"x_max":929,"o":"m 360 -26 q 146 58 221 -26 q 71 301 71 143 l 71 726 l 324 726 l 324 324 q 360 209 324 251 q 464 167 396 167 q 570 197 522 167 q 647 284 618 228 q 676 415 675 340 l 749 388 q 694 173 746 267 q 553 26 642 79 q 360 -26 465 -26 m 676 726 l 929 726 l 929 -310 l 676 -310 l 676 726 z "},"ÿ":{"ha":990,"x_min":71,"x_max":929,"o":"m 360 -26 q 146 58 221 -26 q 71 301 71 143 l 71 726 l 324 726 l 324 324 q 360 209 324 251 q 464 167 396 167 q 570 197 522 167 q 647 284 618 228 q 676 415 675 340 l 749 388 q 694 173 746 267 q 553 26 642 79 q 360 -26 465 -26 m 676 726 l 929 726 l 929 -310 l 676 -310 l 676 726 z "},"ỳ":{"ha":990,"x_min":71,"x_max":929,"o":"m 360 -26 q 146 58 221 -26 q 71 301 71 143 l 71 726 l 324 726 l 324 324 q 360 209 324 251 q 464 167 396 167 q 570 197 522 167 q 647 284 618 228 q 676 415 675 340 l 749 388 q 694 173 746 267 q 553 26 642 79 q 360 -26 465 -26 m 676 726 l 929 726 l 929 -310 l 676 -310 l 676 726 z "},"ỹ":{"ha":990,"x_min":71,"x_max":929,"o":"m 360 -26 q 146 58 221 -26 q 71 301 71 143 l 71 726 l 324 726 l 324 324 q 360 209 324 251 q 464 167 396 167 q 570 197 522 167 q 647 284 618 228 q 676 415 675 340 l 749 388 q 694 173 746 267 q 553 26 642 79 q 360 -26 465 -26 m 676 726 l 929 726 l 929 -310 l 676 -310 l 676 726 z "},"z":{"ha":799,"x_min":-1,"x_max":807,"o":"m 397 535 l 15 535 l 15 726 l 807 726 l 392 189 l 792 189 l 792 0 l -1 0 l 397 535 z "},"ź":{"ha":799,"x_min":-1,"x_max":807,"o":"m 397 535 l 15 535 l 15 726 l 807 726 l 392 189 l 792 189 l 792 0 l -1 0 l 397 535 z "},"ž":{"ha":799,"x_min":-1,"x_max":807,"o":"m 397 535 l 15 535 l 15 726 l 807 726 l 392 189 l 792 189 l 792 0 l -1 0 l 397 535 z "},"ż":{"ha":799,"x_min":-1,"x_max":807,"o":"m 397 535 l 15 535 l 15 726 l 807 726 l 392 189 l 792 189 l 792 0 l -1 0 l 397 535 z "},"ﬀ":{"ha":1257,"x_min":-4,"x_max":1242,"o":"m 200 694 q 246 870 200 792 q 372 992 292 949 q 551 1036 453 1036 l 646 1036 l 644 840 l 624 840 q 499 806 544 840 q 453 703 453 772 l 453 0 l 200 0 l 200 694 m -4 661 l 729 661 l 729 479 l -4 479 l -4 661 m 713 694 q 758 870 713 792 q 885 992 804 949 q 1064 1036 965 1036 l 1158 1036 l 1157 840 l 1136 840 q 1011 806 1057 840 q 965 703 965 772 l 965 0 l 713 0 l 713 694 m 508 661 l 1242 661 l 1242 479 l 508 479 l 508 661 z "},"ﬃ":{"ha":1650,"x_min":-4,"x_max":1632,"o":"m 200 694 q 246 870 200 792 q 372 992 292 949 q 551 1036 453 1036 l 646 1036 l 644 840 l 624 840 q 499 806 544 840 q 453 703 453 772 l 453 0 l 200 0 l 200 694 m -4 661 l 729 661 l 729 479 l -4 479 l -4 661 m 713 694 q 758 870 713 792 q 885 992 804 949 q 1064 1036 965 1036 l 1158 1036 l 1157 840 l 1136 840 q 1011 806 1057 840 q 965 703 965 772 l 965 0 l 713 0 l 713 694 m 508 661 l 1242 661 l 1242 479 l 508 479 l 508 661 m 1326 726 l 1581 726 l 1581 0 l 1326 0 l 1326 726 m 1453 811 q 1363 832 1404 811 q 1297 888 1321 853 q 1272 964 1272 924 q 1297 1040 1272 1006 q 1363 1097 1321 1075 q 1453 1118 1404 1118 q 1542 1097 1501 1118 q 1608 1040 1583 1075 q 1632 964 1632 1006 q 1608 888 1632 924 q 1542 832 1583 853 q 1453 811 1501 811 z "},"ﬄ":{"ha":1649,"x_min":-4,"x_max":1572,"o":"m 200 694 q 246 870 200 792 q 372 992 292 949 q 551 1036 453 1036 l 646 1036 l 644 840 l 624 840 q 499 806 544 840 q 453 703 453 772 l 453 0 l 200 0 l 200 694 m -4 661 l 729 661 l 729 479 l -4 479 l -4 661 m 713 694 q 758 870 713 792 q 885 992 804 949 q 1064 1036 965 1036 l 1158 1036 l 1157 840 l 1136 840 q 1011 806 1057 840 q 965 703 965 772 l 965 0 l 713 0 l 713 694 m 508 661 l 1242 661 l 1242 479 l 508 479 l 508 661 m 1321 1036 l 1572 1036 l 1572 0 l 1321 0 l 1321 1036 z "},"ﬁ":{"ha":1107,"x_min":-4,"x_max":1088,"o":"m 200 694 q 246 870 200 792 q 372 992 292 949 q 551 1036 453 1036 l 646 1036 l 644 840 l 624 840 q 499 806 544 840 q 453 703 453 772 l 453 0 l 200 0 l 200 694 m -4 726 l 1038 726 l 1038 544 l -4 544 l -4 726 m 783 726 l 1038 726 l 1038 0 l 783 0 l 783 726 m 908 811 q 817 832 858 811 q 752 888 776 853 q 728 964 728 924 q 752 1040 728 1006 q 817 1097 776 1075 q 908 1118 858 1118 q 999 1097 957 1118 q 1064 1040 1040 1075 q 1088 964 1088 1006 q 1064 888 1088 924 q 999 832 1040 853 q 908 811 957 811 z "},"ﬂ":{"ha":1135,"x_min":-4,"x_max":1058,"o":"m 200 694 q 246 870 200 792 q 372 992 292 949 q 551 1036 453 1036 l 646 1036 l 644 840 l 624 840 q 499 806 544 840 q 453 703 453 772 l 453 0 l 200 0 l 200 694 m -4 661 l 729 661 l 729 479 l -4 479 l -4 661 m 807 1036 l 1058 1036 l 1058 0 l 807 0 l 807 1036 z "},"ª":{"ha":775,"x_min":64,"x_max":764,"o":"m 321 347 q 189 396 249 347 q 97 527 129 444 q 67 707 64 610 q 106 888 68 806 q 208 1019 144 971 q 343 1068 271 1068 q 474 1019 415 1068 q 566 888 533 971 q 596 707 599 806 q 556 527 594 610 q 456 396 518 444 q 321 347 393 347 m 401 503 q 478 530 443 503 q 535 604 514 557 q 558 707 557 651 q 541 812 560 764 q 488 887 522 860 q 413 914 454 914 q 337 887 372 914 q 279 811 301 860 q 256 707 257 763 q 274 604 254 651 q 326 530 293 557 q 401 503 360 503 m 561 999 l 764 999 l 760 417 l 558 417 l 561 999 z "},"º":{"ha":825,"x_min":63,"x_max":829,"o":"m 443 347 q 246 395 333 347 q 110 526 158 443 q 63 707 63 608 q 115 890 64 807 q 253 1020 165 972 q 450 1068 340 1068 q 645 1020 558 1068 q 781 889 732 972 q 826 707 829 806 q 776 526 826 608 q 639 395 726 443 q 443 347 551 347 m 442 511 q 537 538 496 511 q 600 608 578 564 q 622 707 622 653 q 603 808 624 763 q 542 878 582 853 q 449 904 503 904 q 354 878 394 904 q 291 808 314 853 q 267 707 268 763 q 286 608 265 653 q 347 538 307 564 q 442 511 388 511 z "},"ѕ":{"ha":897,"x_min":21,"x_max":849,"o":"m 447 -26 q 222 13 317 -26 q 75 115 126 51 q 21 250 24 178 l 260 250 q 309 178 268 207 q 431 147 350 149 q 522 157 485 146 q 577 185 558 168 q 596 222 596 203 q 583 255 596 242 q 535 276 569 268 q 436 290 500 285 q 166 365 260 306 q 74 526 72 425 q 119 642 74 590 q 247 723 164 693 q 440 753 329 753 q 642 719 556 753 q 777 625 728 685 q 838 488 826 565 l 596 488 q 547 553 588 529 q 436 576 507 576 q 368 566 396 576 q 328 541 340 556 q 317 510 315 526 q 349 467 319 483 q 449 446 379 451 q 687 402 600 432 q 810 327 774 372 q 847 218 846 282 q 803 97 849 153 q 666 8 757 42 q 447 -26 575 -26 z "},"μ":{"ha":990,"x_min":71,"x_max":929,"o":"m 360 -26 q 146 58 221 -26 q 71 301 71 143 l 71 726 l 324 726 l 324 324 q 360 209 324 251 q 464 167 396 167 q 570 197 522 167 q 647 284 618 228 q 676 415 675 340 l 749 388 q 694 173 746 267 q 553 26 642 79 q 360 -26 465 -26 m 71 606 l 136 569 l 258 -310 l 71 -310 l 71 606 m 676 726 l 929 726 l 929 0 l 676 0 l 676 726 z "},"₀":{"ha":783,"x_min":26,"x_max":758,"o":"m 388 -167 q 225 -128 299 -167 q 106 -23 151 -90 q 46 131 60 44 q 65 359 26 256 q 192 522 104 463 q 396 581 279 581 q 585 532 503 581 q 713 398 668 483 q 758 207 758 313 q 710 13 758 97 q 577 -119 661 -72 q 388 -167 493 -167 m 388 22 q 510 74 464 22 q 556 206 557 126 q 540 296 557 254 q 487 365 522 338 q 399 392 451 392 q 310 363 351 392 q 249 282 269 333 q 238 168 228 231 q 290 63 247 103 q 388 22 333 22 z "},"₁":{"ha":358,"x_min":72,"x_max":282,"o":"m 72 490 l 161 581 l 282 581 l 282 -167 l 74 -167 l 72 490 z "},"₂":{"ha":718,"x_min":32,"x_max":721,"o":"m 38 -18 q 270 90 147 19 q 457 244 393 160 q 489 324 489 285 q 459 388 489 363 q 378 414 429 414 q 294 392 329 414 q 245 336 260 371 q 242 261 231 301 l 44 261 q 65 413 32 339 q 180 533 99 486 q 383 581 261 581 q 536 554 471 581 q 638 483 601 528 q 685 383 675 438 q 619 175 703 269 q 356 -7 535 81 l 721 -7 l 721 -167 l 38 -167 l 38 -18 z "},"₃":{"ha":765,"x_min":31,"x_max":756,"o":"m 371 -167 q 135 -109 221 -167 q 35 43 50 -51 q 36 115 31 74 l 232 115 q 231 109 231 113 q 231 101 231 106 q 231 94 231 99 q 231 86 231 90 q 276 32 236 53 q 381 11 315 11 q 474 25 436 11 q 528 62 511 39 q 542 111 546 85 q 502 160 536 142 q 399 179 468 179 l 247 179 l 247 292 l 390 292 q 465 303 436 292 q 506 331 494 314 q 514 365 518 347 q 478 408 510 392 q 386 424 447 424 q 297 403 325 424 q 268 349 268 382 l 78 349 q 107 472 67 419 q 224 553 147 525 q 396 581 300 581 q 627 534 547 581 q 721 410 707 488 q 702 313 728 358 q 618 242 676 268 q 705 181 671 218 q 746 97 739 144 q 723 -24 756 38 q 603 -126 690 -85 q 371 -167 515 -167 z "},"₄":{"ha":671,"x_min":-36,"x_max":665,"o":"m 397 -47 l -36 -47 l 375 581 l 588 581 l 588 119 l 665 119 l 665 -47 l 585 -47 l 585 -167 l 396 -167 l 397 -47 m 408 113 l 424 383 l 244 113 l 408 113 z "},"₅":{"ha":701,"x_min":29,"x_max":693,"o":"m 344 -167 q 183 -136 254 -167 q 70 -45 111 -106 q 31 101 29 15 l 228 101 q 264 34 232 58 q 353 10 296 10 q 420 24 389 10 q 469 63 451 38 q 489 117 488 88 q 457 190 489 164 q 368 215 425 215 q 303 206 335 215 q 250 181 271 196 l 61 181 l 114 581 l 628 581 l 619 418 l 279 418 l 265 278 q 439 317 346 317 q 568 290 510 317 q 660 214 626 264 q 692 97 693 164 q 645 -37 690 24 q 522 -132 600 -97 q 344 -167 443 -167 z "},"₆":{"ha":739,"x_min":63,"x_max":751,"o":"m 414 -167 q 226 -118 307 -167 q 104 19 146 -69 q 68 221 63 107 q 126 407 75 325 q 263 535 176 489 q 460 581 350 581 q 597 563 519 581 q 715 517 674 546 l 689 368 q 607 408 657 392 q 496 425 557 425 q 356 383 411 425 q 292 271 301 342 q 475 322 397 322 q 658 270 583 322 q 743 125 732 218 q 720 -13 751 54 q 611 -124 689 -81 q 414 -167 533 -167 m 410 1 q 494 33 460 1 q 532 114 529 64 q 506 183 533 158 q 429 207 478 207 q 365 195 401 207 q 290 163 328 183 q 300 87 289 124 q 339 26 311 50 q 410 1 367 1 z "},"₇":{"ha":624,"x_min":6,"x_max":708,"o":"m 406 404 l 6 404 l 6 581 l 708 581 l 292 -167 l 82 -167 l 406 404 z "},"₈":{"ha":708,"x_min":4,"x_max":711,"o":"m 357 -167 q 114 -110 200 -167 q 14 32 28 -53 q 40 151 4 97 q 146 236 76 206 q 83 288 106 257 q 56 357 61 319 q 72 458 47 406 q 167 546 97 510 q 358 582 238 582 q 574 532 500 582 q 661 404 649 482 q 647 311 668 356 q 572 236 626 267 q 660 174 626 213 q 701 86 694 136 q 678 -35 711 24 q 565 -130 646 -93 q 357 -167 483 -167 m 356 1 q 431 15 400 1 q 476 51 461 29 q 486 97 490 74 q 447 150 482 131 q 358 169 413 169 q 258 144 299 169 q 225 79 218 119 q 263 25 231 49 q 356 1 294 1 m 354 281 q 444 301 413 281 q 469 358 475 322 q 433 406 463 390 q 356 422 403 422 q 268 399 297 422 q 246 340 239 375 q 278 297 250 313 q 354 281 306 281 z "},"₉":{"ha":735,"x_min":32,"x_max":717,"o":"m 322 -167 q 186 -149 263 -167 q 68 -104 110 -132 l 93 46 q 176 5 126 22 q 286 -12 226 -12 q 424 29 371 -12 q 486 142 476 71 q 392 104 436 118 q 308 90 349 90 q 126 143 199 90 q 42 289 53 196 q 63 426 32 360 q 171 537 94 493 q 367 581 247 581 q 554 531 474 581 q 676 394 635 482 q 710 192 717 306 q 654 5 704 86 q 518 -122 604 -76 q 322 -167 432 -167 m 354 207 q 488 249 413 207 q 479 326 490 289 q 442 388 468 363 q 374 413 417 413 q 288 381 322 413 q 251 299 254 350 q 278 231 250 256 q 354 207 306 207 z "},"⁰":{"ha":783,"x_min":47,"x_max":779,"o":"m 408 333 q 246 372 319 333 q 126 477 172 410 q 67 631 79 544 q 86 859 47 756 q 213 1022 125 963 q 417 1081 301 1081 q 606 1032 524 1081 q 734 898 689 983 q 779 707 779 813 q 731 513 779 597 q 599 381 683 428 q 408 333 514 333 m 408 522 q 531 574 485 522 q 575 707 576 626 q 559 796 576 754 q 506 865 542 838 q 418 892 471 892 q 331 862 371 892 q 269 781 290 832 q 258 668 249 731 q 312 563 269 603 q 408 522 354 522 z "},"¹":{"ha":358,"x_min":94,"x_max":304,"o":"m 94 990 l 185 1081 l 304 1081 l 304 333 l 94 333 l 94 990 z "},"²":{"ha":718,"x_min":51,"x_max":743,"o":"m 60 483 q 292 590 169 519 q 478 744 414 660 q 510 824 511 785 q 480 888 510 863 q 399 914 450 914 q 315 892 350 914 q 266 836 281 871 q 263 761 251 801 l 63 761 q 86 913 51 839 q 201 1033 121 986 q 404 1081 282 1081 q 557 1054 492 1081 q 659 983 622 1028 q 706 883 696 938 q 638 675 722 769 q 376 493 554 581 l 743 493 l 743 333 l 60 333 l 60 483 z "},"³":{"ha":765,"x_min":50,"x_max":776,"o":"m 393 333 q 156 391 243 333 q 56 543 69 449 q 56 615 50 578 l 251 615 q 251 606 251 611 q 251 597 250 601 q 251 592 251 594 q 253 586 251 589 q 297 532 257 553 q 401 511 336 511 q 494 525 456 511 q 549 562 532 539 q 563 611 567 585 q 522 660 557 642 q 418 679 488 679 l 267 679 l 269 792 l 411 792 q 485 803 457 792 q 526 831 514 814 q 535 867 538 847 q 500 908 532 892 q 406 924 468 924 q 316 903 344 924 q 289 849 288 882 l 97 849 q 128 972 88 919 q 246 1053 169 1025 q 418 1081 322 1081 q 649 1034 569 1081 q 740 910 728 988 q 722 814 749 858 q 638 742 696 769 q 725 681 692 718 q 767 597 758 644 q 744 476 776 538 q 624 374 711 415 q 393 333 538 333 z "},"⁴":{"ha":671,"x_min":-15,"x_max":686,"o":"m 417 453 l -15 453 l 394 1081 l 608 1081 l 608 619 l 686 619 l 686 453 l 606 453 l 606 333 l 417 333 l 417 453 m 431 613 l 442 883 l 264 613 l 431 613 z "},"⁵":{"ha":701,"x_min":50,"x_max":713,"o":"m 365 333 q 204 364 276 333 q 91 455 132 394 q 50 601 50 515 l 249 601 q 285 534 253 558 q 372 510 317 510 q 441 524 410 510 q 490 563 472 538 q 508 617 508 588 q 477 690 510 664 q 388 715 444 715 q 323 706 354 715 q 271 681 292 696 l 82 681 l 136 1081 l 650 1081 l 643 918 l 301 918 l 288 778 q 460 817 368 817 q 589 790 531 817 q 680 714 647 764 q 713 597 713 664 q 667 463 711 522 q 544 368 622 403 q 365 333 465 333 z "},"⁶":{"ha":739,"x_min":82,"x_max":772,"o":"m 436 333 q 248 382 329 333 q 124 519 167 431 q 88 721 82 607 q 144 907 93 825 q 284 1035 196 989 q 481 1081 372 1081 q 619 1063 542 1081 q 736 1017 696 1046 l 710 868 q 628 908 678 892 q 517 925 578 925 q 378 883 432 925 q 313 771 324 842 q 494 822 419 822 q 678 770 606 822 q 764 625 751 718 q 741 487 772 554 q 633 376 710 419 q 436 333 556 333 m 431 501 q 516 533 482 501 q 551 614 550 564 q 526 683 553 658 q 450 707 499 707 q 385 696 421 707 q 310 663 350 685 q 322 587 310 624 q 361 526 333 550 q 431 501 389 501 z "},"⁷":{"ha":590,"x_min":11,"x_max":714,"o":"m 411 904 l 11 904 l 11 1081 l 714 1081 l 297 333 l 86 333 l 411 904 z "},"⁸":{"ha":708,"x_min":25,"x_max":733,"o":"m 379 333 q 135 390 221 333 q 36 532 50 447 q 61 651 25 597 q 165 736 97 706 q 102 789 125 757 q 75 857 79 821 q 92 958 68 906 q 188 1046 117 1010 q 379 1082 258 1082 q 596 1032 521 1082 q 683 904 671 982 q 668 811 690 856 q 592 736 646 767 q 681 674 647 713 q 724 586 715 636 q 700 465 733 524 q 586 370 667 407 q 379 333 506 333 m 378 501 q 452 515 421 501 q 497 551 483 529 q 507 597 511 574 q 467 650 501 631 q 381 669 433 669 q 280 644 321 669 q 246 579 239 619 q 283 525 251 549 q 378 501 315 501 m 375 781 q 465 801 433 781 q 489 858 496 822 q 454 906 485 890 q 375 922 424 922 q 290 899 318 922 q 265 840 261 875 q 298 797 271 813 q 375 781 325 781 z "},"⁹":{"ha":735,"x_min":53,"x_max":738,"o":"m 344 333 q 206 351 283 333 q 89 396 129 368 l 115 546 q 197 505 147 522 q 308 488 247 488 q 444 529 393 488 q 508 642 496 571 q 413 604 456 618 q 329 590 369 590 q 147 643 219 590 q 63 790 74 696 q 84 927 53 860 q 192 1038 115 994 q 389 1081 269 1081 q 576 1031 496 1081 q 697 894 657 982 q 731 692 738 806 q 675 505 725 586 q 539 378 625 424 q 344 333 453 333 m 375 707 q 508 749 432 707 q 501 826 511 789 q 463 888 490 863 q 394 913 436 913 q 309 881 343 913 q 274 799 275 850 q 299 731 271 754 q 375 707 326 707 z "},"⁄":{"ha":406,"x_min":-178,"x_max":736,"o":"m 521 969 l 736 969 l 38 -68 l -178 -68 l 521 969 z "},"½":{"ha":1526,"x_min":169,"x_max":1529,"o":"m 922 969 l 1138 969 l 439 -68 l 222 -68 l 922 969 m 169 990 l 260 1081 l 379 1081 l 379 333 l 169 333 l 169 990 m 847 -18 q 1079 90 956 19 q 1267 244 1203 160 q 1299 324 1299 285 q 1269 388 1299 363 q 1188 414 1239 414 q 1104 392 1139 414 q 1055 336 1069 371 q 1051 261 1040 301 l 853 261 q 874 413 840 339 q 988 533 907 486 q 1192 581 1069 581 q 1345 554 1281 581 q 1447 483 1410 528 q 1494 383 1485 438 q 1428 176 1513 271 q 1165 -7 1343 81 l 1529 -7 l 1529 -167 l 846 -167 l 847 -18 z "},"¼":{"ha":1375,"x_min":169,"x_max":1292,"o":"m 906 969 l 1121 969 l 422 -68 l 207 -68 l 906 969 m 169 990 l 260 1081 l 379 1081 l 379 333 l 169 333 l 169 990 m 1001 581 l 1213 581 l 1213 119 l 1292 119 l 1292 -47 l 1211 -47 l 1211 -167 l 1022 -167 l 1022 -47 l 590 -47 l 1001 581 m 1035 113 l 1050 383 l 871 113 l 1035 113 z "},"¾":{"ha":1782,"x_min":125,"x_max":1642,"o":"m 1244 969 l 1461 969 l 763 -68 l 546 -68 l 1244 969 m 468 333 q 231 391 318 333 q 131 543 144 449 q 131 615 125 578 l 326 615 q 326 606 326 611 q 326 597 325 601 q 326 592 326 594 q 328 586 326 589 q 372 532 332 553 q 476 511 411 511 q 569 525 531 511 q 624 562 607 539 q 638 611 642 585 q 597 660 632 642 q 493 679 563 679 l 342 679 l 344 792 l 486 792 q 560 803 532 792 q 601 831 589 814 q 610 867 613 847 q 575 908 607 892 q 481 924 543 924 q 391 903 419 924 q 364 849 363 882 l 172 849 q 203 972 163 919 q 321 1053 244 1025 q 493 1081 397 1081 q 724 1034 644 1081 q 815 910 803 988 q 797 814 824 858 q 713 742 771 769 q 800 681 767 718 q 842 597 833 644 q 819 476 851 538 q 699 374 786 415 q 468 333 613 333 m 1372 -47 l 940 -47 l 1353 581 l 1563 581 l 1563 119 l 1642 119 l 1642 -47 l 1561 -47 l 1561 -167 l 1372 -167 l 1372 -47 m 1386 113 l 1400 383 l 1219 113 l 1386 113 z "},"⅛":{"ha":1472,"x_min":94,"x_max":1475,"o":"m 94 990 l 185 1081 l 304 1081 l 304 333 l 94 333 l 94 990 m 879 969 l 1094 969 l 396 -68 l 181 -68 l 879 969 m 1121 -167 q 878 -110 964 -167 q 778 32 792 -53 q 804 151 768 97 q 910 236 840 206 q 847 288 869 257 q 819 357 825 319 q 836 458 811 406 q 931 546 861 510 q 1122 582 1001 582 q 1338 532 1264 582 q 1425 404 1413 482 q 1411 311 1432 356 q 1336 236 1390 267 q 1424 174 1390 213 q 1465 86 1458 136 q 1442 -35 1475 24 q 1328 -130 1410 -93 q 1121 -167 1247 -167 m 1119 1 q 1194 15 1164 1 q 1240 51 1225 29 q 1250 97 1254 74 q 1211 150 1246 131 q 1122 169 1176 169 q 1022 144 1063 169 q 989 79 982 119 q 1026 25 994 49 q 1119 1 1058 1 m 1118 281 q 1208 301 1176 281 q 1233 358 1239 322 q 1197 406 1226 390 q 1119 422 1167 422 q 1032 399 1061 422 q 1010 340 1003 375 q 1042 297 1014 313 q 1118 281 1069 281 z "},"⅜":{"ha":1879,"x_min":50,"x_max":1882,"o":"m 393 333 q 156 391 243 333 q 56 543 69 449 q 56 615 50 578 l 251 615 q 251 606 251 611 q 251 597 250 601 q 251 592 251 594 q 253 586 251 589 q 297 532 257 553 q 401 511 336 511 q 494 525 456 511 q 549 562 532 539 q 563 611 567 585 q 522 660 557 642 q 418 679 488 679 l 267 679 l 269 792 l 411 792 q 485 803 457 792 q 526 831 514 814 q 535 867 538 847 q 500 908 532 892 q 406 924 468 924 q 316 903 344 924 q 289 849 288 882 l 97 849 q 128 972 88 919 q 246 1053 169 1025 q 418 1081 322 1081 q 649 1034 569 1081 q 740 910 728 988 q 722 814 749 858 q 638 742 696 769 q 725 681 692 718 q 767 597 758 644 q 744 476 776 538 q 624 374 711 415 q 393 333 538 333 m 1286 969 l 1501 969 l 803 -68 l 588 -68 l 1286 969 m 1528 -167 q 1285 -110 1371 -167 q 1185 32 1199 -53 q 1211 151 1175 97 q 1317 236 1247 206 q 1254 288 1276 257 q 1226 357 1232 319 q 1243 458 1218 406 q 1338 546 1268 510 q 1529 582 1408 582 q 1745 532 1671 582 q 1832 404 1819 482 q 1818 311 1839 356 q 1743 236 1797 267 q 1831 174 1797 213 q 1872 86 1865 136 q 1849 -35 1882 24 q 1735 -130 1817 -93 q 1528 -167 1654 -167 m 1526 1 q 1601 15 1571 1 q 1647 51 1632 29 q 1657 97 1661 74 q 1618 150 1653 131 q 1529 169 1583 169 q 1429 144 1469 169 q 1396 79 1389 119 q 1433 25 1401 49 q 1526 1 1465 1 m 1525 281 q 1615 301 1583 281 q 1640 358 1646 322 q 1603 406 1633 390 q 1526 422 1574 422 q 1439 399 1468 422 q 1417 340 1410 375 q 1449 297 1421 313 q 1525 281 1476 281 z "},"⅝":{"ha":1815,"x_min":50,"x_max":1818,"o":"m 365 333 q 204 364 276 333 q 91 455 132 394 q 50 601 50 515 l 249 601 q 285 534 253 558 q 372 510 317 510 q 441 524 410 510 q 490 563 472 538 q 508 617 508 588 q 477 690 510 664 q 388 715 444 715 q 323 706 354 715 q 271 681 292 696 l 82 681 l 136 1081 l 650 1081 l 643 918 l 301 918 l 288 778 q 460 817 368 817 q 589 790 531 817 q 680 714 647 764 q 713 597 713 664 q 667 463 711 522 q 544 368 622 403 q 365 333 465 333 m 1222 969 l 1438 969 l 739 -68 l 524 -68 l 1222 969 m 1464 -167 q 1221 -110 1307 -167 q 1121 32 1135 -53 q 1147 151 1111 97 q 1253 236 1183 206 q 1190 288 1213 257 q 1163 357 1168 319 q 1179 458 1154 406 q 1274 546 1204 510 q 1465 582 1344 582 q 1681 532 1607 582 q 1768 404 1756 482 q 1754 311 1775 356 q 1679 236 1733 267 q 1767 174 1733 213 q 1808 86 1801 136 q 1785 -35 1818 24 q 1672 -130 1753 -93 q 1464 -167 1590 -167 m 1463 1 q 1538 15 1507 1 q 1583 51 1568 29 q 1593 97 1597 74 q 1554 150 1589 131 q 1465 169 1519 169 q 1365 144 1406 169 q 1332 79 1325 119 q 1369 25 1338 49 q 1463 1 1401 1 m 1461 281 q 1551 301 1519 281 q 1576 358 1582 322 q 1540 406 1569 390 q 1463 422 1510 422 q 1375 399 1404 422 q 1353 340 1346 375 q 1385 297 1357 313 q 1461 281 1413 281 z "},"⅞":{"ha":1704,"x_min":11,"x_max":1707,"o":"m 411 904 l 11 904 l 11 1081 l 714 1081 l 297 333 l 86 333 l 411 904 m 1111 969 l 1326 969 l 628 -68 l 413 -68 l 1111 969 m 1353 -167 q 1110 -110 1196 -167 q 1010 32 1024 -53 q 1036 151 1000 97 q 1142 236 1072 206 q 1079 288 1101 257 q 1051 357 1057 319 q 1068 458 1043 406 q 1163 546 1093 510 q 1354 582 1233 582 q 1570 532 1496 582 q 1657 404 1644 482 q 1643 311 1664 356 q 1568 236 1622 267 q 1656 174 1622 213 q 1697 86 1690 136 q 1674 -35 1707 24 q 1560 -130 1642 -93 q 1353 -167 1479 -167 m 1351 1 q 1426 15 1396 1 q 1472 51 1457 29 q 1482 97 1486 74 q 1443 150 1478 131 q 1354 169 1408 169 q 1254 144 1294 169 q 1221 79 1214 119 q 1258 25 1226 49 q 1351 1 1290 1 m 1350 281 q 1440 301 1408 281 q 1465 358 1471 322 q 1428 406 1458 390 q 1351 422 1399 422 q 1264 399 1293 422 q 1242 340 1235 375 q 1274 297 1246 313 q 1350 281 1301 281 z "},"　":{"ha":1389,"x_min":0,"x_max":0,"o":""}," ":{"ha":308,"x_min":0,"x_max":0,"o":""},"‎":{"ha":0,"x_min":0,"x_max":0,"o":""},"‏":{"ha":0,"x_min":0,"x_max":0,"o":""},"‍":{"ha":0,"x_min":0,"x_max":0,"o":""},"‌":{"ha":0,"x_min":0,"x_max":0,"o":""}," ":{"ha":1389,"x_min":0,"x_max":0,"o":""}," ":{"ha":1389,"x_min":0,"x_max":0,"o":""}," ":{"ha":694,"x_min":0,"x_max":0,"o":""}," ":{"ha":694,"x_min":0,"x_max":0,"o":""}," ":{"ha":1058,"x_min":0,"x_max":0,"o":""}," ":{"ha":347,"x_min":0,"x_max":0,"o":""}," ":{"ha":199,"x_min":0,"x_max":0,"o":""}," ":{"ha":392,"x_min":0,"x_max":0,"o":""}," ":{"ha":433,"x_min":0,"x_max":0,"o":""}," ":{"ha":232,"x_min":0,"x_max":0,"o":""}," ":{"ha":489,"x_min":0,"x_max":0,"o":""}," ":{"ha":278,"x_min":0,"x_max":0,"o":""}," ":{"ha":463,"x_min":0,"x_max":0,"o":""},"​":{"ha":0,"x_min":0,"x_max":0,"o":""},".":{"ha":433,"x_min":49,"x_max":399,"o":"m 222 0 q 134 21 174 0 q 72 78 94 42 q 49 156 49 114 q 72 235 49 199 q 134 291 94 271 q 222 311 174 311 q 310 291 269 311 q 375 235 351 271 q 399 156 399 199 q 375 78 399 114 q 310 21 351 42 q 222 0 269 0 z "},",":{"ha":336,"x_min":31,"x_max":306,"o":"m 31 -149 l 51 290 l 306 290 l 171 -175 l 31 -149 z "},":":{"ha":433,"x_min":68,"x_max":386,"o":"m 226 453 q 114 492 160 453 q 68 589 68 532 q 114 688 68 649 q 226 726 160 726 q 340 687 293 726 q 386 589 386 647 q 340 492 386 532 q 226 453 293 453 m 226 0 q 114 39 160 0 q 68 136 68 78 q 114 233 68 194 q 226 272 160 272 q 340 233 293 272 q 386 136 386 194 q 340 39 386 78 q 226 0 293 0 z "},";":{"ha":433,"x_min":68,"x_max":386,"o":"m 81 -149 l 103 290 l 358 290 l 222 -175 l 81 -149 m 226 453 q 114 492 160 453 q 68 589 68 532 q 114 688 68 649 q 226 726 160 726 q 340 687 293 726 q 386 589 386 647 q 340 492 386 532 q 226 453 293 453 z "},"…":{"ha":1299,"x_min":49,"x_max":1126,"o":"m 950 0 q 863 21 903 0 q 800 78 824 42 q 776 156 776 114 q 800 235 776 199 q 863 291 824 271 q 950 311 903 311 q 1038 291 997 311 q 1103 235 1079 271 q 1126 156 1126 199 q 1103 78 1126 114 q 1038 21 1079 42 q 950 0 997 0 m 222 0 q 134 21 174 0 q 72 78 94 42 q 49 156 49 114 q 72 235 49 199 q 134 291 94 271 q 222 311 174 311 q 310 291 269 311 q 375 235 351 271 q 399 156 399 199 q 375 78 399 114 q 310 21 351 42 q 222 0 269 0 m 793 0 q 706 21 746 0 q 642 78 665 42 q 619 156 619 114 q 642 235 619 199 q 706 291 665 271 q 793 311 746 311 q 881 291 840 311 q 946 235 922 271 q 969 156 969 199 q 946 78 969 114 q 881 21 922 42 q 793 0 840 0 z "},"!":{"ha":378,"x_min":15,"x_max":332,"o":"m 64 1039 l 324 1039 l 247 394 l 103 394 l 64 1039 m 174 0 q 93 19 129 0 q 36 70 57 38 q 15 142 15 103 q 36 213 15 181 q 93 263 57 244 q 174 282 129 282 q 253 263 217 282 q 311 212 290 244 q 332 142 332 179 q 311 70 332 103 q 253 19 290 38 q 174 0 217 0 z "},"¡":{"ha":378,"x_min":19,"x_max":336,"o":"m 288 -83 l 28 -83 l 104 561 l 249 561 l 288 -83 m 178 956 q 258 937 222 956 q 315 885 294 918 q 336 814 336 853 q 315 743 336 775 q 258 692 294 711 q 178 674 222 674 q 98 692 135 674 q 40 744 61 711 q 19 814 19 776 q 40 885 19 853 q 98 937 61 918 q 178 956 135 956 z "},"?":{"ha":917,"x_min":26,"x_max":904,"o":"m 301 589 q 329 590 315 589 q 358 592 343 590 q 576 628 492 596 q 661 742 661 661 q 623 826 661 789 q 518 871 585 863 q 376 863 436 882 q 288 801 317 843 q 265 700 258 758 l 29 700 q 76 891 26 811 q 227 1013 125 971 q 479 1056 329 1056 q 677 1024 579 1056 q 839 926 775 993 q 903 758 903 858 q 856 607 904 672 q 719 503 808 542 q 508 454 629 465 l 479 353 l 333 353 l 301 589 m 411 0 q 332 19 368 0 q 275 70 296 38 q 254 142 254 103 q 275 213 254 181 q 332 263 296 244 q 411 282 368 282 q 491 263 454 282 q 549 212 528 244 q 571 142 571 179 q 549 70 571 103 q 491 19 528 38 q 411 0 454 0 z "},"¿":{"ha":917,"x_min":26,"x_max":904,"o":"m 629 383 q 601 383 615 383 q 572 381 588 382 q 354 344 439 376 q 269 231 269 311 q 308 147 269 183 q 413 101 346 110 q 554 110 494 90 q 643 172 614 129 q 665 272 672 214 l 901 272 q 855 81 904 161 q 703 -41 806 1 q 451 -83 601 -83 q 253 -52 351 -83 q 92 47 156 -21 q 28 214 28 114 q 74 365 26 300 q 212 469 122 431 q 422 518 301 507 l 451 619 l 597 619 l 629 383 m 519 972 q 599 953 563 972 q 656 902 635 935 q 676 831 676 869 q 656 760 676 792 q 599 709 635 728 q 519 690 563 690 q 440 709 476 690 q 381 760 403 728 q 360 831 360 793 q 381 902 360 869 q 440 953 403 935 q 519 972 476 972 z "},"·":{"ha":444,"x_min":78,"x_max":369,"o":"m 224 396 q 119 433 161 396 q 78 526 78 471 q 118 620 78 582 q 221 658 158 658 q 327 620 285 658 q 369 526 369 582 q 328 433 369 471 q 224 396 288 396 z "},"•":{"ha":906,"x_min":217,"x_max":704,"o":"m 460 253 q 338 282 393 253 q 249 361 282 311 q 217 471 217 411 q 249 582 217 532 q 338 661 282 632 q 460 690 393 690 q 582 661 526 690 q 671 582 638 632 q 704 471 704 532 q 671 361 704 411 q 582 282 638 311 q 460 253 526 253 z "},"*":{"ha":769,"x_min":11,"x_max":769,"o":"m 113 488 l 239 683 l 11 663 l 18 853 l 238 822 l 118 1017 l 292 1078 l 397 863 l 493 1072 l 672 990 l 560 815 l 769 833 l 767 644 l 540 675 l 664 465 l 493 394 l 400 626 l 286 393 l 113 488 z "},"#":{"ha":875,"x_min":49,"x_max":819,"o":"m 136 250 l 50 250 l 49 417 l 157 417 l 176 579 l 53 579 l 54 747 l 197 747 l 214 885 l 400 885 l 383 747 l 540 747 l 557 885 l 743 885 l 726 747 l 819 747 l 819 581 l 707 581 l 688 418 l 814 418 l 815 250 l 667 250 l 649 100 l 463 100 l 481 250 l 322 250 l 304 100 l 118 100 l 136 250 m 500 418 l 519 581 l 364 579 l 343 417 l 500 418 z "},"/":{"ha":690,"x_min":-21,"x_max":717,"o":"m 494 932 l 717 932 l 199 -107 l -21 -107 l 494 932 z "},"\\":{"ha":669,"x_min":-47,"x_max":724,"o":"m -47 932 l 169 932 l 724 -107 l 504 -107 l -47 932 z "},"-":{"ha":529,"x_min":49,"x_max":489,"o":"m 49 542 l 489 542 l 489 324 l 49 324 l 49 542 z "},"–":{"ha":1090,"x_min":49,"x_max":1032,"o":"m 49 542 l 1032 542 l 1032 324 l 49 324 l 49 542 z "},"—":{"ha":1249,"x_min":49,"x_max":1199,"o":"m 49 542 l 1199 542 l 1199 324 l 49 324 l 49 542 z "},"_":{"ha":615,"x_min":28,"x_max":615,"o":"m 28 25 l 615 25 l 615 -160 l 28 -160 l 28 25 z "},"(":{"ha":486,"x_min":68,"x_max":481,"o":"m 479 -258 q 274 -180 365 -249 q 128 26 183 -111 q 71 371 72 164 q 124 715 68 565 q 276 944 181 864 q 481 1025 372 1024 l 481 850 q 384 785 426 847 q 318 618 342 724 q 292 382 294 513 q 315 128 292 228 q 381 -17 338 29 q 479 -65 424 -64 l 479 -258 z "},")":{"ha":508,"x_min":21,"x_max":432,"o":"m 21 -83 q 115 -27 74 -81 q 181 123 157 26 q 208 349 206 219 q 187 606 211 496 q 119 775 163 715 q 22 836 75 835 l 22 1025 q 224 948 133 1015 q 372 740 315 881 q 431 382 428 599 q 376 45 432 190 q 224 -179 319 -100 q 21 -258 128 -258 l 21 -83 z "},"{":{"ha":581,"x_min":108,"x_max":440,"o":"m 433 -232 q 253 -176 328 -224 q 143 -59 178 -128 q 119 78 108 10 q 143 151 126 121 q 186 217 160 182 q 215 261 207 246 q 225 294 224 276 q 201 360 228 332 q 132 390 175 388 l 135 492 q 205 509 178 492 q 233 558 232 526 q 226 595 233 576 q 200 649 218 614 q 162 733 175 696 q 150 814 149 769 q 225 969 153 911 q 440 1026 297 1026 l 440 844 q 357 828 390 847 q 325 761 324 808 q 331 719 324 739 q 358 664 339 700 q 390 594 379 625 q 400 525 401 564 q 368 458 399 488 q 293 418 338 428 q 365 354 335 400 q 393 267 396 308 q 378 199 392 225 q 339 144 365 174 q 315 113 324 126 q 303 81 306 99 q 312 17 296 44 q 360 -24 328 -10 q 433 -39 392 -39 l 433 -232 z "},"}":{"ha":581,"x_min":117,"x_max":447,"o":"m 117 -50 q 199 -33 165 -53 q 232 33 233 -12 q 224 78 232 57 q 197 131 215 99 q 165 202 175 172 q 156 269 154 232 q 188 338 157 308 q 264 376 218 368 q 191 441 221 394 q 163 529 161 488 q 178 597 164 571 q 217 650 192 622 q 242 683 233 669 q 253 714 250 696 q 244 777 261 750 q 196 819 228 804 q 124 833 164 833 l 124 1026 q 303 972 228 1019 q 413 854 378 924 q 436 717 447 785 q 415 646 431 676 q 371 579 399 615 q 342 537 351 554 q 331 500 332 519 q 355 436 328 464 q 425 406 382 408 l 422 304 q 351 286 378 304 q 324 236 324 268 q 331 198 324 218 q 357 146 339 178 q 394 63 381 100 q 407 -18 408 26 q 332 -174 404 -117 q 117 -232 260 -232 l 117 -50 z "},"[":{"ha":601,"x_min":125,"x_max":610,"o":"m 125 1039 l 610 1039 l 610 867 l 339 867 l 339 -62 l 594 -62 l 596 -232 l 125 -232 l 125 1039 z "},"]":{"ha":599,"x_min":13,"x_max":486,"o":"m 13 -60 l 275 -60 l 275 869 l 19 869 l 19 1039 l 486 1039 l 486 -232 l 13 -232 l 13 -60 z "},"‚":{"ha":279,"x_min":35,"x_max":271,"o":"m 35 286 l 174 286 q 245 273 224 286 q 269 223 267 260 q 251 111 271 186 l 199 -165 l 65 -165 l 35 286 z "},"„":{"ha":558,"x_min":49,"x_max":547,"o":"z "},"“":{"ha":556,"x_min":25,"x_max":524,"o":"m 524 588 l 385 588 q 313 601 335 588 q 290 651 292 614 q 307 763 288 688 l 360 1039 l 493 1039 l 524 588 m 261 588 l 122 588 q 51 601 72 588 q 27 651 29 614 q 44 763 25 688 l 97 1039 l 231 1039 l 261 588 z "},"”":{"ha":556,"x_min":35,"x_max":533,"o":"z "},"‘":{"ha":279,"x_min":28,"x_max":264,"o":"m 264 586 l 125 586 q 53 599 75 586 q 30 649 32 613 q 47 761 28 686 l 100 1038 l 233 1038 l 264 586 z "},"’":{"ha":279,"x_min":35,"x_max":271,"o":"m 35 1039 l 174 1039 q 245 1026 224 1039 q 269 976 267 1013 q 251 864 271 939 l 199 588 l 65 588 l 35 1039 z "},"«":{"ha":1014,"x_min":40,"x_max":1079,"o":"m 442 315 l 442 411 l 776 710 l 1079 710 l 683 361 l 1043 18 l 756 18 l 442 315 m 40 411 l 374 710 l 676 710 l 279 361 l 639 18 l 353 18 l 40 315 l 40 411 z "},"»":{"ha":1054,"x_min":-12,"x_max":1025,"o":"m 785 367 l 425 710 l 713 710 l 1025 414 l 1025 317 l 692 18 l 389 18 l 785 367 m 382 367 l 24 710 l 310 710 l 621 414 l 621 317 l 288 18 l -12 18 l 382 367 z "},"‹":{"ha":625,"x_min":40,"x_max":676,"o":"m 40 315 l 40 411 l 374 710 l 676 710 l 279 361 l 639 18 l 353 18 l 40 315 z "},"›":{"ha":688,"x_min":3,"x_max":638,"o":"m 397 367 l 39 710 l 324 710 l 638 414 l 636 317 l 303 18 l 3 18 l 397 367 z "},"\"":{"ha":503,"x_min":13,"x_max":506,"o":"m 286 1036 l 506 1036 l 449 644 l 292 644 l 286 1036 m 176 1036 l 197 801 l 54 644 l 13 879 l 176 1036 z "},"'":{"ha":200,"x_min":14,"x_max":263,"o":"m 14 1036 l 263 1036 l 165 644 l 21 644 l 14 1036 z "},"ƒ":{"ha":771,"x_min":8,"x_max":742,"o":"m 211 694 q 258 870 211 792 q 386 992 306 949 q 565 1036 467 1036 l 658 1036 l 658 840 l 638 840 q 510 806 557 840 q 464 703 464 772 l 464 -310 l 211 -310 l 211 694 m 8 661 l 742 661 l 742 479 l 8 479 l 8 661 z "},"@":{"ha":1322,"x_min":39,"x_max":1290,"o":"m 646 -301 q 316 -206 454 -301 q 108 47 178 -110 q 42 381 39 203 q 129 708 46 557 q 360 951 213 860 q 697 1043 508 1043 q 1014 961 879 1043 q 1219 729 1149 879 q 1283 381 1290 579 q 1149 74 1276 160 q 901 63 1022 -12 q 801 322 781 139 l 778 365 l 778 697 l 949 697 l 949 325 q 992 194 947 228 q 1085 210 1038 160 q 1140 381 1132 261 q 1102 654 1151 535 q 949 841 1053 774 q 701 908 846 908 q 439 842 553 908 q 258 656 325 775 q 181 381 190 536 q 228 105 172 231 q 393 -94 285 -21 q 644 -168 501 -168 q 798 -142 722 -168 q 931 -76 874 -117 l 1046 -172 q 858 -265 963 -229 q 646 -301 754 -301 m 590 18 q 463 64 521 18 q 374 190 406 110 q 346 365 343 269 q 385 539 349 460 q 482 665 422 618 q 610 711 542 711 q 737 666 681 711 q 824 544 793 621 q 854 372 856 467 q 815 194 851 275 q 720 65 779 113 q 590 18 661 18 m 658 172 q 742 225 714 172 q 772 365 771 278 q 756 506 776 456 q 682 556 736 556 q 581 501 622 556 q 538 365 540 446 q 550 265 535 310 q 594 197 565 221 q 658 172 622 172 z "},"&":{"ha":972,"x_min":50,"x_max":942,"o":"m 364 0 q 183 37 253 0 q 81 134 113 74 q 54 268 50 194 q 101 390 56 339 q 228 468 146 440 q 74 669 89 526 q 106 815 65 747 q 231 923 147 882 q 431 964 315 964 l 722 964 l 707 778 l 492 778 q 356 749 400 778 q 310 663 313 721 q 341 589 308 615 q 439 563 374 563 l 942 563 l 939 389 l 425 389 q 353 376 386 389 q 302 337 321 363 q 282 275 283 311 q 320 196 281 228 q 433 164 360 164 q 524 188 481 164 q 597 258 568 211 q 625 374 625 306 l 753 286 q 605 80 700 160 q 364 0 510 0 m 619 172 l 619 444 l 833 444 l 833 0 l 653 0 l 619 172 z "},"¶":{"ha":871,"x_min":-31,"x_max":860,"o":"m 536 1039 l 683 1039 l 683 -310 l 536 -310 l 536 1039 m 203 1039 l 350 1039 l 350 -310 l 203 -310 l 203 1039 m 203 589 q 33 653 97 589 q -31 821 -31 718 q 33 990 -31 926 q 203 1054 97 1054 l 203 589 m 203 1054 l 860 1054 l 860 860 l 203 860 l 203 1054 z "},"§":{"ha":919,"x_min":14,"x_max":865,"o":"m 453 -93 q 224 -53 322 -93 q 71 53 125 -14 q 14 199 17 119 l 249 199 q 304 124 256 154 q 436 92 353 93 q 531 100 490 89 q 594 128 572 111 q 617 168 617 146 q 601 202 617 189 q 547 224 585 215 q 440 238 510 232 q 162 316 260 256 q 65 488 64 376 q 129 615 65 567 q 300 671 193 663 l 292 567 q 123 653 182 596 q 65 793 64 710 q 113 917 64 864 q 247 999 161 971 q 444 1028 332 1028 q 648 993 560 1028 q 789 896 736 958 q 854 750 842 833 l 617 750 q 561 815 607 790 q 442 839 515 839 q 367 830 399 839 q 319 805 335 821 q 304 771 303 789 q 342 728 307 744 q 453 706 378 711 q 768 628 674 686 q 864 469 863 569 q 784 335 865 386 q 569 272 703 283 l 661 363 q 815 283 767 332 q 864 164 863 235 q 817 35 865 94 q 674 -58 768 -24 q 453 -93 579 -93 m 458 394 q 535 405 500 394 q 592 432 571 415 q 613 469 613 449 q 592 508 613 490 q 535 535 571 525 q 458 546 500 546 q 382 535 417 546 q 326 508 347 525 q 306 469 306 490 q 326 432 306 449 q 382 405 347 415 q 458 394 417 394 z "},"©":{"ha":1381,"x_min":43,"x_max":1321,"o":"m 669 -282 q 333 -195 475 -282 q 117 42 190 -108 q 47 381 43 193 q 136 715 51 563 q 367 955 221 867 q 694 1043 513 1043 q 1030 955 888 1043 q 1247 715 1172 867 q 1317 381 1321 564 q 1229 48 1314 200 q 997 -193 1144 -104 q 669 -282 850 -282 m 658 -126 q 910 -62 801 -126 q 1083 115 1019 1 q 1156 375 1146 228 q 1112 640 1165 521 q 953 828 1058 760 q 710 897 847 897 q 457 833 568 897 q 280 652 346 768 q 207 388 214 536 q 251 123 197 240 q 412 -60 306 6 q 658 -126 518 -126 m 686 14 q 501 64 582 14 q 375 200 419 114 q 332 390 331 286 q 379 581 335 496 q 506 716 424 667 q 700 765 589 765 q 857 725 786 765 q 972 615 928 685 q 1024 460 1015 544 l 853 460 q 826 523 847 494 q 770 568 804 551 q 697 585 736 585 q 608 559 649 585 q 542 488 567 533 q 518 390 518 443 q 538 293 517 338 q 597 223 558 249 q 682 197 635 197 q 788 230 744 197 q 846 319 832 263 l 1019 319 q 963 165 1010 235 q 844 54 917 94 q 686 14 771 14 z "},"®":{"ha":1379,"x_min":43,"x_max":1321,"o":"m 669 -282 q 333 -195 475 -282 q 117 42 190 -108 q 47 381 43 193 q 136 715 51 563 q 367 955 221 867 q 694 1043 513 1043 q 1030 955 888 1043 q 1247 715 1172 867 q 1317 381 1321 564 q 1229 48 1314 200 q 997 -193 1144 -104 q 669 -282 850 -282 m 401 754 l 601 754 l 601 50 l 401 50 l 401 754 m 658 -126 q 910 -62 801 -126 q 1083 115 1019 1 q 1156 375 1146 228 q 1112 640 1165 521 q 953 828 1058 760 q 710 897 847 897 q 457 833 568 897 q 280 652 346 768 q 207 388 214 536 q 248 122 197 238 q 404 -60 299 6 q 658 -126 510 -126 m 674 406 q 768 433 733 406 q 800 515 803 461 q 765 586 797 564 q 675 608 733 608 l 576 608 l 574 406 l 674 406 m 538 375 l 535 754 l 689 754 q 853 723 785 754 q 957 637 921 692 q 994 517 993 582 q 950 378 997 433 q 811 301 903 322 l 1038 72 l 822 50 l 538 375 z "},"™":{"ha":1692,"x_min":18,"x_max":1644,"o":"m 771 965 l 1063 965 l 1199 546 l 1357 965 l 1644 965 l 1644 219 l 1435 219 l 1435 690 l 1265 219 l 1121 219 l 972 685 l 972 219 l 771 219 l 771 965 m 18 965 l 701 965 l 701 806 l 469 806 l 469 219 l 261 219 l 261 806 l 18 806 l 18 965 z "},"°":{"ha":481,"x_min":22,"x_max":468,"o":"m 243 565 q 128 592 179 565 q 50 665 78 619 q 22 765 22 710 q 49 866 22 819 q 126 940 76 913 q 240 967 176 967 q 360 942 310 967 q 438 874 411 917 q 467 776 465 831 q 441 672 468 721 q 363 594 414 624 q 243 565 311 565 m 243 689 q 297 710 278 689 q 315 765 317 732 q 297 821 315 799 q 243 843 279 843 q 190 822 208 843 q 171 767 171 800 q 188 710 169 732 q 243 689 207 689 z "},"|":{"ha":556,"x_min":203,"x_max":350,"o":"m 203 1039 l 350 1039 l 350 -310 l 203 -310 l 203 1039 z "},"¦":{"ha":556,"x_min":203,"x_max":350,"o":"m 203 1039 l 350 1039 l 350 524 l 203 524 l 203 1039 m 203 206 l 350 206 l 350 -310 l 203 -310 l 203 206 z "},"†":{"ha":822,"x_min":57,"x_max":771,"o":"m 307 593 l 57 593 l 57 786 l 307 786 l 307 1039 l 506 1039 l 506 786 l 771 786 l 771 593 l 506 593 l 506 -310 l 307 -310 l 307 593 z "},"‡":{"ha":822,"x_min":57,"x_max":778,"o":"m 307 -67 l 64 -67 l 64 124 l 307 124 l 307 593 l 57 593 l 57 786 l 307 786 l 307 1039 l 506 1039 l 506 786 l 771 786 l 771 593 l 506 593 l 506 124 l 778 124 l 778 -67 l 506 -67 l 506 -310 l 307 -310 l 307 -67 z "},"№":{"ha":1996,"x_min":72,"x_max":1963,"o":"m 315 596 l 315 0 l 72 0 l 72 965 l 315 965 l 731 363 l 731 965 l 974 965 l 974 0 l 724 0 l 315 596 m 1518 -26 q 1292 26 1392 -26 q 1137 167 1193 78 q 1082 364 1081 257 q 1141 561 1083 472 q 1299 701 1199 650 q 1525 753 1400 753 q 1755 701 1656 753 q 1908 562 1854 650 q 1963 365 1963 474 q 1903 167 1961 257 q 1745 26 1846 78 q 1518 -26 1644 -26 m 1515 165 q 1620 192 1574 165 q 1693 263 1667 218 q 1719 364 1719 308 q 1698 466 1721 421 q 1631 537 1675 511 q 1526 563 1586 563 q 1422 536 1468 563 q 1349 465 1375 510 q 1319 365 1322 419 q 1342 264 1318 310 q 1412 192 1367 218 q 1515 165 1457 165 z "},"K":{"ha":957,"x_min":69,"x_max":1046,"o":"m 321 464 l 321 0 l 69 0 l 69 965 l 321 965 l 321 533 l 699 965 l 1024 965 l 597 507 l 1046 0 l 719 0 l 321 464 z "}}}
